<?xml version="1.0" encoding="UTF-8" standalone="no"?>
<svg
   xmlns:dc="http://purl.org/dc/elements/1.1/"
   xmlns:cc="http://creativecommons.org/ns#"
   xmlns:rdf="http://www.w3.org/1999/02/22-rdf-syntax-ns#"
   xmlns:svg="http://www.w3.org/2000/svg"
   xmlns="http://www.w3.org/2000/svg"
   xmlns:xlink="http://www.w3.org/1999/xlink"
   xmlns:sodipodi="http://sodipodi.sourceforge.net/DTD/sodipodi-0.dtd"
   xmlns:inkscape="http://www.inkscape.org/namespaces/inkscape"
   width="213.1107mm"
   height="306.37326mm"
   viewBox="0 0 213.1107 306.37326"
   version="1.1"
   id="svg417"
   sodipodi:docname="cueva.svg"
   inkscape:version="1.0.1 (3bc2e813f5, 2020-09-07)">
  <defs
     id="defs411">
    <radialGradient
       inkscape:collect="always"
       xlink:href="#linearGradient5713"
       id="radialGradient5715"
       cx="105.94799"
       cy="159.47971"
       fx="105.94799"
       fy="159.47971"
       r="90.300598"
       gradientTransform="matrix(1,0,0,1.2578763,337.95104,381.60892)"
       gradientUnits="userSpaceOnUse" />
    <linearGradient
       inkscape:collect="always"
       id="linearGradient5713">
      <stop
         style="stop-color:#000000;stop-opacity:1;"
         offset="0"
         id="stop5709" />
      <stop
         style="stop-color:#000000;stop-opacity:0;"
         offset="1"
         id="stop5711" />
    </linearGradient>
    <marker
       inkscape:stockid="Arrow1Lstart"
       orient="auto"
       refY="0"
       refX="0"
       id="marker5443"
       style="overflow:visible"
       inkscape:isstock="true">
      <path
         id="path5441"
         d="M 0,0 5,-5 -12.5,0 5,5 Z"
         style="fill:#c8b7be;fill-opacity:1;fill-rule:evenodd;stroke:#000000;stroke-width:1pt;stroke-opacity:1"
         transform="matrix(0.8,0,0,0.8,10,0)" />
    </marker>
    <radialGradient
       inkscape:collect="always"
       xlink:href="#linearGradient5781"
       id="radialGradient5783"
       cx="105.45536"
       cy="15.407738"
       fx="105.45536"
       fy="15.407738"
       r="104.83191"
       gradientTransform="matrix(1,0,0,0.13466909,337.95104,436.06777)"
       gradientUnits="userSpaceOnUse" />
    <linearGradient
       inkscape:collect="always"
       id="linearGradient5781">
      <stop
         style="stop-color:#df7369;stop-opacity:1;"
         offset="0"
         id="stop5777" />
      <stop
         style="stop-color:#df7369;stop-opacity:0;"
         offset="1"
         id="stop5779" />
    </linearGradient>
  </defs>
  <sodipodi:namedview
     id="base"
     pagecolor="#ffffff"
     bordercolor="#666666"
     borderopacity="1.0"
     inkscape:pageopacity="0.0"
     inkscape:pageshadow="2"
     inkscape:zoom="0.35"
     inkscape:cx="402.72885"
     inkscape:cy="578.9731"
     inkscape:document-units="mm"
     inkscape:current-layer="layer1"
     inkscape:document-rotation="0"
     showgrid="false"
     fit-margin-top="0"
     fit-margin-left="0"
     fit-margin-right="0"
     fit-margin-bottom="0"
     inkscape:snap-global="false" />
  <metadata
     id="metadata414">
    <rdf:RDF>
      <cc:Work
         rdf:about="">
        <dc:format>image/svg+xml</dc:format>
        <dc:type
           rdf:resource="http://purl.org/dc/dcmitype/StillImage" />
        <dc:title></dc:title>
      </cc:Work>
    </rdf:RDF>
  </metadata>
  <g
     inkscape:label="Capa 1"
     inkscape:groupmode="layer"
     id="layer1"
     transform="translate(-337.95104,-422.73499)">
    <path
       style="display:inline;fill:#241c1f;fill-opacity:0.988235;stroke:#000000;stroke-width:0.264998;stroke-linecap:butt;stroke-linejoin:miter;stroke-miterlimit:4;stroke-dasharray:none;stroke-opacity:1"
       d="m 352.95332,437.24253 2.05539,260.96153 184.29989,2.69037 1.37026,-263.6519 z"
       id="path829"
       inkscape:connector-curvature="0" />
    <path
       style="display:inline;opacity:0.324;fill:#48373e;stroke:#000000;stroke-width:0.264583px;stroke-linecap:butt;stroke-linejoin:miter;stroke-opacity:1"
       d="M 443.69251,438.58949 C 360.59,459.07372 341.65918,564.93952 373.76723,630.14477 c 32.1081,65.20522 86.92588,82.52457 140.95126,29.35646 54.02537,-53.16808 18.75422,-215.1637 -71.02598,-220.91174 z"
       id="path5482"
       inkscape:connector-curvature="0"
       sodipodi:nodetypes="czzc" />
    <path
       sodipodi:nodetypes="czzc"
       inkscape:connector-curvature="0"
       id="path5169"
       d="m 442.02358,477.59922 c -73.54529,16.38915 -90.29896,101.09089 -61.88349,153.2607 28.41548,52.16978 76.92893,66.02674 124.74109,23.48769 47.81216,-42.53904 16.59739,-172.14946 -62.8576,-176.74839 z"
       style="display:inline;opacity:0.353;fill:#6c535d;stroke:url(#radialGradient5715);stroke-width:0.264583px;stroke-linecap:butt;stroke-linejoin:miter;stroke-opacity:1" />
    <path
       style="display:inline;fill:#ac939d;stroke:#000000;stroke-width:0.264583px;stroke-linecap:butt;stroke-linejoin:miter;stroke-opacity:1"
       d="m 439.39741,503.15603 c -49.18984,11.1474 -60.39533,68.75888 -41.38999,104.24316 19.00533,35.48427 51.45295,44.90933 83.43151,15.9756 31.97856,-28.93373 11.10096,-117.09071 -42.04152,-120.21876 z"
       id="path827"
       inkscape:connector-curvature="0"
       sodipodi:nodetypes="czzc" />
    <path
       style="display:inline;opacity:1;fill:#241c1f;fill-opacity:0.988235;fill-rule:evenodd;stroke:#df7369;stroke-width:0.264998;stroke-linejoin:round;stroke-miterlimit:4;stroke-dasharray:none;stroke-dashoffset:500;stroke-opacity:0.698039"
       d="m 353.03491,631.61855 h 186.29884 v 73.98394 H 353.03491 Z"
       id="rect5175" />
    <path
       style="display:inline;fill:#48373e;stroke:#000000;stroke-width:0.264583px;stroke-linecap:butt;stroke-linejoin:miter;stroke-opacity:1"
       d="m 400.42075,644.28199 c -16.71198,3.92804 -36.06408,19.99045 -27.26149,35.27958 8.80259,15.28912 51.36142,-25.97123 62.54106,-9.62171 11.17964,16.34953 -36.1963,31.4289 -27.79602,48.10855 8.40028,16.67962 42.56027,-2.7976 62.00652,-1.60364 19.44625,1.19396 40.44605,20.72515 54.52298,8.55263 14.07693,-12.17256 13.17182,-40.27473 6.94901,-50.78122 -9.87441,-16.67177 -43.51018,16.86073 -50.24667,5.34539 -6.73649,-11.51534 45.39776,-7.9e-4 29.93419,-19.77794 -15.46358,-19.7771 -52.91937,13.36348 -59.86838,1.60361 -6.949,-11.75987 38.17963,-17.51608 27.26149,-18.70887 -10.91814,-1.19278 -61.33071,-2.32441 -78.04269,1.60362 z"
       id="path5623"
       inkscape:connector-curvature="0"
       sodipodi:nodetypes="zzzzzzszzzzz" />
    <path
       style="display:inline;fill:#bdbdbd;fill-opacity:0.337349;stroke:#000000;stroke-width:0.264583px;stroke-linecap:butt;stroke-linejoin:miter;stroke-opacity:0"
       d="m 440.49727,502.32231 c -47.95659,12.51243 -58.88114,77.17863 -40.3523,117.00809 18.52886,39.82946 50.16298,50.40866 81.33983,17.93188 31.17682,-32.47678 10.82264,-131.42889 -40.98753,-134.93997 z"
       id="path922"
       inkscape:connector-curvature="0"
       sodipodi:nodetypes="czzc" />
    <rect
       style="display:inline;opacity:1;fill:#1f1c24;fill-opacity:0.988235;fill-rule:evenodd;stroke:url(#radialGradient5783);stroke-width:0.264998;stroke-linejoin:round;stroke-miterlimit:4;stroke-dasharray:none;stroke-dashoffset:500;stroke-opacity:0.698039"
       id="rect5479"
       width="186.29884"
       height="24.885509"
       x="353.70746"
       y="437.91513" />
    <g
       id="g5507"
       transform="matrix(0.4383107,0,0,0.33380491,337.27526,483.66724)"
       style="display:inline;stroke-width:2.61434">
      <path
         style="fill:#241c1f;stroke:#000000;stroke-width:0.691711px;stroke-linecap:butt;stroke-linejoin:miter;stroke-opacity:1"
         d="m 438.45238,476.1607 c -13.2398,-1.311 -42.20379,6.44989 -49.89285,-6.04762 -7.68906,-12.49751 9.7537,-26.43874 12.85118,-35.52976 3.09748,-9.09102 6.49952,-14.59957 6.04764,-18.89881 -2.8557,-5.65396 -2.77025,-25.92897 1.5119,-34.01785 2.26787,-3.77976 -0.15424,-36.74185 15.87499,-36.28572 16.02924,0.45613 6.04761,37.04166 9.07143,45.35714 3.02382,8.31548 14.36308,15.875 15.11904,24.94643 0.75596,9.07143 13.60715,25.70238 3.02382,34.01786 -10.58333,8.31548 23.43452,27.97024 15.875,28.72619 -7.55952,0.75595 -16.24235,-0.95686 -29.48215,-2.26786 z"
         id="path5496"
         inkscape:connector-curvature="0"
         sodipodi:nodetypes="zzzcczzzzzz" />
      <path
         sodipodi:nodetypes="zzzcczzzzzz"
         inkscape:connector-curvature="0"
         id="path5498"
         d="m 445.25595,478.42856 c -13.2398,-1.311 -42.20379,6.44989 -49.89285,-6.04762 -7.68906,-12.49751 9.7537,-26.43874 12.85118,-35.52976 3.09748,-9.09102 6.49952,-14.59957 6.04764,-18.89881 -2.8557,-5.65396 -2.77025,-25.92897 1.5119,-34.01785 2.26787,-3.77976 -0.15424,-36.74185 15.87499,-36.28572 16.02924,0.45613 6.04761,37.04166 9.07143,45.35714 3.02382,8.31548 14.36308,15.875 15.11904,24.94643 0.75596,9.07143 13.60715,25.70238 3.02382,34.01786 -10.58333,8.31548 23.43452,27.97024 15.875,28.72619 -7.55952,0.75595 -16.24235,-0.95686 -29.48215,-2.26786 z"
         style="fill:#6c535d;stroke:#000000;stroke-width:0.691711px;stroke-linecap:butt;stroke-linejoin:miter;stroke-opacity:1" />
      <path
         style="fill:#48373e;stroke:#000000;stroke-width:0.691711px;stroke-linecap:butt;stroke-linejoin:miter;stroke-opacity:1"
         d="m 445.25595,478.42856 c -13.2398,-1.311 -42.20379,6.44989 -49.89285,-6.04762 -7.68906,-12.49751 9.7537,-26.43874 12.85118,-35.52976 3.09748,-9.09102 6.49952,-14.59957 6.04764,-18.89881 -2.8557,-5.65396 -2.77025,-25.92897 1.5119,-34.01785 2.26787,-3.77976 0.60171,62.28791 16.63094,62.74404 1.82792,5.18661 4.02804,-14.71445 10.20569,-12.308 6.61512,2.57686 3.98724,19.91676 8.80114,23.09441 23.01816,15.19427 34.37576,20.61765 23.32651,23.23145 -7.55952,0.75595 -16.24235,-0.95686 -29.48215,-2.26786 z"
         id="path5500"
         inkscape:connector-curvature="0"
         sodipodi:nodetypes="zzzcccsscz" />
    </g>
    <g
       style="display:inline;stroke-width:3.3483"
       transform="matrix(0.22948668,0,0,0.38868108,259.52864,470.04986)"
       id="g5579">
      <path
         sodipodi:nodetypes="zzzccczzzzz"
         inkscape:connector-curvature="0"
         id="path5573"
         d="m 438.45238,476.1607 c -13.2398,-1.311 -42.20379,6.44989 -49.89285,-6.04762 -7.68906,-12.49751 9.7537,-26.43874 12.85118,-35.52976 3.09748,-9.09102 6.49952,-14.59957 6.04764,-18.89881 -2.8557,-5.65396 -2.77025,-25.92897 1.5119,-34.01785 2.26787,-3.77976 -0.15424,-37.4978 21.92261,-86.17858 11.49352,32.20613 -10e-6,86.93452 3.02381,95.25 3.02382,8.31548 13.60713,24.94643 14.36309,34.01786 0.75596,9.07143 14.3631,16.63095 3.77977,24.94643 -10.58333,8.31548 23.43452,27.97024 15.875,28.72619 -7.55952,0.75595 -16.24235,-0.95686 -29.48215,-2.26786 z"
         style="fill:#241c1f;stroke:#000000;stroke-width:0.885905px;stroke-linecap:butt;stroke-linejoin:miter;stroke-opacity:1" />
      <path
         style="fill:#6c535d;stroke:#000000;stroke-width:0.885905px;stroke-linecap:butt;stroke-linejoin:miter;stroke-opacity:1"
         d="m 445.25595,478.42856 c -13.2398,-1.311 -42.20379,6.44989 -49.89285,-6.04762 -7.68906,-12.49751 9.7537,-26.43874 12.85118,-35.52976 3.09748,-9.09102 6.49952,-14.59957 6.04764,-18.89881 -2.8557,-5.65396 1.00951,-36.5123 5.29166,-44.60118 2.26787,-3.77976 -5.44591,-16.33114 12.09523,-80.13096 10.73757,44.30137 6.04761,91.47023 9.07143,99.78571 3.02382,8.31548 16.63094,-30.2381 17.3869,-21.16667 -2.35508,18.54115 -0.57301,51.83479 5.95035,70.60019 8.9496,25.74487 22.82184,34.81513 10.68061,38.25696 -7.55952,0.75595 -16.24235,-0.95686 -29.48215,-2.26786 z"
         id="path5575"
         inkscape:connector-curvature="0"
         sodipodi:nodetypes="zzzccczcscz" />
      <path
         sodipodi:nodetypes="zzzcccsscz"
         inkscape:connector-curvature="0"
         id="path5577"
         d="m 445.25595,478.42856 c -13.2398,-1.311 -42.20379,6.44989 -49.89285,-6.04762 -7.68906,-12.49751 9.7537,-26.43874 12.85118,-35.52976 3.09748,-9.09102 6.49952,-14.59957 6.04764,-18.89881 -2.8557,-5.65396 5.54523,-70.53016 9.82738,-78.61904 2.26787,-3.77976 -7.71377,106.8891 8.31546,107.34523 1.82792,5.18661 4.02804,-40.41683 10.20569,-38.01038 6.61512,2.57686 3.98724,45.61914 8.80114,48.79679 23.01816,15.19427 34.37576,20.61765 23.32651,23.23145 -7.55952,0.75595 -16.24235,-0.95686 -29.48215,-2.26786 z"
         style="fill:#48373e;stroke:#000000;stroke-width:0.885905px;stroke-linecap:butt;stroke-linejoin:miter;stroke-opacity:1" />
    </g>
    <g
       style="display:inline;stroke-width:1.53964"
       transform="matrix(0.67835584,0,0,0.621876,89.052705,404.71377)"
       id="g5531">
      <path
         sodipodi:nodetypes="zzzcczzzzzz"
         inkscape:connector-curvature="0"
         id="path5525"
         d="m 438.45238,476.1607 c -13.2398,-1.311 -42.20379,6.44989 -49.89285,-6.04762 -7.68906,-12.49751 9.7537,-26.43874 12.85118,-35.52976 3.09748,-9.09102 6.49952,-14.59957 6.04764,-18.89881 -2.8557,-5.65396 -2.77025,-25.92897 1.5119,-34.01785 2.26787,-3.77976 -0.15424,-36.74185 15.87499,-36.28572 16.02924,0.45613 6.04761,37.04166 9.07143,45.35714 3.02382,8.31548 14.36308,15.875 15.11904,24.94643 0.75596,9.07143 13.60715,25.70238 3.02382,34.01786 -10.58333,8.31548 23.43452,27.97024 15.875,28.72619 -7.55952,0.75595 -16.24235,-0.95686 -29.48215,-2.26786 z"
         style="fill:#241c1f;stroke:#000000;stroke-width:0.407364px;stroke-linecap:butt;stroke-linejoin:miter;stroke-opacity:1" />
      <path
         style="fill:#6c535d;stroke:#000000;stroke-width:0.407364px;stroke-linecap:butt;stroke-linejoin:miter;stroke-opacity:1"
         d="m 445.25595,478.42856 c -13.2398,-1.311 -42.20379,6.44989 -49.89285,-6.04762 -7.68906,-12.49751 9.7537,-26.43874 12.85118,-35.52976 3.09748,-9.09102 6.49952,-14.59957 6.04764,-18.89881 -2.8557,-5.65396 -2.77025,-25.92897 1.5119,-34.01785 2.26787,-3.77976 -0.15424,-36.74185 15.87499,-36.28572 16.02924,0.45613 6.04761,37.04166 9.07143,45.35714 3.02382,8.31548 14.36308,15.875 15.11904,24.94643 0.75596,9.07143 13.60715,25.70238 3.02382,34.01786 -10.58333,8.31548 23.43452,27.97024 15.875,28.72619 -7.55952,0.75595 -16.24235,-0.95686 -29.48215,-2.26786 z"
         id="path5527"
         inkscape:connector-curvature="0"
         sodipodi:nodetypes="zzzcczzzzzz" />
      <path
         sodipodi:nodetypes="zzzcccsscz"
         inkscape:connector-curvature="0"
         id="path5529"
         d="m 445.25595,478.42856 c -13.2398,-1.311 -42.20379,6.44989 -49.89285,-6.04762 -7.68906,-12.49751 9.7537,-26.43874 12.85118,-35.52976 3.09748,-9.09102 6.49952,-14.59957 6.04764,-18.89881 -2.8557,-5.65396 -2.77025,-25.92897 1.5119,-34.01785 2.26787,-3.77976 0.60171,62.28791 16.63094,62.74404 1.82792,5.18661 4.02804,-14.71445 10.20569,-12.308 6.61512,2.57686 3.98724,19.91676 8.80114,23.09441 23.01816,15.19427 34.37576,20.61765 23.32651,23.23145 -7.55952,0.75595 -16.24235,-0.95686 -29.48215,-2.26786 z"
         style="fill:#48373e;stroke:#000000;stroke-width:0.407364px;stroke-linecap:butt;stroke-linejoin:miter;stroke-opacity:1" />
    </g>
    <g
       id="g5605"
       transform="matrix(0.29478548,0,0,-0.28490581,234.87429,574.65232)"
       style="display:inline;stroke-width:3.45062">
      <path
         style="fill:#241c1f;stroke:#000000;stroke-width:0.912975px;stroke-linecap:butt;stroke-linejoin:miter;stroke-opacity:1"
         d="m 438.45238,476.1607 c -13.2398,-1.311 -42.20379,6.44989 -49.89285,-6.04762 -7.68906,-12.49751 9.7537,-26.43874 12.85118,-35.52976 3.09748,-9.09102 6.49952,-14.59957 6.04764,-18.89881 -2.8557,-5.65396 -2.77025,-25.92897 1.5119,-34.01785 2.26787,-3.77976 -0.15424,-37.4978 21.92261,-86.17858 11.49352,32.20613 -10e-6,86.93452 3.02381,95.25 3.02382,8.31548 13.60713,24.94643 14.36309,34.01786 0.75596,9.07143 14.3631,16.63095 3.77977,24.94643 -10.58333,8.31548 23.43452,27.97024 15.875,28.72619 -7.55952,0.75595 -16.24235,-0.95686 -29.48215,-2.26786 z"
         id="path5599"
         inkscape:connector-curvature="0"
         sodipodi:nodetypes="zzzccczzzzz" />
      <path
         sodipodi:nodetypes="zzzccczcscz"
         inkscape:connector-curvature="0"
         id="path5601"
         d="m 445.25595,478.42856 c -13.2398,-1.311 -42.20379,6.44989 -49.89285,-6.04762 -7.68906,-12.49751 9.7537,-26.43874 12.85118,-35.52976 3.09748,-9.09102 6.49952,-14.59957 6.04764,-18.89881 -2.8557,-5.65396 1.00951,-36.5123 5.29166,-44.60118 2.26787,-3.77976 -5.44591,-16.33114 12.09523,-80.13096 10.73757,44.30137 6.04761,91.47023 9.07143,99.78571 3.02382,8.31548 16.63094,-30.2381 17.3869,-21.16667 -2.35508,18.54115 -0.57301,51.83479 5.95035,70.60019 8.9496,25.74487 22.82184,34.81513 10.68061,38.25696 -7.55952,0.75595 -16.24235,-0.95686 -29.48215,-2.26786 z"
         style="fill:#6c535d;stroke:#000000;stroke-width:0.912975px;stroke-linecap:butt;stroke-linejoin:miter;stroke-opacity:1" />
      <path
         style="fill:#48373e;stroke:#000000;stroke-width:0.912975px;stroke-linecap:butt;stroke-linejoin:miter;stroke-opacity:1"
         d="m 445.25595,478.42856 c -13.2398,-1.311 -42.20379,6.44989 -49.89285,-6.04762 -7.68906,-12.49751 9.7537,-26.43874 12.85118,-35.52976 3.09748,-9.09102 6.49952,-14.59957 6.04764,-18.89881 -2.8557,-5.65396 5.54523,-70.53016 9.82738,-78.61904 2.26787,-3.77976 -7.71377,106.8891 8.31546,107.34523 1.82792,5.18661 4.02804,-40.41683 10.20569,-38.01038 6.61512,2.57686 3.98724,45.61914 8.80114,48.79679 23.01816,15.19427 34.37576,20.61765 23.32651,23.23145 -7.55952,0.75595 -16.24235,-0.95686 -29.48215,-2.26786 z"
         id="path5603"
         inkscape:connector-curvature="0"
         sodipodi:nodetypes="zzzcccsscz" />
    </g>
    <g
       id="g5539"
       transform="matrix(0.67835584,0,0,-0.621876,102.33644,730.22119)"
       style="display:inline;stroke-width:1.53964">
      <path
         style="fill:#241c1f;stroke:#000000;stroke-width:0.407364px;stroke-linecap:butt;stroke-linejoin:miter;stroke-opacity:1"
         d="m 438.45238,476.1607 c -13.2398,-1.311 -42.20379,6.44989 -49.89285,-6.04762 -7.68906,-12.49751 9.7537,-26.43874 12.85118,-35.52976 3.09748,-9.09102 6.49952,-14.59957 6.04764,-18.89881 -2.8557,-5.65396 -2.77025,-25.92897 1.5119,-34.01785 2.26787,-3.77976 -0.15424,-36.74185 15.87499,-36.28572 16.02924,0.45613 6.04761,37.04166 9.07143,45.35714 3.02382,8.31548 14.36308,15.875 15.11904,24.94643 0.75596,9.07143 13.60715,25.70238 3.02382,34.01786 -10.58333,8.31548 23.43452,27.97024 15.875,28.72619 -7.55952,0.75595 -16.24235,-0.95686 -29.48215,-2.26786 z"
         id="path5533"
         inkscape:connector-curvature="0"
         sodipodi:nodetypes="zzzcczzzzzz" />
      <path
         sodipodi:nodetypes="zzzcczzzzzz"
         inkscape:connector-curvature="0"
         id="path5535"
         d="m 445.25595,478.42856 c -13.2398,-1.311 -42.20379,6.44989 -49.89285,-6.04762 -7.68906,-12.49751 9.7537,-26.43874 12.85118,-35.52976 3.09748,-9.09102 6.49952,-14.59957 6.04764,-18.89881 -2.8557,-5.65396 -2.77025,-25.92897 1.5119,-34.01785 2.26787,-3.77976 -0.15424,-36.74185 15.87499,-36.28572 16.02924,0.45613 6.04761,37.04166 9.07143,45.35714 3.02382,8.31548 14.36308,15.875 15.11904,24.94643 0.75596,9.07143 13.60715,25.70238 3.02382,34.01786 -10.58333,8.31548 23.43452,27.97024 15.875,28.72619 -7.55952,0.75595 -16.24235,-0.95686 -29.48215,-2.26786 z"
         style="fill:#6c535d;stroke:#000000;stroke-width:0.407364px;stroke-linecap:butt;stroke-linejoin:miter;stroke-opacity:1" />
      <path
         style="fill:#48373e;stroke:#000000;stroke-width:0.407364px;stroke-linecap:butt;stroke-linejoin:miter;stroke-opacity:1"
         d="m 445.25595,478.42856 c -13.2398,-1.311 -42.20379,6.44989 -49.89285,-6.04762 -7.68906,-12.49751 9.7537,-26.43874 12.85118,-35.52976 3.09748,-9.09102 6.49952,-14.59957 6.04764,-18.89881 -2.8557,-5.65396 -2.77025,-25.92897 1.5119,-34.01785 2.26787,-3.77976 0.60171,62.28791 16.63094,62.74404 1.82792,5.18661 4.02804,-14.71445 10.20569,-12.308 6.61512,2.57686 3.98724,19.91676 8.80114,23.09441 23.01816,15.19427 34.37576,20.61765 23.32651,23.23145 -7.55952,0.75595 -16.24235,-0.95686 -29.48215,-2.26786 z"
         id="path5537"
         inkscape:connector-curvature="0"
         sodipodi:nodetypes="zzzcccsscz" />
    </g>
    <g
       style="display:inline;stroke-width:3.38405"
       transform="matrix(0.30712598,0,0,-0.28432009,278.98084,582.69594)"
       id="g5547">
      <path
         sodipodi:nodetypes="zzzcczzzzzz"
         inkscape:connector-curvature="0"
         id="path5541"
         d="m 438.45238,476.1607 c -13.2398,-1.311 -42.20379,6.44989 -49.89285,-6.04762 -7.68906,-12.49751 9.7537,-26.43874 12.85118,-35.52976 3.09748,-9.09102 6.49952,-14.59957 6.04764,-18.89881 -2.8557,-5.65396 -2.77025,-25.92897 1.5119,-34.01785 2.26787,-3.77976 -0.15424,-36.74185 15.87499,-36.28572 16.02924,0.45613 6.04761,37.04166 9.07143,45.35714 3.02382,8.31548 14.36308,15.875 15.11904,24.94643 0.75596,9.07143 13.60715,25.70238 3.02382,34.01786 -10.58333,8.31548 23.43452,27.97024 15.875,28.72619 -7.55952,0.75595 -16.24235,-0.95686 -29.48215,-2.26786 z"
         style="fill:#241c1f;stroke:#000000;stroke-width:0.895365px;stroke-linecap:butt;stroke-linejoin:miter;stroke-opacity:1" />
      <path
         style="fill:#6c535d;stroke:#000000;stroke-width:0.895365px;stroke-linecap:butt;stroke-linejoin:miter;stroke-opacity:1"
         d="m 445.25595,478.42856 c -13.2398,-1.311 -42.20379,6.44989 -49.89285,-6.04762 -7.68906,-12.49751 9.7537,-26.43874 12.85118,-35.52976 3.09748,-9.09102 6.49952,-14.59957 6.04764,-18.89881 -2.8557,-5.65396 -2.77025,-25.92897 1.5119,-34.01785 2.26787,-3.77976 -0.15424,-36.74185 15.87499,-36.28572 16.02924,0.45613 6.04761,37.04166 9.07143,45.35714 3.02382,8.31548 14.36308,15.875 15.11904,24.94643 0.75596,9.07143 13.60715,25.70238 3.02382,34.01786 -10.58333,8.31548 23.43452,27.97024 15.875,28.72619 -7.55952,0.75595 -16.24235,-0.95686 -29.48215,-2.26786 z"
         id="path5543"
         inkscape:connector-curvature="0"
         sodipodi:nodetypes="zzzcczzzzzz" />
      <path
         sodipodi:nodetypes="zzzcccsscz"
         inkscape:connector-curvature="0"
         id="path5545"
         d="m 445.25595,478.42856 c -13.2398,-1.311 -42.20379,6.44989 -49.89285,-6.04762 -7.68906,-12.49751 9.7537,-26.43874 12.85118,-35.52976 3.09748,-9.09102 6.49952,-14.59957 6.04764,-18.89881 -2.8557,-5.65396 -2.77025,-25.92897 1.5119,-34.01785 2.26787,-3.77976 0.60171,62.28791 16.63094,62.74404 1.82792,5.18661 4.02804,-14.71445 10.20569,-12.308 6.61512,2.57686 3.98724,19.91676 8.80114,23.09441 23.01816,15.19427 34.37576,20.61765 23.32651,23.23145 -7.55952,0.75595 -16.24235,-0.95686 -29.48215,-2.26786 z"
         style="fill:#48373e;stroke:#000000;stroke-width:0.895365px;stroke-linecap:butt;stroke-linejoin:miter;stroke-opacity:1" />
    </g>
    <g
       style="display:inline;stroke-width:2.16611"
       transform="matrix(0.4516049,0,0,-0.4719311,285.49566,666.12651)"
       id="g5621">
      <path
         sodipodi:nodetypes="zzzccczzzzz"
         inkscape:connector-curvature="0"
         id="path5615"
         d="m 438.45238,476.1607 c -13.2398,-1.311 -42.20379,6.44989 -49.89285,-6.04762 -7.68906,-12.49751 9.7537,-26.43874 12.85118,-35.52976 3.09748,-9.09102 6.49952,-14.59957 6.04764,-18.89881 -2.8557,-5.65396 -2.77025,-25.92897 1.5119,-34.01785 2.26787,-3.77976 -0.15424,-37.4978 21.92261,-86.17858 11.49352,32.20613 -10e-6,86.93452 3.02381,95.25 3.02382,8.31548 13.60713,24.94643 14.36309,34.01786 0.75596,9.07143 14.3631,16.63095 3.77977,24.94643 -10.58333,8.31548 23.43452,27.97024 15.875,28.72619 -7.55952,0.75595 -16.24235,-0.95686 -29.48215,-2.26786 z"
         style="fill:#241c1f;stroke:#000000;stroke-width:0.573117px;stroke-linecap:butt;stroke-linejoin:miter;stroke-opacity:1" />
      <path
         style="fill:#6c535d;stroke:#000000;stroke-width:0.573117px;stroke-linecap:butt;stroke-linejoin:miter;stroke-opacity:1"
         d="m 445.25595,478.42856 c -13.2398,-1.311 -42.20379,6.44989 -49.89285,-6.04762 -7.68906,-12.49751 9.7537,-26.43874 12.85118,-35.52976 3.09748,-9.09102 6.49952,-14.59957 6.04764,-18.89881 -2.8557,-5.65396 1.00951,-36.5123 5.29166,-44.60118 2.26787,-3.77976 -5.44591,-16.33114 12.09523,-80.13096 10.73757,44.30137 6.04761,91.47023 9.07143,99.78571 3.02382,8.31548 16.63094,-30.2381 17.3869,-21.16667 -2.35508,18.54115 -0.57301,51.83479 5.95035,70.60019 8.9496,25.74487 22.82184,34.81513 10.68061,38.25696 -7.55952,0.75595 -16.24235,-0.95686 -29.48215,-2.26786 z"
         id="path5617"
         inkscape:connector-curvature="0"
         sodipodi:nodetypes="zzzccczcscz" />
      <path
         sodipodi:nodetypes="zzzcccsscz"
         inkscape:connector-curvature="0"
         id="path5619"
         d="m 445.25595,478.42856 c -13.2398,-1.311 -42.20379,6.44989 -49.89285,-6.04762 -7.68906,-12.49751 9.7537,-26.43874 12.85118,-35.52976 3.09748,-9.09102 6.49952,-14.59957 6.04764,-18.89881 -2.8557,-5.65396 5.54523,-70.53016 9.82738,-78.61904 2.26787,-3.77976 -7.71377,106.8891 8.31546,107.34523 1.82792,5.18661 4.02804,-40.41683 10.20569,-38.01038 6.61512,2.57686 3.98724,45.61914 8.80114,48.79679 23.01816,15.19427 34.37576,20.61765 23.32651,23.23145 -7.55952,0.75595 -16.24235,-0.95686 -29.48215,-2.26786 z"
         style="fill:#48373e;stroke:#000000;stroke-width:0.573117px;stroke-linecap:butt;stroke-linejoin:miter;stroke-opacity:1" />
    </g>
    <g
       id="g5555"
       transform="matrix(0.51818538,0,0,-0.43822238,281.43336,647.93519)"
       style="display:inline;stroke-width:2.0985">
      <path
         style="fill:#241c1f;stroke:#000000;stroke-width:0.555229px;stroke-linecap:butt;stroke-linejoin:miter;stroke-opacity:1"
         d="m 438.45238,476.1607 c -13.2398,-1.311 -42.20379,6.44989 -49.89285,-6.04762 -7.68906,-12.49751 9.7537,-26.43874 12.85118,-35.52976 3.09748,-9.09102 6.49952,-14.59957 6.04764,-18.89881 -2.8557,-5.65396 -2.77025,-25.92897 1.5119,-34.01785 2.26787,-3.77976 -0.15424,-36.74185 15.87499,-36.28572 16.02924,0.45613 6.04761,37.04166 9.07143,45.35714 3.02382,8.31548 14.36308,15.875 15.11904,24.94643 0.75596,9.07143 13.60715,25.70238 3.02382,34.01786 -10.58333,8.31548 23.43452,27.97024 15.875,28.72619 -7.55952,0.75595 -16.24235,-0.95686 -29.48215,-2.26786 z"
         id="path5549"
         inkscape:connector-curvature="0"
         sodipodi:nodetypes="zzzcczzzzzz" />
      <path
         sodipodi:nodetypes="zzzcczzzzzz"
         inkscape:connector-curvature="0"
         id="path5551"
         d="m 445.25595,478.42856 c -13.2398,-1.311 -42.20379,6.44989 -49.89285,-6.04762 -7.68906,-12.49751 9.7537,-26.43874 12.85118,-35.52976 3.09748,-9.09102 6.49952,-14.59957 6.04764,-18.89881 -2.8557,-5.65396 -2.77025,-25.92897 1.5119,-34.01785 2.26787,-3.77976 -0.15424,-36.74185 15.87499,-36.28572 16.02924,0.45613 6.04761,37.04166 9.07143,45.35714 3.02382,8.31548 14.36308,15.875 15.11904,24.94643 0.75596,9.07143 13.60715,25.70238 3.02382,34.01786 -10.58333,8.31548 23.43452,27.97024 15.875,28.72619 -7.55952,0.75595 -16.24235,-0.95686 -29.48215,-2.26786 z"
         style="fill:#6c535d;stroke:#000000;stroke-width:0.555229px;stroke-linecap:butt;stroke-linejoin:miter;stroke-opacity:1" />
      <path
         style="fill:#48373e;stroke:#000000;stroke-width:0.555229px;stroke-linecap:butt;stroke-linejoin:miter;stroke-opacity:1"
         d="m 445.25595,478.42856 c -13.2398,-1.311 -42.20379,6.44989 -49.89285,-6.04762 -7.68906,-12.49751 9.7537,-26.43874 12.85118,-35.52976 3.09748,-9.09102 6.49952,-14.59957 6.04764,-18.89881 -2.8557,-5.65396 -2.77025,-25.92897 1.5119,-34.01785 2.26787,-3.77976 0.60171,62.28791 16.63094,62.74404 1.82792,5.18661 4.02804,-14.71445 10.20569,-12.308 6.61512,2.57686 3.98724,19.91676 8.80114,23.09441 23.01816,15.19427 34.37576,20.61765 23.32651,23.23145 -7.55952,0.75595 -16.24235,-0.95686 -29.48215,-2.26786 z"
         id="path5553"
         inkscape:connector-curvature="0"
         sodipodi:nodetypes="zzzcccsscz" />
    </g>
    <g
       style="display:inline;stroke-width:4.50836"
       transform="matrix(0.20544464,0,0,-0.23948035,441.35981,553.07388)"
       id="g5563">
      <path
         sodipodi:nodetypes="zzzcczzzzzz"
         inkscape:connector-curvature="0"
         id="path5557"
         d="m 438.45238,476.1607 c -13.2398,-1.311 -42.20379,6.44989 -49.89285,-6.04762 -7.68906,-12.49751 9.7537,-26.43874 12.85118,-35.52976 3.09748,-9.09102 6.49952,-14.59957 6.04764,-18.89881 -2.8557,-5.65396 -2.77025,-25.92897 1.5119,-34.01785 2.26787,-3.77976 -0.15424,-36.74185 15.87499,-36.28572 16.02924,0.45613 6.04761,37.04166 9.07143,45.35714 3.02382,8.31548 14.36308,15.875 15.11904,24.94643 0.75596,9.07143 13.60715,25.70238 3.02382,34.01786 -10.58333,8.31548 23.43452,27.97024 15.875,28.72619 -7.55952,0.75595 -16.24235,-0.95686 -29.48215,-2.26786 z"
         style="fill:#241c1f;stroke:#000000;stroke-width:1.19283px;stroke-linecap:butt;stroke-linejoin:miter;stroke-opacity:1" />
      <path
         style="fill:#6c535d;stroke:#000000;stroke-width:1.19283px;stroke-linecap:butt;stroke-linejoin:miter;stroke-opacity:1"
         d="m 445.25595,478.42856 c -13.2398,-1.311 -42.20379,6.44989 -49.89285,-6.04762 -7.68906,-12.49751 9.7537,-26.43874 12.85118,-35.52976 3.09748,-9.09102 6.49952,-14.59957 6.04764,-18.89881 -2.8557,-5.65396 -2.77025,-25.92897 1.5119,-34.01785 2.26787,-3.77976 -0.15424,-36.74185 15.87499,-36.28572 16.02924,0.45613 6.04761,37.04166 9.07143,45.35714 3.02382,8.31548 14.36308,15.875 15.11904,24.94643 0.75596,9.07143 13.60715,25.70238 3.02382,34.01786 -10.58333,8.31548 23.43452,27.97024 15.875,28.72619 -7.55952,0.75595 -16.24235,-0.95686 -29.48215,-2.26786 z"
         id="path5559"
         inkscape:connector-curvature="0"
         sodipodi:nodetypes="zzzcczzzzzz" />
      <path
         sodipodi:nodetypes="zzzcccsscz"
         inkscape:connector-curvature="0"
         id="path5561"
         d="m 445.25595,478.42856 c -13.2398,-1.311 -42.20379,6.44989 -49.89285,-6.04762 -7.68906,-12.49751 9.7537,-26.43874 12.85118,-35.52976 3.09748,-9.09102 6.49952,-14.59957 6.04764,-18.89881 -2.8557,-5.65396 -2.77025,-25.92897 1.5119,-34.01785 2.26787,-3.77976 0.60171,62.28791 16.63094,62.74404 1.82792,5.18661 4.02804,-14.71445 10.20569,-12.308 6.61512,2.57686 3.98724,19.91676 8.80114,23.09441 23.01816,15.19427 34.37576,20.61765 23.32651,23.23145 -7.55952,0.75595 -16.24235,-0.95686 -29.48215,-2.26786 z"
         style="fill:#48373e;stroke:#000000;stroke-width:1.19283px;stroke-linecap:butt;stroke-linejoin:miter;stroke-opacity:1" />
    </g>
    <g
       id="g5571"
       transform="matrix(0.73011094,0,0,0.70000694,196.47689,381.03458)"
       style="display:inline;stroke-width:1.3988">
      <path
         style="fill:#241c1f;stroke:#000000;stroke-width:0.370098px;stroke-linecap:butt;stroke-linejoin:miter;stroke-opacity:1"
         d="m 438.45238,476.1607 c -13.2398,-1.311 -42.20379,6.44989 -49.89285,-6.04762 -7.68906,-12.49751 9.7537,-26.43874 12.85118,-35.52976 3.09748,-9.09102 6.49952,-14.59957 6.04764,-18.89881 -2.8557,-5.65396 -2.77025,-25.92897 1.5119,-34.01785 2.26787,-3.77976 -0.15424,-37.4978 21.92261,-86.17858 11.49352,32.20613 -10e-6,86.93452 3.02381,95.25 3.02382,8.31548 13.60713,24.94643 14.36309,34.01786 0.75596,9.07143 14.3631,16.63095 3.77977,24.94643 -10.58333,8.31548 23.43452,27.97024 15.875,28.72619 -7.55952,0.75595 -16.24235,-0.95686 -29.48215,-2.26786 z"
         id="path5565"
         inkscape:connector-curvature="0"
         sodipodi:nodetypes="zzzccczzzzz" />
      <path
         sodipodi:nodetypes="zzzccczcscz"
         inkscape:connector-curvature="0"
         id="path5567"
         d="m 445.25595,478.42856 c -13.2398,-1.311 -42.20379,6.44989 -49.89285,-6.04762 -7.68906,-12.49751 9.7537,-26.43874 12.85118,-35.52976 3.09748,-9.09102 6.49952,-14.59957 6.04764,-18.89881 -2.8557,-5.65396 1.00951,-36.5123 5.29166,-44.60118 2.26787,-3.77976 -5.44591,-16.33114 12.09523,-80.13096 10.73757,44.30137 6.04761,91.47023 9.07143,99.78571 3.02382,8.31548 16.63094,-30.2381 17.3869,-21.16667 -2.35508,18.54115 -0.57301,51.83479 5.95035,70.60019 8.9496,25.74487 22.82184,34.81513 10.68061,38.25696 -7.55952,0.75595 -16.24235,-0.95686 -29.48215,-2.26786 z"
         style="fill:#6c535d;stroke:#000000;stroke-width:0.370098px;stroke-linecap:butt;stroke-linejoin:miter;stroke-opacity:1" />
      <path
         style="fill:#48373e;stroke:#000000;stroke-width:0.370098px;stroke-linecap:butt;stroke-linejoin:miter;stroke-opacity:1"
         d="m 445.25595,478.42856 c -13.2398,-1.311 -42.20379,6.44989 -49.89285,-6.04762 -7.68906,-12.49751 9.7537,-26.43874 12.85118,-35.52976 3.09748,-9.09102 6.49952,-14.59957 6.04764,-18.89881 -2.8557,-5.65396 5.54523,-70.53016 9.82738,-78.61904 2.26787,-3.77976 -7.71377,106.8891 8.31546,107.34523 1.82792,5.18661 4.02804,-40.41683 10.20569,-38.01038 6.61512,2.57686 3.98724,45.61914 8.80114,48.79679 23.01816,15.19427 34.37576,20.61765 23.32651,23.23145 -7.55952,0.75595 -16.24235,-0.95686 -29.48215,-2.26786 z"
         id="path5569"
         inkscape:connector-curvature="0"
         sodipodi:nodetypes="zzzcccsscz" />
    </g>
    <g
       style="display:inline;stroke-width:3.93929"
       transform="matrix(0.40361684,0,0,0.15965977,245.74685,599.32761)"
       id="g5587">
      <path
         sodipodi:nodetypes="zzzccczzzzz"
         inkscape:connector-curvature="0"
         id="path5581"
         d="m 438.45238,476.1607 c -13.2398,-1.311 -42.20379,6.44989 -49.89285,-6.04762 -7.68906,-12.49751 9.7537,-26.43874 12.85118,-35.52976 3.09748,-9.09102 6.49952,-14.59957 6.04764,-18.89881 -2.8557,-5.65396 -2.77025,-25.92897 1.5119,-34.01785 2.26787,-3.77976 -0.15424,-37.4978 21.92261,-86.17858 11.49352,32.20613 -10e-6,86.93452 3.02381,95.25 3.02382,8.31548 13.60713,24.94643 14.36309,34.01786 0.75596,9.07143 14.3631,16.63095 3.77977,24.94643 -10.58333,8.31548 23.43452,27.97024 15.875,28.72619 -7.55952,0.75595 -16.24235,-0.95686 -29.48215,-2.26786 z"
         style="fill:#241c1f;stroke:#000000;stroke-width:1.04226px;stroke-linecap:butt;stroke-linejoin:miter;stroke-opacity:1" />
      <path
         style="fill:#6c535d;stroke:#000000;stroke-width:1.04226px;stroke-linecap:butt;stroke-linejoin:miter;stroke-opacity:1"
         d="m 445.25595,478.42856 c -13.2398,-1.311 -42.20379,6.44989 -49.89285,-6.04762 -7.68906,-12.49751 9.7537,-26.43874 12.85118,-35.52976 3.09748,-9.09102 6.49952,-14.59957 6.04764,-18.89881 -2.8557,-5.65396 1.00951,-36.5123 5.29166,-44.60118 2.26787,-3.77976 -5.44591,-16.33114 12.09523,-80.13096 10.73757,44.30137 6.04761,91.47023 9.07143,99.78571 3.02382,8.31548 16.63094,-30.2381 17.3869,-21.16667 -2.35508,18.54115 -0.57301,51.83479 5.95035,70.60019 8.9496,25.74487 22.82184,34.81513 10.68061,38.25696 -7.55952,0.75595 -16.24235,-0.95686 -29.48215,-2.26786 z"
         id="path5583"
         inkscape:connector-curvature="0"
         sodipodi:nodetypes="zzzccczcscz" />
      <path
         sodipodi:nodetypes="zzzcccsscz"
         inkscape:connector-curvature="0"
         id="path5585"
         d="m 445.25595,478.42856 c -13.2398,-1.311 -42.20379,6.44989 -49.89285,-6.04762 -7.68906,-12.49751 9.7537,-26.43874 12.85118,-35.52976 3.09748,-9.09102 6.49952,-14.59957 6.04764,-18.89881 -2.8557,-5.65396 5.54523,-70.53016 9.82738,-78.61904 2.26787,-3.77976 -7.71377,106.8891 8.31546,107.34523 1.82792,5.18661 4.02804,-40.41683 10.20569,-38.01038 6.61512,2.57686 3.98724,45.61914 8.80114,48.79679 23.01816,15.19427 34.37576,20.61765 23.32651,23.23145 -7.55952,0.75595 -16.24235,-0.95686 -29.48215,-2.26786 z"
         style="fill:#48373e;stroke:#000000;stroke-width:1.04226px;stroke-linecap:butt;stroke-linejoin:miter;stroke-opacity:1" />
    </g>
    <g
       style="display:inline;stroke-width:3.45062"
       transform="matrix(0.29478548,0,0,-0.28490581,301.95797,577.59276)"
       id="g5597">
      <path
         sodipodi:nodetypes="zzzccczzzzz"
         inkscape:connector-curvature="0"
         id="path5591"
         d="m 438.45238,476.1607 c -13.2398,-1.311 -42.20379,6.44989 -49.89285,-6.04762 -7.68906,-12.49751 9.7537,-26.43874 12.85118,-35.52976 3.09748,-9.09102 6.49952,-14.59957 6.04764,-18.89881 -2.8557,-5.65396 -2.77025,-25.92897 1.5119,-34.01785 2.26787,-3.77976 -0.15424,-37.4978 21.92261,-86.17858 11.49352,32.20613 -10e-6,86.93452 3.02381,95.25 3.02382,8.31548 13.60713,24.94643 14.36309,34.01786 0.75596,9.07143 14.3631,16.63095 3.77977,24.94643 -10.58333,8.31548 23.43452,27.97024 15.875,28.72619 -7.55952,0.75595 -16.24235,-0.95686 -29.48215,-2.26786 z"
         style="fill:#241c1f;stroke:#000000;stroke-width:0.912975px;stroke-linecap:butt;stroke-linejoin:miter;stroke-opacity:1" />
      <path
         style="fill:#6c535d;stroke:#000000;stroke-width:0.912975px;stroke-linecap:butt;stroke-linejoin:miter;stroke-opacity:1"
         d="m 445.25595,478.42856 c -13.2398,-1.311 -42.20379,6.44989 -49.89285,-6.04762 -7.68906,-12.49751 9.7537,-26.43874 12.85118,-35.52976 3.09748,-9.09102 6.49952,-14.59957 6.04764,-18.89881 -2.8557,-5.65396 1.00951,-36.5123 5.29166,-44.60118 2.26787,-3.77976 -5.44591,-16.33114 12.09523,-80.13096 10.73757,44.30137 6.04761,91.47023 9.07143,99.78571 3.02382,8.31548 16.63094,-30.2381 17.3869,-21.16667 -2.35508,18.54115 -0.57301,51.83479 5.95035,70.60019 8.9496,25.74487 22.82184,34.81513 10.68061,38.25696 -7.55952,0.75595 -16.24235,-0.95686 -29.48215,-2.26786 z"
         id="path5593"
         inkscape:connector-curvature="0"
         sodipodi:nodetypes="zzzccczcscz" />
      <path
         sodipodi:nodetypes="zzzcccsscz"
         inkscape:connector-curvature="0"
         id="path5595"
         d="m 445.25595,478.42856 c -13.2398,-1.311 -42.20379,6.44989 -49.89285,-6.04762 -7.68906,-12.49751 9.7537,-26.43874 12.85118,-35.52976 3.09748,-9.09102 6.49952,-14.59957 6.04764,-18.89881 -2.8557,-5.65396 5.54523,-70.53016 9.82738,-78.61904 2.26787,-3.77976 -7.71377,106.8891 8.31546,107.34523 1.82792,5.18661 4.02804,-40.41683 10.20569,-38.01038 6.61512,2.57686 3.98724,45.61914 8.80114,48.79679 23.01816,15.19427 34.37576,20.61765 23.32651,23.23145 -7.55952,0.75595 -16.24235,-0.95686 -29.48215,-2.26786 z"
         style="fill:#48373e;stroke:#000000;stroke-width:0.912975px;stroke-linecap:butt;stroke-linejoin:miter;stroke-opacity:1" />
    </g>
    <g
       id="g5613"
       transform="matrix(0.11287094,0,0,-0.15994709,400.57848,518.87824)"
       style="display:inline;stroke-width:7.44253">
      <path
         style="fill:#241c1f;stroke:#000000;stroke-width:1.96917px;stroke-linecap:butt;stroke-linejoin:miter;stroke-opacity:1"
         d="m 438.45238,476.1607 c -13.2398,-1.311 -42.20379,6.44989 -49.89285,-6.04762 -7.68906,-12.49751 9.7537,-26.43874 12.85118,-35.52976 3.09748,-9.09102 6.49952,-14.59957 6.04764,-18.89881 -2.8557,-5.65396 -2.77025,-25.92897 1.5119,-34.01785 2.26787,-3.77976 -0.15424,-37.4978 21.92261,-86.17858 11.49352,32.20613 -10e-6,86.93452 3.02381,95.25 3.02382,8.31548 13.60713,24.94643 14.36309,34.01786 0.75596,9.07143 14.3631,16.63095 3.77977,24.94643 -10.58333,8.31548 23.43452,27.97024 15.875,28.72619 -7.55952,0.75595 -16.24235,-0.95686 -29.48215,-2.26786 z"
         id="path5607"
         inkscape:connector-curvature="0"
         sodipodi:nodetypes="zzzccczzzzz" />
      <path
         sodipodi:nodetypes="zzzccczcscz"
         inkscape:connector-curvature="0"
         id="path5609"
         d="m 445.25595,478.42856 c -13.2398,-1.311 -42.20379,6.44989 -49.89285,-6.04762 -7.68906,-12.49751 9.7537,-26.43874 12.85118,-35.52976 3.09748,-9.09102 6.49952,-14.59957 6.04764,-18.89881 -2.8557,-5.65396 1.00951,-36.5123 5.29166,-44.60118 2.26787,-3.77976 -5.44591,-16.33114 12.09523,-80.13096 10.73757,44.30137 6.04761,91.47023 9.07143,99.78571 3.02382,8.31548 16.63094,-30.2381 17.3869,-21.16667 -2.35508,18.54115 -0.57301,51.83479 5.95035,70.60019 8.9496,25.74487 22.82184,34.81513 10.68061,38.25696 -7.55952,0.75595 -16.24235,-0.95686 -29.48215,-2.26786 z"
         style="fill:#6c535d;stroke:#000000;stroke-width:1.96917px;stroke-linecap:butt;stroke-linejoin:miter;stroke-opacity:1" />
      <path
         style="fill:#48373e;stroke:#000000;stroke-width:1.96917px;stroke-linecap:butt;stroke-linejoin:miter;stroke-opacity:1"
         d="m 445.25595,478.42856 c -13.2398,-1.311 -42.20379,6.44989 -49.89285,-6.04762 -7.68906,-12.49751 9.7537,-26.43874 12.85118,-35.52976 3.09748,-9.09102 6.49952,-14.59957 6.04764,-18.89881 -2.8557,-5.65396 5.54523,-70.53016 9.82738,-78.61904 2.26787,-3.77976 -7.71377,106.8891 8.31546,107.34523 1.82792,5.18661 4.02804,-40.41683 10.20569,-38.01038 6.61512,2.57686 3.98724,45.61914 8.80114,48.79679 23.01816,15.19427 34.37576,20.61765 23.32651,23.23145 -7.55952,0.75595 -16.24235,-0.95686 -29.48215,-2.26786 z"
         id="path5611"
         inkscape:connector-curvature="0"
         sodipodi:nodetypes="zzzcccsscz" />
    </g>
    <g
       id="g5631"
       transform="matrix(0.1632636,0,0,0.1174502,325.63986,578.62698)"
       style="display:inline;stroke-width:7.22152">
      <path
         style="fill:#241c1f;stroke:#000000;stroke-width:1.91069px;stroke-linecap:butt;stroke-linejoin:miter;stroke-opacity:1"
         d="m 438.45238,476.1607 c -13.2398,-1.311 -42.20379,6.44989 -49.89285,-6.04762 -7.68906,-12.49751 9.7537,-26.43874 12.85118,-35.52976 3.09748,-9.09102 6.49952,-14.59957 6.04764,-18.89881 -2.8557,-5.65396 -25.75543,-44.63784 -21.47328,-52.72672 2.26787,-3.77976 22.83094,-18.78893 44.90779,-67.46971 11.49352,32.20613 -10e-6,86.93452 3.02381,95.25 3.02382,8.31548 13.60713,24.94643 14.36309,34.01786 0.75596,9.07143 14.3631,16.63095 3.77977,24.94643 -10.58333,8.31548 23.43452,27.97024 15.875,28.72619 -7.55952,0.75595 -16.24235,-0.95686 -29.48215,-2.26786 z"
         id="path5625"
         inkscape:connector-curvature="0"
         sodipodi:nodetypes="zzzccczzzzz" />
      <path
         sodipodi:nodetypes="czzcccccczc"
         inkscape:connector-curvature="0"
         id="path5627"
         d="m 445.25595,478.42856 c -13.2398,-1.311 -42.20379,6.44989 -49.89285,-6.04762 -7.68906,-12.49751 9.7537,-26.43874 12.85118,-35.52976 3.09748,-9.09102 6.49952,-14.59957 6.04764,-18.89881 -4.98656,-2.67076 -9.35131,-33.98083 -1.65732,-47.80842 -5.21567,-10.19423 -6.51498,-6.17489 19.57878,-59.28393 5.39218,9.55633 5.51307,73.83044 8.53689,82.14592 3.34682,12.96991 7.69084,-0.0208 23.33725,49.43352 8.9496,25.74487 22.82184,34.81513 10.68061,38.25696 -7.55952,0.75595 -16.24235,-0.95686 -29.48215,-2.26786 z"
         style="fill:#6c535d;stroke:#000000;stroke-width:1.91069px;stroke-linecap:butt;stroke-linejoin:miter;stroke-opacity:1" />
      <path
         style="fill:#48373e;stroke:#000000;stroke-width:1.91069px;stroke-linecap:butt;stroke-linejoin:miter;stroke-opacity:1"
         d="m 445.25595,478.42856 c -13.2398,-1.311 -42.20379,6.44989 -49.89285,-6.04762 -7.68906,-12.49751 14.03001,-37.66406 17.12749,-46.75508 1.74078,-5.10915 -7.05747,-29.62692 -17.04339,-43.53223 -7.62186,-10.6134 3.51102,-22.12656 35.38544,-67.84184 -34.41263,55.22436 -18.24248,129.22006 1.57212,132.42677 1.82792,5.18661 4.02804,-40.41683 10.20569,-38.01038 6.61512,2.57686 3.98724,45.61914 8.80114,48.79679 23.01816,15.19427 34.37576,20.61765 23.32651,23.23145 -7.55952,0.75595 -16.24235,-0.95686 -29.48215,-2.26786 z"
         id="path5629"
         inkscape:connector-curvature="0"
         sodipodi:nodetypes="zzssccsscz" />
    </g>
    <g
       style="display:inline;stroke-width:7.22152"
       transform="matrix(0.1632636,0,0,-0.1174502,394.24069,496.28582)"
       id="g5639">
      <path
         sodipodi:nodetypes="zzzccczzzzz"
         inkscape:connector-curvature="0"
         id="path5633"
         d="m 438.45238,476.1607 c -13.2398,-1.311 -42.20379,6.44989 -49.89285,-6.04762 -7.68906,-12.49751 9.7537,-26.43874 12.85118,-35.52976 3.09748,-9.09102 6.49952,-14.59957 6.04764,-18.89881 -2.8557,-5.65396 -25.75543,-44.63784 -21.47328,-52.72672 2.26787,-3.77976 22.83094,-18.78893 44.90779,-67.46971 11.49352,32.20613 -10e-6,86.93452 3.02381,95.25 3.02382,8.31548 13.60713,24.94643 14.36309,34.01786 0.75596,9.07143 14.3631,16.63095 3.77977,24.94643 -10.58333,8.31548 23.43452,27.97024 15.875,28.72619 -7.55952,0.75595 -16.24235,-0.95686 -29.48215,-2.26786 z"
         style="fill:#241c1f;stroke:#000000;stroke-width:1.91069px;stroke-linecap:butt;stroke-linejoin:miter;stroke-opacity:1" />
      <path
         style="fill:#6c535d;stroke:#000000;stroke-width:1.91069px;stroke-linecap:butt;stroke-linejoin:miter;stroke-opacity:1"
         d="m 445.25595,478.42856 c -13.2398,-1.311 -42.20379,6.44989 -49.89285,-6.04762 -7.68906,-12.49751 9.7537,-26.43874 12.85118,-35.52976 3.09748,-9.09102 6.49952,-14.59957 6.04764,-18.89881 -4.98656,-2.67076 -9.35131,-33.98083 -1.65732,-47.80842 -5.21567,-10.19423 -6.51498,-6.17489 19.57878,-59.28393 5.39218,9.55633 5.51307,73.83044 8.53689,82.14592 3.34682,12.96991 7.69084,-0.0208 23.33725,49.43352 8.9496,25.74487 22.82184,34.81513 10.68061,38.25696 -7.55952,0.75595 -16.24235,-0.95686 -29.48215,-2.26786 z"
         id="path5635"
         inkscape:connector-curvature="0"
         sodipodi:nodetypes="czzcccccczc" />
      <path
         sodipodi:nodetypes="zzssccsscz"
         inkscape:connector-curvature="0"
         id="path5637"
         d="m 445.25595,478.42856 c -13.2398,-1.311 -42.20379,6.44989 -49.89285,-6.04762 -7.68906,-12.49751 14.03001,-37.66406 17.12749,-46.75508 1.74078,-5.10915 -7.05747,-29.62692 -17.04339,-43.53223 -7.62186,-10.6134 3.51102,-22.12656 35.38544,-67.84184 -34.41263,55.22436 -18.24248,129.22006 1.57212,132.42677 1.82792,5.18661 4.02804,-40.41683 10.20569,-38.01038 6.61512,2.57686 3.98724,45.61914 8.80114,48.79679 23.01816,15.19427 34.37576,20.61765 23.32651,23.23145 -7.55952,0.75595 -16.24235,-0.95686 -29.48215,-2.26786 z"
         style="fill:#48373e;stroke:#000000;stroke-width:1.91069px;stroke-linecap:butt;stroke-linejoin:miter;stroke-opacity:1" />
    </g>
    <g
       id="g5647"
       transform="matrix(0.1632636,0,0,-0.1174502,446.36403,510.07374)"
       style="display:inline;stroke-width:7.22152">
      <path
         style="fill:#241c1f;stroke:#000000;stroke-width:1.91069px;stroke-linecap:butt;stroke-linejoin:miter;stroke-opacity:1"
         d="m 438.45238,476.1607 c -13.2398,-1.311 -42.20379,6.44989 -49.89285,-6.04762 -7.68906,-12.49751 9.7537,-26.43874 12.85118,-35.52976 3.09748,-9.09102 6.49952,-14.59957 6.04764,-18.89881 -2.8557,-5.65396 -25.75543,-44.63784 -21.47328,-52.72672 2.26787,-3.77976 22.83094,-18.78893 44.90779,-67.46971 11.49352,32.20613 -10e-6,86.93452 3.02381,95.25 3.02382,8.31548 13.60713,24.94643 14.36309,34.01786 0.75596,9.07143 14.3631,16.63095 3.77977,24.94643 -10.58333,8.31548 23.43452,27.97024 15.875,28.72619 -7.55952,0.75595 -16.24235,-0.95686 -29.48215,-2.26786 z"
         id="path5641"
         inkscape:connector-curvature="0"
         sodipodi:nodetypes="zzzccczzzzz" />
      <path
         sodipodi:nodetypes="czzcccccczc"
         inkscape:connector-curvature="0"
         id="path5643"
         d="m 445.25595,478.42856 c -13.2398,-1.311 -42.20379,6.44989 -49.89285,-6.04762 -7.68906,-12.49751 9.7537,-26.43874 12.85118,-35.52976 3.09748,-9.09102 6.49952,-14.59957 6.04764,-18.89881 -4.98656,-2.67076 -9.35131,-33.98083 -1.65732,-47.80842 -5.21567,-10.19423 -6.51498,-6.17489 19.57878,-59.28393 5.39218,9.55633 5.51307,73.83044 8.53689,82.14592 3.34682,12.96991 7.69084,-0.0208 23.33725,49.43352 8.9496,25.74487 22.82184,34.81513 10.68061,38.25696 -7.55952,0.75595 -16.24235,-0.95686 -29.48215,-2.26786 z"
         style="fill:#6c535d;stroke:#000000;stroke-width:1.91069px;stroke-linecap:butt;stroke-linejoin:miter;stroke-opacity:1" />
      <path
         style="fill:#48373e;stroke:#000000;stroke-width:1.91069px;stroke-linecap:butt;stroke-linejoin:miter;stroke-opacity:1"
         d="m 445.25595,478.42856 c -13.2398,-1.311 -42.20379,6.44989 -49.89285,-6.04762 -7.68906,-12.49751 14.03001,-37.66406 17.12749,-46.75508 1.74078,-5.10915 -7.05747,-29.62692 -17.04339,-43.53223 -7.62186,-10.6134 3.51102,-22.12656 35.38544,-67.84184 -34.41263,55.22436 -18.24248,129.22006 1.57212,132.42677 1.82792,5.18661 4.02804,-40.41683 10.20569,-38.01038 6.61512,2.57686 3.98724,45.61914 8.80114,48.79679 23.01816,15.19427 34.37576,20.61765 23.32651,23.23145 -7.55952,0.75595 -16.24235,-0.95686 -29.48215,-2.26786 z"
         id="path5645"
         inkscape:connector-curvature="0"
         sodipodi:nodetypes="zzssccsscz" />
    </g>
    <g
       style="display:inline;stroke-width:7.22152"
       transform="matrix(0.1632636,0,0,-0.1174502,350.77185,494.01796)"
       id="g5655">
      <path
         sodipodi:nodetypes="zzzccczzzzz"
         inkscape:connector-curvature="0"
         id="path5649"
         d="m 438.45238,476.1607 c -13.2398,-1.311 -42.20379,6.44989 -49.89285,-6.04762 -7.68906,-12.49751 9.7537,-26.43874 12.85118,-35.52976 3.09748,-9.09102 6.49952,-14.59957 6.04764,-18.89881 -2.8557,-5.65396 -25.75543,-44.63784 -21.47328,-52.72672 2.26787,-3.77976 22.83094,-18.78893 44.90779,-67.46971 11.49352,32.20613 -10e-6,86.93452 3.02381,95.25 3.02382,8.31548 13.60713,24.94643 14.36309,34.01786 0.75596,9.07143 14.3631,16.63095 3.77977,24.94643 -10.58333,8.31548 23.43452,27.97024 15.875,28.72619 -7.55952,0.75595 -16.24235,-0.95686 -29.48215,-2.26786 z"
         style="fill:#241c1f;stroke:#000000;stroke-width:1.91069px;stroke-linecap:butt;stroke-linejoin:miter;stroke-opacity:1" />
      <path
         style="fill:#6c535d;stroke:#000000;stroke-width:1.91069px;stroke-linecap:butt;stroke-linejoin:miter;stroke-opacity:1"
         d="m 445.25595,478.42856 c -13.2398,-1.311 -42.20379,6.44989 -49.89285,-6.04762 -7.68906,-12.49751 9.7537,-26.43874 12.85118,-35.52976 3.09748,-9.09102 6.49952,-14.59957 6.04764,-18.89881 -4.98656,-2.67076 -9.35131,-33.98083 -1.65732,-47.80842 -5.21567,-10.19423 -6.51498,-6.17489 19.57878,-59.28393 5.39218,9.55633 5.51307,73.83044 8.53689,82.14592 3.34682,12.96991 7.69084,-0.0208 23.33725,49.43352 8.9496,25.74487 22.82184,34.81513 10.68061,38.25696 -7.55952,0.75595 -16.24235,-0.95686 -29.48215,-2.26786 z"
         id="path5651"
         inkscape:connector-curvature="0"
         sodipodi:nodetypes="czzcccccczc" />
      <path
         sodipodi:nodetypes="zzssccsscz"
         inkscape:connector-curvature="0"
         id="path5653"
         d="m 445.25595,478.42856 c -13.2398,-1.311 -42.20379,6.44989 -49.89285,-6.04762 -7.68906,-12.49751 14.03001,-37.66406 17.12749,-46.75508 1.74078,-5.10915 -7.05747,-29.62692 -17.04339,-43.53223 -7.62186,-10.6134 3.51102,-22.12656 35.38544,-67.84184 -34.41263,55.22436 -18.24248,129.22006 1.57212,132.42677 1.82792,5.18661 4.02804,-40.41683 10.20569,-38.01038 6.61512,2.57686 3.98724,45.61914 8.80114,48.79679 23.01816,15.19427 34.37576,20.61765 23.32651,23.23145 -7.55952,0.75595 -16.24235,-0.95686 -29.48215,-2.26786 z"
         style="fill:#48373e;stroke:#000000;stroke-width:1.91069px;stroke-linecap:butt;stroke-linejoin:miter;stroke-opacity:1" />
    </g>
    <g
       style="display:inline;stroke-width:1.79779"
       transform="matrix(0.60424722,0,0,0.51204371,193.27003,457.6781)"
       id="g5663">
      <path
         sodipodi:nodetypes="zzzccczzzzz"
         inkscape:connector-curvature="0"
         id="path5657"
         d="m 438.45238,476.1607 c -13.2398,-1.311 -42.20379,6.44989 -49.89285,-6.04762 -7.68906,-12.49751 9.7537,-26.43874 12.85118,-35.52976 3.09748,-9.09102 6.49952,-14.59957 6.04764,-18.89881 -2.8557,-5.65396 -25.75543,-44.63784 -21.47328,-52.72672 2.26787,-3.77976 22.83094,-18.78893 44.90779,-67.46971 11.49352,32.20613 -10e-6,86.93452 3.02381,95.25 3.02382,8.31548 13.60713,24.94643 14.36309,34.01786 0.75596,9.07143 14.3631,16.63095 3.77977,24.94643 -10.58333,8.31548 23.43452,27.97024 15.875,28.72619 -7.55952,0.75595 -16.24235,-0.95686 -29.48215,-2.26786 z"
         style="fill:#241c1f;stroke:#000000;stroke-width:0.475665px;stroke-linecap:butt;stroke-linejoin:miter;stroke-opacity:1" />
      <path
         style="fill:#6c535d;stroke:#000000;stroke-width:0.475665px;stroke-linecap:butt;stroke-linejoin:miter;stroke-opacity:1"
         d="m 445.25595,478.42856 c -13.2398,-1.311 -42.20379,6.44989 -49.89285,-6.04762 -7.68906,-12.49751 9.7537,-26.43874 12.85118,-35.52976 3.09748,-9.09102 6.49952,-14.59957 6.04764,-18.89881 -4.98656,-2.67076 -9.35131,-33.98083 -1.65732,-47.80842 -5.21567,-10.19423 -6.51498,-6.17489 19.57878,-59.28393 5.39218,9.55633 5.51307,73.83044 8.53689,82.14592 3.34682,12.96991 7.69084,-0.0208 23.33725,49.43352 8.9496,25.74487 22.82184,34.81513 10.68061,38.25696 -7.55952,0.75595 -16.24235,-0.95686 -29.48215,-2.26786 z"
         id="path5659"
         inkscape:connector-curvature="0"
         sodipodi:nodetypes="czzcccccczc" />
      <path
         sodipodi:nodetypes="zzssccsscz"
         inkscape:connector-curvature="0"
         id="path5661"
         d="m 445.25595,478.42856 c -13.2398,-1.311 -42.20379,6.44989 -49.89285,-6.04762 -7.68906,-12.49751 14.03001,-37.66406 17.12749,-46.75508 1.74078,-5.10915 -7.05747,-29.62692 -17.04339,-43.53223 -7.62186,-10.6134 3.51102,-22.12656 35.38544,-67.84184 -34.41263,55.22436 -18.24248,129.22006 1.57212,132.42677 1.82792,5.18661 4.02804,-40.41683 10.20569,-38.01038 6.61512,2.57686 3.98724,45.61914 8.80114,48.79679 23.01816,15.19427 34.37576,20.61765 23.32651,23.23145 -7.55952,0.75595 -16.24235,-0.95686 -29.48215,-2.26786 z"
         style="fill:#48373e;stroke:#000000;stroke-width:0.475665px;stroke-linecap:butt;stroke-linejoin:miter;stroke-opacity:1" />
    </g>
  </g>
</svg>
