<?xml version="1.0" encoding="UTF-8" standalone="no"?>
<svg
   xmlns:dc="http://purl.org/dc/elements/1.1/"
   xmlns:cc="http://creativecommons.org/ns#"
   xmlns:rdf="http://www.w3.org/1999/02/22-rdf-syntax-ns#"
   xmlns:svg="http://www.w3.org/2000/svg"
   xmlns="http://www.w3.org/2000/svg"
   xmlns:sodipodi="http://sodipodi.sourceforge.net/DTD/sodipodi-0.dtd"
   xmlns:inkscape="http://www.inkscape.org/namespaces/inkscape"
   width="352.1402mm"
   height="213.31068mm"
   viewBox="0 0 352.14019 213.31068"
   version="1.1"
   id="svg417"
   sodipodi:docname="portadaSumer.svg"
   inkscape:version="1.0.1 (3bc2e813f5, 2020-09-07)">
  <defs
     id="defs411">
    <marker
       inkscape:stockid="Arrow1Lstart"
       orient="auto"
       refY="0"
       refX="0"
       id="marker5443"
       style="overflow:visible"
       inkscape:isstock="true">
      <path
         id="path5441"
         d="M 0,0 5,-5 -12.5,0 5,5 Z"
         style="fill:#c8b7be;fill-opacity:1;fill-rule:evenodd;stroke:#000000;stroke-width:1pt;stroke-opacity:1"
         transform="matrix(0.8,0,0,0.8,10,0)" />
    </marker>
  </defs>
  <sodipodi:namedview
     id="base"
     pagecolor="#ffffff"
     bordercolor="#666666"
     borderopacity="1.0"
     inkscape:pageopacity="0.0"
     inkscape:pageshadow="2"
     inkscape:zoom="0.35"
     inkscape:cx="892.85715"
     inkscape:cy="327.79415"
     inkscape:document-units="mm"
     inkscape:current-layer="layer1"
     inkscape:document-rotation="0"
     showgrid="false"
     fit-margin-top="0"
     fit-margin-left="0"
     fit-margin-right="0"
     fit-margin-bottom="0"
     inkscape:snap-global="false" />
  <metadata
     id="metadata414">
    <rdf:RDF>
      <cc:Work
         rdf:about="">
        <dc:format>image/svg+xml</dc:format>
        <dc:type
           rdf:resource="http://purl.org/dc/dcmitype/StillImage" />
        <dc:title></dc:title>
      </cc:Work>
    </rdf:RDF>
  </metadata>
  <g
     inkscape:label="Capa 1"
     inkscape:groupmode="layer"
     id="layer1"
     transform="translate(-149.02972,-489.19275)">
    <path
       sodipodi:nodetypes="cccccccccccccscccsccccc"
       inkscape:connector-curvature="0"
       id="path2061"
       d="m 368.4009,559.25356 c 0.72374,-2.02098 3.28782,-7.05167 3.7078,-10.62264 0,0 3.11404,-13.48021 9.27924,-16.11114 11.40012,-4.75485 21.47133,-2.31294 32.68999,1.18478 5.22643,2.29809 3.33618,6.59636 7.16034,6.24112 0,0 9.46561,-2.7402 14.06742,0.27822 4.60182,3.01842 13.00523,9.39965 13.00523,9.39965 7.63703,9.20836 4.01916,17.87666 1.99551,25.66416 -1.23429,4.62762 -2.27616,7.5274 -4.12584,11.0402 l -2.44496,9.08273 -0.63314,5.8404 5.21303,-2.61628 -2.66276,6.8762 c -0.74739,2.28734 -0.58873,6.99024 -2.75565,10.93412 -5.15556,9.38339 -8.15179,17.65805 -11.15324,19.56411 -1.72852,7.48141 -6.92984,14.27569 -14.04231,15.9187 -8.10069,7.40181 -14.96662,7.94835 -24.98974,7.45174 -8.08401,-0.73877 -18.13142,-4.06928 -24.37766,-13.24226 -6.24626,-9.173 -9.0745,-23.912 -9.0745,-23.912 l 0.65969,-11.67195 c 0,0 1.41805,-8.961 1.12992,-9.94165 -0.28814,-0.98066 -1.23363,-10.52863 -0.3559,-13.02643 6.22409,-16.50615 8.60115,-20.59456 7.70753,-28.33178 z"
       style="display:inline;fill:#ff7f2a;fill-opacity:1;stroke:#000000;stroke-width:0.264583px;stroke-linecap:butt;stroke-linejoin:miter;stroke-opacity:1"
       inkscape:export-xdpi="96"
       inkscape:export-ydpi="96"
       inkscape:export-filename="C:\Users\jose zambrano\Desktop\Proyecto Game\Imagenes\perfilverderaro.png" />
    <path
       sodipodi:nodetypes="cccccccc"
       inkscape:connector-curvature="0"
       id="path2063"
       d="m 441.46013,617.09571 c -2.4831,1.44297 -3.70506,2.90425 -3.70506,2.90425 0,0 -3.05892,3.52565 -1.00942,4.58456 2.0495,1.05892 2.90228,-4.13437 5.28255,-4.37213 3.30613,-3.24838 3.09633,-4.89182 5.32082,-6.73981 2.20713,-1.69152 2.46988,-5.67649 4.70803,-10.09288 1.10961,-3.78343 0.13336,-4.42531 -2.26963,-3.56475 -9.80897,2.92591 -4.31675,16.66523 -8.32729,17.28076 z"
       style="display:inline;fill:#ff7f2a;fill-opacity:1;stroke:#000000;stroke-width:0.264583px;stroke-linecap:butt;stroke-linejoin:miter;stroke-opacity:1"
       inkscape:export-xdpi="96"
       inkscape:export-ydpi="96"
       inkscape:export-filename="C:\Users\jose zambrano\Desktop\Proyecto Game\Imagenes\perfilverderaro.png" />
    <path
       sodipodi:nodetypes="cscccc"
       inkscape:connector-curvature="0"
       id="path2065"
       d="m 359.13999,603.82044 c 0,0 -3.80484,-5.06811 -2.99391,-11.31299 0.40793,-3.14143 1.92564,-5.54434 0.54001,-8.53435 0,0 0.0142,-6.52655 3.28176,-8.02744 3.42564,-1.05566 3.6376,4.41866 3.6376,4.41866 z"
       style="display:inline;fill:#ff7f2a;fill-opacity:1;stroke:#000000;stroke-width:0.264583px;stroke-linecap:butt;stroke-linejoin:miter;stroke-opacity:1"
       inkscape:export-xdpi="96"
       inkscape:export-ydpi="96"
       inkscape:export-filename="C:\Users\jose zambrano\Desktop\Proyecto Game\Imagenes\perfilverderaro.png" />
    <rect
       style="display:inline;opacity:1;fill:#b3b3b3;fill-opacity:1;fill-rule:evenodd;stroke:none;stroke-width:1.34938;stroke-linejoin:round;stroke-dashoffset:500"
       id="rect66"
       width="352.1402"
       height="213.31068"
       x="149.02972"
       y="489.19275"
       inkscape:export-xdpi="96"
       inkscape:export-ydpi="96"
       inkscape:export-filename="C:\Users\jose zambrano\Desktop\Proyecto Game\Imagenes\bancoinegro.png" />
    <path
       sodipodi:nodetypes="cccscccsc"
       inkscape:connector-curvature="0"
       id="path2067"
       d="m 400.12907,589.3563 c 0,0 -7.20234,3.2081 -10.34246,7.06187 -1.66447,5.78762 4.38757,9.79973 6.4104,10.58392 1.03532,0.30069 2.00414,0.30003 5.15451,-0.74858 1.88264,-0.62665 5.70788,-0.73858 6.21142,1.23815 0.10431,1.01237 1.57173,0.40256 2.49116,-0.13319 0.42627,-0.35702 1.85931,-3.26975 0.29949,-5.22583 -2.87949,-2.43754 -6.14129,-10.38344 -7.02755,-12.47949 -0.88627,-2.09606 -3.19697,-0.29685 -3.19697,-0.29685 z"
       style="display:inline;opacity:0.219;fill:none;fill-opacity:1;stroke:#000000;stroke-width:0.264999;stroke-linecap:butt;stroke-linejoin:miter;stroke-miterlimit:4;stroke-dasharray:none;stroke-opacity:1"
       inkscape:export-xdpi="96"
       inkscape:export-ydpi="96"
       inkscape:export-filename="C:\Users\jose zambrano\Desktop\Proyecto Game\Imagenes\perfilverderaro.png" />
    <path
       sodipodi:nodetypes="cccc"
       inkscape:connector-curvature="0"
       id="path2069"
       d="m 389.81483,596.3549 c 0,0 -6.5985,1.53467 -3.94116,5.58267 4.82573,-1.60438 4.70125,0.9025 6.34364,2.13574 -2.61542,-2.57721 -3.12825,-5.32655 -2.40248,-7.71841 z"
       style="display:inline;opacity:0.536;fill:#241c22;fill-opacity:1;stroke:#000000;stroke-width:0.264999;stroke-linecap:butt;stroke-linejoin:miter;stroke-miterlimit:4;stroke-dasharray:none;stroke-opacity:1"
       inkscape:export-xdpi="96"
       inkscape:export-ydpi="96"
       inkscape:export-filename="C:\Users\jose zambrano\Desktop\Proyecto Game\Imagenes\perfilverderaro.png" />
    <path
       sodipodi:nodetypes="sscscs"
       inkscape:connector-curvature="0"
       id="path2071"
       d="m 391.95484,604.12599 c -0.23437,0.34334 -1.02517,-0.85506 -2.46756,-1.3585 -1.58354,-0.55269 -3.20476,-0.48695 -2.88869,-0.94996 0.31608,-0.46304 1.95778,-0.82286 3.34463,-0.026 0.31314,0.17986 2.3277,1.8714 2.01162,2.33445 z"
       style="display:inline;fill:#241c22;fill-rule:evenodd;stroke-width:0.264583"
       inkscape:export-xdpi="96"
       inkscape:export-ydpi="96"
       inkscape:export-filename="C:\Users\jose zambrano\Desktop\Proyecto Game\Imagenes\perfilverderaro.png" />
    <path
       sodipodi:nodetypes="cscsc"
       inkscape:connector-curvature="0"
       id="path2073"
       d="m 407.81733,607.71641 c -0.14699,0.54102 -1.59995,0.67099 -3.24527,0.29028 -1.64533,-0.3807 -4.10833,-0.77476 -3.96134,-1.31581 0.14699,-0.54102 3.29646,-1.03288 4.94178,-0.65217 1.64534,0.3807 2.41184,1.13665 2.26484,1.67767 z"
       style="display:inline;fill:#241c22;fill-rule:evenodd;stroke-width:0.264583"
       inkscape:export-xdpi="96"
       inkscape:export-ydpi="96"
       inkscape:export-filename="C:\Users\jose zambrano\Desktop\Proyecto Game\Imagenes\perfilverderaro.png" />
    <path
       sodipodi:nodetypes="cccccccccccccccczczccccc"
       inkscape:connector-curvature="0"
       id="path2077"
       d="m 357.90437,610.38633 c -2.45313,8.51682 -1.21053,14.99874 -0.46354,23.70971 1.93333,10.48288 4.59816,13.55389 10.58955,21.90984 8.33756,6.02917 16.13786,7.62699 26.04876,8.51732 13.92569,0.22903 28.51169,-6.78747 34.80275,-17.65563 4.02886,-6.43857 6.83203,-12.26971 8.83774,-18.82226 l 1.2142,-5.16433 -2.25424,0.88086 -0.21104,-1.62474 0.29015,-2.35928 -1.26456,1.43685 c -2.50604,11.48718 -9.93094,25.7421 -17.65095,23.59703 -0.55359,-4.31142 0.3754,-9.3014 -0.49336,-13.02123 -3.83611,4.12535 -2.2448,5.28532 -5.95518,13.38627 -9.87061,11.03977 -16.58439,12.70334 -23.39446,8.33506 0,0 -1.46009,-2.06984 -2.55,-7.70787 -2.27875,4.90971 -8.37134,5.55798 -10.8383,3.82361 -2.46696,-1.73437 -8.10948,-14.22646 -7.78786,-27.84898 -0.31882,-1.23775 -0.21225,-1.50192 -1.16212,-1.35215 -0.94986,0.14978 -1.54212,3.67637 -1.54212,3.67637 -6.60231,6.28749 -2.73764,-7.88713 -1.65809,-23.40831 l -1.40037,-6.7195 -1.52269,8.2897 z"
       style="display:inline;opacity:1;fill:#241c22;stroke:#000000;stroke-width:0.264583px;stroke-linecap:butt;stroke-linejoin:miter;stroke-opacity:1"
       inkscape:export-xdpi="96"
       inkscape:export-ydpi="96"
       inkscape:export-filename="C:\Users\jose zambrano\Desktop\Proyecto Game\Imagenes\perfilverderaro.png" />
    <path
       sodipodi:nodetypes="cccczcccccsccccczzczccczccccccccccczcczzczccczczccccc"
       inkscape:connector-curvature="0"
       id="path2075"
       d="m 361.17157,575.88914 -0.73198,-4.73619 0.74483,-5.51858 1.72183,-3.84232 c -1.44823,-1.36009 -2.2454,-6.71087 -1.25352,-11.96857 0.99189,-5.2577 6.13903,-12.89204 6.13903,-12.89204 0,0 2.97759,-6.69314 -4.41514,6.54189 4.59956,-13.98513 16.55134,-15.62552 16.55134,-15.62552 l 0.8544,-3.69283 c 0,0 -1.31756,-6.25061 1.66691,-11.06098 3.42385,-5.26726 5.25929,-7.66044 11.2691,-7.57235 4.83705,0.0709 11.2387,6.17643 11.2387,6.17643 l -6.10145,-3.28801 c 0,0 -6.20228,-2.32965 -9.50405,0.006 -4.93515,4.40015 -6.10477,8.78654 -3.80386,10.29576 6.05164,-3.8541 13.36833,-4.14641 13.36833,-4.14641 0,0 4.84237,-2.83351 8.57861,-1.48257 3.73623,1.35094 6.14128,-1.5581 13.9127,0.77437 7.77144,2.33245 10.24638,5.86705 10.24638,5.86705 0,0 5.33281,1.79124 10.86516,3.8824 5.53234,2.09116 8.9653,12.19831 8.9653,12.19831 l 5.08309,6.23684 4.65911,4.42201 c 0,0 3.20208,7.3771 3.54784,11.796 0.34576,4.41889 -4.06074,13.97691 -4.06074,13.97691 l 0.41335,2.80133 c 0,0 -0.99183,3.57724 -3.14737,5.65039 1.94271,2.26211 1.57442,2.56946 1.57442,2.56946 l -5.58788,6.17624 -2.83216,4.95683 -2.04839,5.30017 -3.37448,3.20408 -3.20049,10.58284 -4.50826,6.36435 -1.19265,-0.61927 c 0,0 0.68662,0.18338 2.58435,-4.63816 1.89774,-4.82157 3.74551,-13.28336 3.74551,-13.28336 l 1.21212,-8.33235 c 0,0 0.36329,-9.1225 1.60297,-12.34364 1.23967,-3.22113 3.25215,-4.13068 3.9121,-6.64073 0.65997,-2.51006 -1.31622,-7.8169 -1.31622,-7.8169 0,0 -1.13812,-9.35012 -3.46793,-13.12696 -2.3298,-3.77684 -11.12781,-8.26023 -11.12781,-8.26023 0,0 -11.27757,-6.54536 -16.07555,-3.50618 -0.89699,-4.98318 -9.73253,-5.52003 -9.73253,-5.52003 0,0 -13.70493,-3.87317 -17.96693,-1.88435 -4.26199,1.98883 -9.99878,6.69248 -9.99878,6.69248 0,0 -4.45002,7.51289 -4.86471,10.73488 -0.41468,3.22199 -0.90384,9.09439 -0.90384,9.09439 l -9.12733,16.91639 -2.09517,7.69506 -0.22463,-4.21434 z"
       style="display:inline;opacity:1;fill:#241c22;stroke:#000000;stroke-width:0.264583px;stroke-linecap:butt;stroke-linejoin:miter;stroke-opacity:1"
       inkscape:export-xdpi="96"
       inkscape:export-ydpi="96"
       inkscape:export-filename="C:\Users\jose zambrano\Desktop\Proyecto Game\Imagenes\perfilverderaro.png" />
    <path
       sodipodi:nodetypes="cccscc"
       inkscape:connector-curvature="0"
       id="path2079"
       d="m 385.93719,635.39283 c -1.77791,1.41785 -2.60697,3.23485 -3.60427,5.21099 l 2.61717,2.39965 c 0,0 3.87803,-0.37459 4.15929,-1.27671 0.28126,-0.9021 0.0871,-4.72388 0.0871,-4.72388 z"
       style="display:inline;opacity:1;fill:#241c22;stroke:#000000;stroke-width:0.264583px;stroke-linecap:butt;stroke-linejoin:miter;stroke-opacity:1"
       inkscape:export-xdpi="96"
       inkscape:export-ydpi="96"
       inkscape:export-filename="C:\Users\jose zambrano\Desktop\Proyecto Game\Imagenes\perfilverderaro.png" />
    <path
       sodipodi:nodetypes="ccccsc"
       inkscape:connector-curvature="0"
       id="path2081"
       d="m 393.15954,608.36312 -4.93916,7.35665 c -14.88708,-3.64576 -12.47915,-1.46246 -21.75213,3.88766 l 2.16979,-7.68418 c 3.22576,-2.31257 5.49601,-3.23867 9.11091,-3.48265 6.46138,-0.43608 11.51218,0.22184 15.41059,-0.0775 z"
       style="display:inline;opacity:1;fill:#241c22;stroke:#000000;stroke-width:0.264583px;stroke-linecap:butt;stroke-linejoin:miter;stroke-opacity:1"
       inkscape:export-xdpi="96"
       inkscape:export-ydpi="96"
       inkscape:export-filename="C:\Users\jose zambrano\Desktop\Proyecto Game\Imagenes\perfilverderaro.png" />
    <path
       sodipodi:nodetypes="ccccc"
       inkscape:connector-curvature="0"
       id="path2083"
       d="m 399.78045,618.82199 c 9.64478,5.00723 17.95107,10.13913 21.50927,14.26203 -0.0875,-4.71068 -0.95385,-7.50463 -2.63114,-10.83089 -2.95538,-2.90684 -11.69602,-3.99144 -18.88085,-12.26647 -0.45694,4.63748 -0.36123,3.70338 0.003,8.83533 z"
       style="display:inline;opacity:1;fill:#241c22;stroke:#000000;stroke-width:0.264999;stroke-linecap:butt;stroke-linejoin:miter;stroke-miterlimit:4;stroke-dasharray:none;stroke-opacity:1"
       inkscape:export-xdpi="96"
       inkscape:export-ydpi="96"
       inkscape:export-filename="C:\Users\jose zambrano\Desktop\Proyecto Game\Imagenes\perfilverderaro.png" />
    <path
       sodipodi:nodetypes="ccscczcc"
       inkscape:connector-curvature="0"
       id="path2085"
       d="m 395.9663,567.28837 2.62321,4.52937 c 0,0 -10.17867,-5.23723 -11.48406,-5.5232 -6.40615,-1.40341 -12.00552,-2.18629 -12.00552,-2.18629 l 2.57277,-2.38341 c 0,0 1.77261,-0.13906 2.86953,0.007 1.09693,0.14579 5.78354,1.61224 5.78354,1.61224 z"
       style="display:inline;opacity:1;fill:#241c22;stroke:#000000;stroke-width:0.264583px;stroke-linecap:butt;stroke-linejoin:miter;stroke-opacity:1"
       inkscape:export-xdpi="96"
       inkscape:export-ydpi="96"
       inkscape:export-filename="C:\Users\jose zambrano\Desktop\Proyecto Game\Imagenes\perfilverderaro.png" />
    <path
       sodipodi:nodetypes="czccczcc"
       inkscape:connector-curvature="0"
       id="path2087"
       d="m 419.49253,574.4593 c 0,0 -2.07987,0.44627 -3.35931,1.60933 -1.27944,1.16308 16.29636,4.6638 16.29636,4.6638 l 6.46426,1.28859 c 0,0 4.03278,3.44603 3.27408,1.38976 -0.73823,-1.93061 -2.73718,-5.22149 -3.2425,-5.95823 -0.5053,-0.73674 -5.01816,0.18605 -5.01816,0.18605 z"
       style="display:inline;opacity:1;fill:#241c22;stroke:#000000;stroke-width:0.264583px;stroke-linecap:butt;stroke-linejoin:miter;stroke-opacity:1"
       inkscape:export-xdpi="96"
       inkscape:export-ydpi="96"
       inkscape:export-filename="C:\Users\jose zambrano\Desktop\Proyecto Game\Imagenes\perfilverderaro.png" />
    <path
       sodipodi:nodetypes="ccccscsccsccccsccc"
       inkscape:connector-curvature="0"
       id="path2089"
       d="m 448.94334,591.64914 -1.74338,3.79581 c -2.95596,-1.18426 -3.25214,-1.30497 -5.10311,-1.59103 l -4.67469,7.36122 c 0,0 -0.21467,-0.0161 -0.6074,-0.0511 -4.07501,-0.36257 -27.3215,-2.74894 -28.85332,-10.12096 0,0 -1.51166,-7.77714 -0.99458,-9.43565 0.51709,-1.65851 -5.34522,-2.05249 -5.34522,-2.05249 -2.84646,5.28731 -4.42426,7.90273 -7.982,8.98969 -1.02063,-0.31821 -26.61582,-1.76818 -26.93545,-9.23772 -0.28888,-6.75109 -0.10069,-8.8331 -0.10069,-8.8331 l 2.3404,-5.8423 c 4.96687,0.12524 17.71878,-0.47866 33.39222,10.38692 l 7.05657,2.0601 c 0,0 2.35944,-0.38421 8.92898,0.54418 0.1839,0.026 0.37299,0.0544 0.56689,0.085 10.8491,0.8719 23.87134,5.12349 27.90073,12.10201 z"
       style="display:inline;opacity:0.98;fill:#000000;stroke:#000000;stroke-width:0.264583px;stroke-linecap:butt;stroke-linejoin:miter;stroke-opacity:1"
       inkscape:export-xdpi="96"
       inkscape:export-ydpi="96"
       inkscape:export-filename="C:\Users\jose zambrano\Desktop\Proyecto Game\Imagenes\perfilverderaro.png" />
    <path
       sodipodi:nodetypes="cscccc"
       inkscape:connector-curvature="0"
       id="path2091"
       d="m 409.29088,584.85162 c -0.0838,2.96849 -0.0552,6.98947 2.60185,8.42493 7.44101,4.01992 21.32146,7.6133 25.03332,5.81672 2.01931,-1.39094 5.44182,-9.84811 4.89658,-11.67485 -1.62195,-2.534 -8.53877,-4.3474 -11.24993,-5.21828 -8.23106,-2.50162 -22.02811,-7.44196 -21.28182,2.65148 z"
       style="display:inline;opacity:0.98;fill:#ececec;stroke:#000000;stroke-width:0.264583px;stroke-linecap:butt;stroke-linejoin:miter;stroke-opacity:1"
       inkscape:export-xdpi="96"
       inkscape:export-ydpi="96"
       inkscape:export-filename="C:\Users\jose zambrano\Desktop\Proyecto Game\Imagenes\perfilverderaro.png" />
    <path
       sodipodi:nodetypes="ccccc"
       inkscape:connector-curvature="0"
       id="path2093"
       d="m 395.77056,585.11565 c -3.54593,2.39391 -14.58894,-0.34914 -14.58894,-0.34914 -5.55822,-1.9446 -10.4311,-2.00373 -13.26376,-6.07804 -0.14638,-8.81114 2.86977,-11.71183 9.37806,-11.09104 11.53611,3.38662 29.87001,3.31743 18.47464,17.51822 z"
       style="display:inline;opacity:0.98;fill:#e6e6e6;stroke:#000000;stroke-width:0.264583px;stroke-linecap:butt;stroke-linejoin:miter;stroke-opacity:1"
       inkscape:export-xdpi="96"
       inkscape:export-ydpi="96"
       inkscape:export-filename="C:\Users\jose zambrano\Desktop\Proyecto Game\Imagenes\perfilverderaro.png" />
    <path
       sodipodi:nodetypes="czccsccccc"
       inkscape:connector-curvature="0"
       id="path2095"
       d="m 393.62766,620.79125 c -3.21531,-2.62515 -2.16196,-2.5539 -4.79176,-3.57958 -2.62979,-1.02567 -11.15498,-1.00937 -11.15498,-1.00937 l -3.26175,0.47275 c 0,0 5.92059,6.65491 7.78857,9.02393 1.35711,1.72111 16.62107,7.08465 18.57072,5.91086 7.21933,-1.39315 11.75411,-3.74036 11.7263,-3.75346 l -3.85187,-2.10168 c -1.03065,-0.88716 -7.51186,-4.30328 -9.68209,-5.21421 -2.46375,-1.26305 -5.34314,0.25076 -5.34314,0.25076 z"
       style="display:inline;opacity:0.99;fill:#000000;fill-opacity:0;stroke:#000000;stroke-width:0.264583px;stroke-linecap:butt;stroke-linejoin:miter;stroke-opacity:1"
       inkscape:export-xdpi="96"
       inkscape:export-ydpi="96"
       inkscape:export-filename="C:\Users\jose zambrano\Desktop\Proyecto Game\Imagenes\perfilverderaro.png" />
    <path
       sodipodi:nodetypes="ccccc"
       inkscape:connector-curvature="0"
       id="path2097"
       d="m 386.15328,624.23792 5.49869,1.78192 1.32865,-3.132 -5.03596,-3.02508 z"
       style="display:inline;opacity:0.99;fill:#ffffff;stroke:#000000;stroke-width:0.264583px;stroke-linecap:butt;stroke-linejoin:miter;stroke-opacity:1"
       inkscape:export-xdpi="96"
       inkscape:export-ydpi="96"
       inkscape:export-filename="C:\Users\jose zambrano\Desktop\Proyecto Game\Imagenes\perfilverderaro.png" />
    <path
       sodipodi:nodetypes="cccc"
       inkscape:connector-curvature="0"
       id="path2099"
       d="m 382.14755,619.16326 0.0262,2.40954 -4.41199,-2.68281 z"
       style="display:inline;opacity:0.99;fill:#ffffff;stroke:#000000;stroke-width:0.264583px;stroke-linecap:butt;stroke-linejoin:miter;stroke-opacity:1"
       inkscape:export-xdpi="96"
       inkscape:export-ydpi="96"
       inkscape:export-filename="C:\Users\jose zambrano\Desktop\Proyecto Game\Imagenes\perfilverderaro.png" />
    <path
       sodipodi:nodetypes="ccccc"
       inkscape:connector-curvature="0"
       id="path2101"
       d="m 382.34452,621.80937 3.78202,2.30202 1.57743,-4.19667 -5.33928,-0.7153 z"
       style="display:inline;opacity:0.99;fill:#ffffff;stroke:#000000;stroke-width:0.264583px;stroke-linecap:butt;stroke-linejoin:miter;stroke-opacity:1"
       inkscape:export-xdpi="96"
       inkscape:export-ydpi="96"
       inkscape:export-filename="C:\Users\jose zambrano\Desktop\Proyecto Game\Imagenes\perfilverderaro.png" />
    <path
       sodipodi:nodetypes="ccscc"
       inkscape:connector-curvature="0"
       id="path2103"
       d="m 393.23384,623.05556 c 1.80373,-0.40041 1.24186,-0.53078 4.9508,0.28373 0,0 -1.11506,4.58662 -1.43399,4.48719 -0.31893,-0.0994 -4.98961,-1.73062 -4.98961,-1.73062 z"
       style="display:inline;opacity:0.99;fill:#ffffff;stroke:#000000;stroke-width:0.264583px;stroke-linecap:butt;stroke-linejoin:miter;stroke-opacity:1"
       inkscape:export-xdpi="96"
       inkscape:export-ydpi="96"
       inkscape:export-filename="C:\Users\jose zambrano\Desktop\Proyecto Game\Imagenes\perfilverderaro.png" />
    <path
       sodipodi:nodetypes="ccccc"
       inkscape:connector-curvature="0"
       id="path2105"
       d="m 398.33763,623.35629 4.16415,1.43869 -1.03652,3.71394 c -1.43563,-0.27042 -2.8591,-0.28644 -4.29954,-0.68161 z"
       style="display:inline;opacity:0.99;fill:#ffffff;stroke:#000000;stroke-width:0.264583px;stroke-linecap:butt;stroke-linejoin:miter;stroke-opacity:1"
       inkscape:export-xdpi="96"
       inkscape:export-ydpi="96"
       inkscape:export-filename="C:\Users\jose zambrano\Desktop\Proyecto Game\Imagenes\perfilverderaro.png" />
    <path
       sodipodi:nodetypes="ccccc"
       inkscape:connector-curvature="0"
       id="path2107"
       d="m 402.71168,624.76098 3.10704,1.62833 -0.52723,2.12404 -3.61654,-0.008 z"
       style="display:inline;opacity:0.99;fill:#ffffff;stroke:#000000;stroke-width:0.264583px;stroke-linecap:butt;stroke-linejoin:miter;stroke-opacity:1"
       inkscape:export-xdpi="96"
       inkscape:export-ydpi="96"
       inkscape:export-filename="C:\Users\jose zambrano\Desktop\Proyecto Game\Imagenes\perfilverderaro.png" />
    <path
       sodipodi:nodetypes="cccc"
       style="display:inline;opacity:0.99;fill:#ffffff;stroke:#000000;stroke-width:0.264583px;stroke-linecap:butt;stroke-linejoin:miter;stroke-opacity:1"
       d="m 406.02666,626.48296 -0.55569,2.01449 4.0458,-0.51691 z"
       id="path2109"
       inkscape:connector-curvature="0"
       inkscape:export-xdpi="96"
       inkscape:export-ydpi="96"
       inkscape:export-filename="C:\Users\jose zambrano\Desktop\Proyecto Game\Imagenes\perfilverderaro.png" />
  </g>
</svg>
