<?xml version="1.0" encoding="UTF-8" standalone="no"?>
<svg
   xmlns:dc="http://purl.org/dc/elements/1.1/"
   xmlns:cc="http://creativecommons.org/ns#"
   xmlns:rdf="http://www.w3.org/1999/02/22-rdf-syntax-ns#"
   xmlns:svg="http://www.w3.org/2000/svg"
   xmlns="http://www.w3.org/2000/svg"
   xmlns:sodipodi="http://sodipodi.sourceforge.net/DTD/sodipodi-0.dtd"
   xmlns:inkscape="http://www.inkscape.org/namespaces/inkscape"
   width="1071.9532mm"
   height="1204.7599mm"
   viewBox="0 0 1071.9532 1204.7599"
   version="1.1"
   id="svg417"
   inkscape:version="1.0.1 (3bc2e813f5, 2020-09-07)"
   sodipodi:docname="selva.svg">
  <defs
     id="defs411" />
  <sodipodi:namedview
     id="base"
     pagecolor="#ffffff"
     bordercolor="#666666"
     borderopacity="1.0"
     inkscape:pageopacity="0.0"
     inkscape:pageshadow="2"
     inkscape:zoom="0.35"
     inkscape:cx="1680.0241"
     inkscape:cy="2176.7116"
     inkscape:document-units="mm"
     inkscape:current-layer="layer1"
     inkscape:document-rotation="0"
     showgrid="false"
     fit-margin-top="0"
     fit-margin-left="0"
     fit-margin-right="0"
     fit-margin-bottom="0" />
  <metadata
     id="metadata414">
    <rdf:RDF>
      <cc:Work
         rdf:about="">
        <dc:format>image/svg+xml</dc:format>
        <dc:type
           rdf:resource="http://purl.org/dc/dcmitype/StillImage" />
        <dc:title></dc:title>
      </cc:Work>
    </rdf:RDF>
  </metadata>
  <g
     inkscape:label="Capa 1"
     inkscape:groupmode="layer"
     id="layer1"
     transform="translate(338.67306,427.75495)">
    <g
       transform="matrix(-0.6806652,0,0,0.6549458,2032.5971,610.47266)"
       id="g907"
       style="fill:#504416;stroke:none;stroke-width:1.49772">
      <path
         style="fill:#504416;stroke:none;stroke-width:0.396272px;stroke-linecap:butt;stroke-linejoin:miter;stroke-opacity:1"
         d="m 2136.4268,74.563071 c 61.8894,-169.383122 144.2248,-259.744251 217.4859,-307.783451 95.068,-62.33853 174.8555,-53.41025 174.8555,-53.41025"
         id="path901"
         inkscape:connector-curvature="0"
         sodipodi:nodetypes="csc" />
      <path
         style="fill:#504416;stroke:none;stroke-width:0.396272px;stroke-linecap:butt;stroke-linejoin:miter;stroke-opacity:1"
         d="m 2108.4169,133.03617 c 0,0 -36.6327,-54.13665 -20.0511,-89.350103 16.5817,-35.2134518 41.3346,62.951543 41.3346,62.951543 0,0 -18.7198,-43.527317 -8.8295,-102.6258768 9.8903,-59.0985422 32.3017,57.0672588 32.3017,57.0672588 0,0 -16.4433,-70.9551788 -9.2006,-114.371381 7.2427,-43.41624 30.3542,69.118818 30.3542,69.118818 0,0 -22.0214,-59.603768 0.7737,-119.226419 22.795,-59.62261 14.5838,74.739001 14.5838,74.739001 0,0 14.8836,-155.293041 45.9653,-170.011081 31.0817,-14.71803 1.5031,91.79856 1.5031,91.79856 0,0 20.8937,-82.96061 47.2084,-115.92053 26.3147,-32.95992 11.0641,48.07628 11.0641,48.07628 0,0 2.2348,-54.54963 47.3385,-97.06652 45.1037,-42.51691 -4.5531,54.85567 -4.5531,54.85567 0,0 57.1595,-103.08077 87.3649,-97.63251 30.2054,5.44826 -16.6048,52.90822 -16.6048,52.90822 0,0 114.992,-129.58624 113.2395,-89.25365 -1.7525,40.33259 -36.9471,68.56748 -36.9471,68.56748 0,0 115.4929,-98.98671 107.309,-44.83119 -250.955,145.26376 -306.1671,176.84681 -446.6647,449.36024 z"
         id="path903"
         inkscape:connector-curvature="0"
         sodipodi:nodetypes="cscccccscccscccscccccc" />
      <path
         style="fill:#504416;stroke:none;stroke-width:0.396272px;stroke-linecap:butt;stroke-linejoin:miter;stroke-opacity:1"
         d="m 2161.2059,142.82638 c 13.564,-5.89789 125.3787,-15.80953 134.2384,-48.2899 8.8597,-32.480368 -105.1361,5.79793 -105.1361,5.79793 0,0 141.4042,-33.66454 150.7802,-60.321228 9.3759,-26.656653 -134.6965,16.635517 -134.6965,16.635517 0,0 169.7257,-58.4789427 165.6701,-90.988341 -4.0557,-32.509396 -138.4553,40.4464763 -138.4553,40.4464763 0,0 129.0632,-53.7005983 145.7664,-90.3979213 16.703,-36.697283 -124.0365,30.951126 -124.0365,30.951126 0,0 174.1329,-88.216839 161.0401,-103.490709 -13.0927,-15.27385 -66.5964,3.55557 -66.5964,3.55557 0,0 75.6336,-20.79109 125.5398,-40.47552 49.9063,-19.68441 -83.9351,-6.64638 -77.1532,-9.59532 6.7819,-2.94894 108.7625,-17.85829 131.9831,-34.00331 23.2204,-16.145 -37.8621,-16.5999 -37.8621,-16.5999 0,0 107.1268,3.41671 111.505,-13.40585 4.3783,-16.82255 -51.471,-37.69745 -51.471,-37.69745 l -120.823,14.23184 -310.62,336.267235 z"
         id="path905"
         inkscape:connector-curvature="0" />
    </g>
    <rect
       style="opacity:1;fill:#8dd35f;fill-opacity:1;fill-rule:evenodd;stroke:none;stroke-width:0;stroke-linejoin:round;stroke-miterlimit:4;stroke-dasharray:none;stroke-dashoffset:500;stroke-opacity:1"
       id="rect859"
       width="732.56512"
       height="901.237"
       x="-142.30788"
       y="-403.26923" />
    <g
       style="fill:#2d5016;stroke:none;stroke-width:3.79389"
       transform="matrix(0.22845303,-0.13189742,0.13168418,0.22808369,255.47649,526.52221)"
       id="g1532"
       inkscape:transform-center-x="-63.538151"
       inkscape:transform-center-y="8.8657881">
      <path
         sodipodi:nodetypes="cszcc"
         inkscape:connector-curvature="0"
         id="path1522"
         d="m 940.56986,-39.600041 c 0,0 -23.92515,-47.814432 -61.4342,-69.027549 -48.67173,-27.52612 -127.01733,-15.92859 -89.04758,-39.28625 37.96975,-23.35766 162.76291,6.76235 194.30339,107.486977 z"
         style="fill:#2d5016;stroke:none;stroke-width:1.0038px;stroke-linecap:butt;stroke-linejoin:miter;stroke-opacity:1" />
      <path
         style="fill:#2d5016;stroke:none;stroke-width:1.0038px;stroke-linecap:butt;stroke-linejoin:miter;stroke-opacity:1"
         d="m 980.19861,-30.480183 c 0,0 41.76369,-33.383158 84.71029,-36.920878 55.7274,-4.59051 121.9975,38.77784 97.3146,1.65596 -24.6829,-37.121939 -150.6095,-62.082889 -221.46465,16.146286 z"
         id="path1524"
         inkscape:connector-curvature="0"
         sodipodi:nodetypes="cszcc" />
      <path
         style="fill:#2d5016;stroke:none;stroke-width:1.0038px;stroke-linecap:butt;stroke-linejoin:miter;stroke-opacity:1"
         d="m 955.91096,-59.507283 c 0,0 2.2949,-34.685547 -12.61768,-60.339987 -19.35057,-33.28918 -69.75194,-56.99683 -39.21679,-54.98605 30.53515,2.01078 94.08226,65.7428 78.07655,131.611489 z"
         id="path1526"
         inkscape:connector-curvature="0"
         sodipodi:nodetypes="cszcc" />
      <path
         sodipodi:nodetypes="cszcc"
         inkscape:connector-curvature="0"
         id="path1528"
         d="m 994.34338,-84.361158 c 0,0 -9.0556,-19.711612 -6.3951,-41.234642 3.4522,-27.92826 26.54322,-63.12704 9.7893,-49.16359 -16.7538,13.96345 -38.29378,78.510445 -14.5346,111.073997 z"
         style="fill:#2d5016;stroke:none;stroke-width:1.0038px;stroke-linecap:butt;stroke-linejoin:miter;stroke-opacity:1" />
      <path
         sodipodi:nodetypes="cszcc"
         inkscape:connector-curvature="0"
         id="path1530"
         d="m 996.11277,-67.67138 c 0,0 9.28283,-33.499 31.82773,-52.79315 29.2542,-25.03611 84.6562,-30.77834 55.1688,-38.95938 -29.4875,-8.18108 -110.50985,31.00304 -117.14339,98.463123 z"
         style="fill:#2d5016;stroke:none;stroke-width:1.0038px;stroke-linecap:butt;stroke-linejoin:miter;stroke-opacity:1" />
    </g>
    <g
       id="g1520"
       transform="matrix(-0.12837131,-0.06679754,-0.08088218,0.15111876,503.40573,575.91536)"
       style="fill:#225500;stroke:none;stroke-width:6.34974">
      <g
         id="g1518"
         transform="translate(119.26903,-329.74378)"
         style="fill:#225500;stroke:none;stroke-width:6.34974">
        <path
           sodipodi:nodetypes="csc"
           inkscape:connector-curvature="0"
           id="path1512"
           d="m 2136.4268,74.563071 c 61.8894,-169.383122 144.2248,-259.744251 217.4859,-307.783451 95.068,-62.33853 174.8555,-53.41025 174.8555,-53.41025"
           style="fill:#225500;stroke:none;stroke-width:1.68004px;stroke-linecap:butt;stroke-linejoin:miter;stroke-opacity:1" />
        <path
           sodipodi:nodetypes="cscccccscccscccscccccc"
           inkscape:connector-curvature="0"
           id="path1514"
           d="m 2108.4169,133.03617 c 0,0 -36.6327,-54.13665 -20.0511,-89.350103 16.5817,-35.2134518 41.3346,62.951543 41.3346,62.951543 0,0 -18.7198,-43.527317 -8.8295,-102.6258768 9.8903,-59.0985422 32.3017,57.0672588 32.3017,57.0672588 0,0 -16.4433,-70.9551788 -9.2006,-114.371381 7.2427,-43.41624 30.3542,69.118818 30.3542,69.118818 0,0 -22.0214,-59.603768 0.7737,-119.226419 22.795,-59.62261 14.5838,74.739001 14.5838,74.739001 0,0 14.8836,-155.293041 45.9653,-170.011081 31.0817,-14.71803 1.5031,91.79856 1.5031,91.79856 0,0 20.8937,-82.96061 47.2084,-115.92053 26.3147,-32.95992 11.0641,48.07628 11.0641,48.07628 0,0 2.2348,-54.54963 47.3385,-97.06652 45.1037,-42.51691 -4.5531,54.85567 -4.5531,54.85567 0,0 57.1595,-103.08077 87.3649,-97.63251 30.2054,5.44826 -16.6048,52.90822 -16.6048,52.90822 0,0 114.992,-129.58624 113.2395,-89.25365 -1.7525,40.33259 -36.9471,68.56748 -36.9471,68.56748 0,0 115.4929,-98.98671 107.309,-44.83119 -250.955,145.26376 -306.1671,176.84681 -446.6647,449.36024 z"
           style="fill:#225500;stroke:none;stroke-width:1.68004px;stroke-linecap:butt;stroke-linejoin:miter;stroke-opacity:1" />
        <path
           inkscape:connector-curvature="0"
           id="path1516"
           d="m 2161.2059,142.82638 c 13.564,-5.89789 125.3787,-15.80953 134.2384,-48.2899 8.8597,-32.480368 -105.1361,5.79793 -105.1361,5.79793 0,0 141.4042,-33.66454 150.7802,-60.321228 9.3759,-26.656653 -134.6965,16.635517 -134.6965,16.635517 0,0 169.7257,-58.4789427 165.6701,-90.988341 -4.0557,-32.509396 -138.4553,40.4464763 -138.4553,40.4464763 0,0 129.0632,-53.7005983 145.7664,-90.3979213 16.703,-36.697283 -124.0365,30.951126 -124.0365,30.951126 0,0 174.1329,-88.216839 161.0401,-103.490709 -13.0927,-15.27385 -66.5964,3.55557 -66.5964,3.55557 0,0 75.6336,-20.79109 125.5398,-40.47552 49.9063,-19.68441 -83.9351,-6.64638 -77.1532,-9.59532 6.7819,-2.94894 108.7625,-17.85829 131.9831,-34.00331 23.2204,-16.145 -37.8621,-16.5999 -37.8621,-16.5999 0,0 107.1268,3.41671 111.505,-13.40585 4.3783,-16.82255 -51.471,-37.69745 -51.471,-37.69745 l -120.823,14.23184 -310.62,336.267235 z"
           style="fill:#225500;stroke:none;stroke-width:1.68004px;stroke-linecap:butt;stroke-linejoin:miter;stroke-opacity:1" />
      </g>
    </g>
    <g
       style="fill:#2d5016;stroke:none;stroke-width:6.34974"
       transform="matrix(-0.14515049,0,0,0.17087123,567.12354,425.19505)"
       id="g1510">
      <g
         style="fill:#2d5016;stroke:none;stroke-width:6.34974"
         transform="translate(119.26903,-329.74378)"
         id="g1508">
        <path
           style="fill:#2d5016;stroke:none;stroke-width:1.68004px;stroke-linecap:butt;stroke-linejoin:miter;stroke-opacity:1"
           d="m 2136.4268,74.563071 c 61.8894,-169.383122 144.2248,-259.744251 217.4859,-307.783451 95.068,-62.33853 174.8555,-53.41025 174.8555,-53.41025"
           id="path1502"
           inkscape:connector-curvature="0"
           sodipodi:nodetypes="csc" />
        <path
           style="fill:#2d5016;stroke:none;stroke-width:1.68004px;stroke-linecap:butt;stroke-linejoin:miter;stroke-opacity:1"
           d="m 2108.4169,133.03617 c 0,0 -36.6327,-54.13665 -20.0511,-89.350103 16.5817,-35.2134518 41.3346,62.951543 41.3346,62.951543 0,0 -18.7198,-43.527317 -8.8295,-102.6258768 9.8903,-59.0985422 32.3017,57.0672588 32.3017,57.0672588 0,0 -16.4433,-70.9551788 -9.2006,-114.371381 7.2427,-43.41624 30.3542,69.118818 30.3542,69.118818 0,0 -22.0214,-59.603768 0.7737,-119.226419 22.795,-59.62261 14.5838,74.739001 14.5838,74.739001 0,0 14.8836,-155.293041 45.9653,-170.011081 31.0817,-14.71803 1.5031,91.79856 1.5031,91.79856 0,0 20.8937,-82.96061 47.2084,-115.92053 26.3147,-32.95992 11.0641,48.07628 11.0641,48.07628 0,0 2.2348,-54.54963 47.3385,-97.06652 45.1037,-42.51691 -4.5531,54.85567 -4.5531,54.85567 0,0 57.1595,-103.08077 87.3649,-97.63251 30.2054,5.44826 -16.6048,52.90822 -16.6048,52.90822 0,0 114.992,-129.58624 113.2395,-89.25365 -1.7525,40.33259 -36.9471,68.56748 -36.9471,68.56748 0,0 115.4929,-98.98671 107.309,-44.83119 -250.955,145.26376 -306.1671,176.84681 -446.6647,449.36024 z"
           id="path1504"
           inkscape:connector-curvature="0"
           sodipodi:nodetypes="cscccccscccscccscccccc" />
        <path
           style="fill:#2d5016;stroke:none;stroke-width:1.68004px;stroke-linecap:butt;stroke-linejoin:miter;stroke-opacity:1"
           d="m 2161.2059,142.82638 c 13.564,-5.89789 125.3787,-15.80953 134.2384,-48.2899 8.8597,-32.480368 -105.1361,5.79793 -105.1361,5.79793 0,0 141.4042,-33.66454 150.7802,-60.321228 9.3759,-26.656653 -134.6965,16.635517 -134.6965,16.635517 0,0 169.7257,-58.4789427 165.6701,-90.988341 -4.0557,-32.509396 -138.4553,40.4464763 -138.4553,40.4464763 0,0 129.0632,-53.7005983 145.7664,-90.3979213 16.703,-36.697283 -124.0365,30.951126 -124.0365,30.951126 0,0 174.1329,-88.216839 161.0401,-103.490709 -13.0927,-15.27385 -66.5964,3.55557 -66.5964,3.55557 0,0 75.6336,-20.79109 125.5398,-40.47552 49.9063,-19.68441 -83.9351,-6.64638 -77.1532,-9.59532 6.7819,-2.94894 108.7625,-17.85829 131.9831,-34.00331 23.2204,-16.145 -37.8621,-16.5999 -37.8621,-16.5999 0,0 107.1268,3.41671 111.505,-13.40585 4.3783,-16.82255 -51.471,-37.69745 -51.471,-37.69745 l -120.823,14.23184 -310.62,336.267235 z"
           id="path1506"
           inkscape:connector-curvature="0" />
      </g>
    </g>
    <g
       id="g1500"
       transform="matrix(0.14515049,0,0,0.17087123,-106.19558,425.87045)"
       style="fill:#2d5016;stroke:none;stroke-width:6.34974">
      <g
         id="g1494"
         transform="translate(119.26903,-329.74378)"
         style="fill:#2d5016;stroke:none;stroke-width:6.34974">
        <path
           sodipodi:nodetypes="csc"
           inkscape:connector-curvature="0"
           id="path1488"
           d="m 2136.4268,74.563071 c 61.8894,-169.383122 144.2248,-259.744251 217.4859,-307.783451 95.068,-62.33853 174.8555,-53.41025 174.8555,-53.41025"
           style="fill:#2d5016;stroke:none;stroke-width:1.68004px;stroke-linecap:butt;stroke-linejoin:miter;stroke-opacity:1" />
        <path
           sodipodi:nodetypes="cscccccscccscccscccccc"
           inkscape:connector-curvature="0"
           id="path1490"
           d="m 2108.4169,133.03617 c 0,0 -36.6327,-54.13665 -20.0511,-89.350103 16.5817,-35.2134518 41.3346,62.951543 41.3346,62.951543 0,0 -18.7198,-43.527317 -8.8295,-102.6258768 9.8903,-59.0985422 32.3017,57.0672588 32.3017,57.0672588 0,0 -16.4433,-70.9551788 -9.2006,-114.371381 7.2427,-43.41624 30.3542,69.118818 30.3542,69.118818 0,0 -22.0214,-59.603768 0.7737,-119.226419 22.795,-59.62261 14.5838,74.739001 14.5838,74.739001 0,0 14.8836,-155.293041 45.9653,-170.011081 31.0817,-14.71803 1.5031,91.79856 1.5031,91.79856 0,0 20.8937,-82.96061 47.2084,-115.92053 26.3147,-32.95992 11.0641,48.07628 11.0641,48.07628 0,0 2.2348,-54.54963 47.3385,-97.06652 45.1037,-42.51691 -4.5531,54.85567 -4.5531,54.85567 0,0 57.1595,-103.08077 87.3649,-97.63251 30.2054,5.44826 -16.6048,52.90822 -16.6048,52.90822 0,0 114.992,-129.58624 113.2395,-89.25365 -1.7525,40.33259 -36.9471,68.56748 -36.9471,68.56748 0,0 115.4929,-98.98671 107.309,-44.83119 -250.955,145.26376 -306.1671,176.84681 -446.6647,449.36024 z"
           style="fill:#2d5016;stroke:none;stroke-width:1.68004px;stroke-linecap:butt;stroke-linejoin:miter;stroke-opacity:1" />
        <path
           inkscape:connector-curvature="0"
           id="path1492"
           d="m 2161.2059,142.82638 c 13.564,-5.89789 125.3787,-15.80953 134.2384,-48.2899 8.8597,-32.480368 -105.1361,5.79793 -105.1361,5.79793 0,0 141.4042,-33.66454 150.7802,-60.321228 9.3759,-26.656653 -134.6965,16.635517 -134.6965,16.635517 0,0 169.7257,-58.4789427 165.6701,-90.988341 -4.0557,-32.509396 -138.4553,40.4464763 -138.4553,40.4464763 0,0 129.0632,-53.7005983 145.7664,-90.3979213 16.703,-36.697283 -124.0365,30.951126 -124.0365,30.951126 0,0 174.1329,-88.216839 161.0401,-103.490709 -13.0927,-15.27385 -66.5964,3.55557 -66.5964,3.55557 0,0 75.6336,-20.79109 125.5398,-40.47552 49.9063,-19.68441 -83.9351,-6.64638 -77.1532,-9.59532 6.7819,-2.94894 108.7625,-17.85829 131.9831,-34.00331 23.2204,-16.145 -37.8621,-16.5999 -37.8621,-16.5999 0,0 107.1268,3.41671 111.505,-13.40585 4.3783,-16.82255 -51.471,-37.69745 -51.471,-37.69745 l -120.823,14.23184 -310.62,336.267235 z"
           style="fill:#2d5016;stroke:none;stroke-width:1.68004px;stroke-linecap:butt;stroke-linejoin:miter;stroke-opacity:1" />
      </g>
    </g>
    <path
       style="fill:#008000;fill-opacity:1;stroke:#000000;stroke-width:0;stroke-linecap:butt;stroke-linejoin:miter;stroke-miterlimit:4;stroke-dasharray:none;stroke-opacity:1"
       d="m -123.48942,413.91129 3.94072,-6.82461 c 0,0 8.20115,-14.62612 4.13541,-34.85954 3.68817,14.95808 8.96008,39.17547 8.96008,39.17547 0,0 9.352414,-22.9454 9.821624,-40.66947 0.81383,25.60137 7.7539,41.99744 7.7539,41.99744 0,0 8.34661,-7.84344 5.85851,-41.33344 3.3704,19.1313 6.89236,42.99344 6.89236,42.99344 0,0 -0.17316,-23.39602 2.41233,-45.31741 1.0347,27.54596 8.61546,39.67348 8.61546,39.67348 0,0 2.52056,-2.22814 6.20313,-40.33748 0.0641,37.91765 9.6493,44.32141 9.6493,44.32141 0,0 -1.62403,0.9171 3.84996,-43.66347 -0.61807,29.36767 6.48861,42.3355 6.48861,42.3355 0,0 11.97245,4.4699 6.35601,-41.18533 6.81135,23.36316 11.90874,42.8453 11.90874,42.8453 0,0 1.04904,-12.04293 3.78364,-39.21979 2.73458,23.061 8.6226102,31.58389 8.6226102,31.58389 0,0 11.88818,12.93149 4.31999,-33.00912 9.7332,23.31251 14.2893798,46.62095 14.2893798,46.62095 0,0 2.42194,-19.24481 6.01858,-46.36952 3.10923,35.79003 11.55695,40.39359 11.55695,40.39359 0,0 7.40484,-4.34438 4.01,-39.24339 5.62133,26.37239 7.70702,48.87126 7.70702,48.87126 L -128.8534,421.69448 Z"
       id="path1486"
       inkscape:connector-curvature="0"
       sodipodi:nodetypes="cccccccccccccccccccccccccc" />
    <path
       sodipodi:nodetypes="cccccccccccccccccccccccccc"
       inkscape:connector-curvature="0"
       id="path1484"
       d="m 379.31139,402.12296 3.9407,-6.82461 c 0,0 8.20116,-14.62609 4.13541,-34.85954 3.68819,14.95809 8.96009,39.17548 8.96009,39.17548 0,0 9.35241,-22.94538 9.82162,-40.66945 0.81384,25.60135 7.75388,41.99744 7.75388,41.99744 0,0 8.34663,-7.84346 5.85851,-41.33344 3.37042,19.13131 6.89237,42.99341 6.89237,42.99341 0,0 -0.17317,-23.39599 2.41234,-45.31738 1.03471,27.54593 8.61544,39.67345 8.61544,39.67345 0,0 2.52058,-2.22811 6.20316,-40.33745 0.0641,37.91765 9.6493,44.32141 9.6493,44.32141 0,0 -1.62404,0.91708 3.84993,-43.66349 -0.61804,29.36766 6.48864,42.3355 6.48864,42.3355 0,0 11.97245,4.4699 6.356,-41.18531 6.81133,23.36316 11.90874,42.8453 11.90874,42.8453 0,0 1.04902,-12.04296 3.78362,-39.21982 2.7346,23.06101 8.62261,31.58392 8.62261,31.58392 0,0 11.88821,12.93146 4.31999,-33.00912 9.73322,23.31249 14.2894,46.62093 14.2894,46.62093 0,0 2.42195,-19.24481 6.01859,-46.3695 3.10922,35.79 11.55692,40.39359 11.55692,40.39359 0,0 7.40486,-4.3444 4.00999,-39.24339 5.62137,26.37237 7.70705,48.87126 7.70705,48.87126 l -168.51831,-0.99599 z"
       style="fill:#008000;fill-opacity:1;stroke:#000000;stroke-width:0;stroke-linecap:butt;stroke-linejoin:miter;stroke-miterlimit:4;stroke-dasharray:none;stroke-opacity:1" />
    <path
       style="fill:#000000;stroke:#000000;stroke-width:0.264583px;stroke-linecap:butt;stroke-linejoin:miter;stroke-opacity:1"
       d="m 343.10472,260.47894 3.43551,-48.3421 2.4358,-34.68331 9.9313,-47.22966 19.43409,-104.741163 -3.53351,0.67141 -25.61759,136.297803 -19.43399,-182.625633 h -2.65009 l 0.88328,40.28506 -12.3671,-44.31358 -6.1836,9.39985 15.0173,42.97075 6.18349,12.08553 5.72072,52.75736 7.5298,69.440663 -15.01719,230.96776 -4.41682,34.91373 13.25052,-4.02852 -0.88342,-40.28504 5.66251,-88.22915 1.4044,-21.88339"
       id="path1362"
       inkscape:connector-curvature="0"
       sodipodi:nodetypes="cccccccccccccccccccccc" />
    <path
       style="fill:#008000;fill-opacity:1;stroke:#000000;stroke-width:0;stroke-linecap:butt;stroke-linejoin:miter;stroke-miterlimit:4;stroke-dasharray:none;stroke-opacity:1"
       d="m 201.57713,392.76854 3.94074,-6.82461 c 0,0 8.20113,-14.62611 4.13541,-34.85954 3.68816,14.95808 8.96006,39.17548 8.96006,39.17548 0,0 9.35241,-22.94541 9.82162,-40.66945 0.81383,25.60134 7.75391,41.99742 7.75391,41.99742 0,0 8.3466,-7.84345 5.85851,-41.33345 3.37039,19.13131 6.89237,42.99344 6.89237,42.99344 0,0 -0.17317,-23.39599 2.41231,-45.31741 1.03471,27.54596 8.61547,39.67348 8.61547,39.67348 0,0 2.52058,-2.22814 6.20313,-40.33745 0.0641,37.91765 9.6493,44.32139 9.6493,44.32139 0,0 -1.62401,0.91709 3.84995,-43.66348 -0.61807,29.36767 6.48862,42.33551 6.48862,42.33551 0,0 11.97244,4.46989 6.356,-41.18531 6.81136,23.36316 11.90877,42.84527 11.90877,42.84527 0,0 1.04902,-12.04293 3.78362,-39.21979 2.7346,23.061 8.62261,31.58389 8.62261,31.58389 0,0 11.8882,12.93149 4.31998,-33.00912 9.7332,23.31251 14.28938,46.62096 14.28938,46.62096 0,0 2.42194,-19.24482 6.01858,-46.3695 3.10926,35.79 11.55695,40.39356 11.55695,40.39356 0,0 7.40484,-4.34437 4.01,-39.24339 5.62134,26.37239 7.70702,48.87126 7.70702,48.87126 l -168.51828,-0.99597 z"
       id="path1482"
       inkscape:connector-curvature="0"
       sodipodi:nodetypes="cccccccccccccccccccccccccc" />
    <path
       style="fill:#008000;stroke:none;stroke-width:0.264583px;stroke-linecap:butt;stroke-linejoin:miter;stroke-opacity:1"
       d="m -242.15456,409.7251 460.70583,-54.95729 198.78175,29.23262 265.43202,-14.03167 18.7089,182.41145 -983.38484,47.94145 z"
       id="path1480"
       inkscape:connector-curvature="0" />
    <path
       sodipodi:nodetypes="cccccccccccccccccccccccccccccccccccc"
       inkscape:connector-curvature="0"
       id="path1360"
       d="m 81.874324,15.504507 -3.53343,0.67143 -25.61762,136.297803 -19.43407,-182.625653 h -2.6501 l 0.88337,40.28509 -12.36713,-44.31359 -6.18355,9.39986 15.01722,42.97071 6.18355,12.08553 5.72074,52.75739 7.52978,69.440663 -15.01725,230.96773 -4.41682,34.91373 13.25049,-4.02852 -0.88336,-40.28503 5.66248,-88.22912 1.40446,-21.8834 56.535396,-44.31358 46.81842,-60.42763 5.30018,-130.255043 17.66734,-45.65642 -2.65009,-5.37136 -15.90064,38.94225 -18.55068,-34.91373 -3.09178,5.37133 18.9924,36.92798 -6.18356,127.569413 -13.69218,23.4996 -23.58329,30.50865 -25.443526,21.86194 -37.00341,22.8282 3.43551,-48.34207 2.43573,-34.68333 9.93137,-47.22964 z"
       style="fill:#225500;stroke:#000000;stroke-width:0.264583px;stroke-linecap:butt;stroke-linejoin:miter;stroke-opacity:1" />
    <path
       style="fill:#000000;stroke:#000000;stroke-width:0.264583px;stroke-linecap:butt;stroke-linejoin:miter;stroke-opacity:1"
       d="m 502.82703,-17.059723 3.53346,0.67143 25.61762,136.297803 19.43407,-182.625653 h 2.65009 l -0.88336,40.28509 12.36713,-44.31358 6.18355,9.39985 -15.01722,42.97071 -6.18355,12.0855304 -5.72074,52.7573896 -7.52978,69.440663 15.01725,230.96773 4.41682,34.91373 -13.25049,-4.02852 0.88336,-40.28503 L 537.2783,231.3649 480.7429,187.05132 433.92448,126.62369 428.6243,-3.6313526 410.95695,-49.287773 l 2.6501,-5.37136 15.90064,38.94225 18.55067,-34.91373 3.09179,5.37133 -18.99242,36.9279804 6.18357,127.5694126 13.69219,23.4996 23.58329,30.50866 25.44353,21.86193 37.0034,22.8282 -3.4355,-48.34207 -2.43573,-34.68333 -9.93138,-47.229633 z"
       id="path1358"
       inkscape:connector-curvature="0"
       sodipodi:nodetypes="ccccccccccccccccccccccccccccccccccc" />
    <path
       style="opacity:1;fill:#338000;fill-opacity:1;fill-rule:evenodd;stroke:none;stroke-width:0;stroke-linejoin:round;stroke-miterlimit:4;stroke-dasharray:none;stroke-dashoffset:500;stroke-opacity:1"
       d="m -130.73238,416.44996 c 85.258664,-17.13394 217.686434,3.5256 342.30471,0 124.61827,-3.5256 334.43058,-83.22619 405.1432,-22.93768 9.52775,81.31472 4.96096,296.27848 4.96096,296.27848 h -767.29168 c 0,0 -40.61023,-204.5971 14.88281,-273.3408 z"
       id="rect855"
       inkscape:connector-curvature="0"
       sodipodi:nodetypes="czcccc" />
    <path
       sodipodi:nodetypes="sssssssssssssscssssss"
       inkscape:connector-curvature="0"
       style="fill:#445500;fill-opacity:1;fill-rule:evenodd;stroke-width:0.264583"
       d="m -318.02416,0.56062744 c 0.0244,6.89604996 11.73153,350.17316256 29.19567,352.12573256 23.91675,2.67398 32.57926,-332.901743 49.00514,-337.600053 32.00285,-9.1538196 31.30794,32.05736 47.30441,55.08548 62.98678,90.674243 47.35089,338.745303 81.38327,318.157303 31.538884,-19.07952 -12.47599,-392.4325626 92.661494,-410.633303 97.95478,-16.95725 61.7305,323.146523 88.75766,322.414133 29.43793,-0.79772 37.036686,-315.560343 60.858576,-319.525913 108.72592,-18.0992 52.53294,484.276743 74.95302,477.075423 29.49509,-9.47381 10.90568,-472.234693 75.32603,-461.2348226 113.34493,19.3538196 66.89122,343.3215626 85.32365,338.0237326 33.09176,-9.51116 -18.58915,-299.999293 77.33573,-363.407063 95.92476,-63.40782 59.86494,393.314633 88.16379,395.902103 22.87889,2.0919 -13.58609,-374.8157926 60.94497,-409.645723 23.08768,-10.78934 51.01418,-6.64033 76.26109,-8.52046 -2.5543,-178.015987 -24.7193,-224.272457 -43.67289,-236.609817 -37.35276,-24.31364 -174.33541,-139.2615 -239.16407,-139.90982 -102.42883,-1.02461 -146.16845,61.24628 -229.43857,61.54031 -78.053766,0.27543 -120.538686,-44.72439 -213.365816,-46.33209 -57.910454,-1.00287 -130.752454,190.95771 -218.542044,167.92738 -111.23397,-29.1805 -43.60584,155.975077 -43.29111,245.16746744 z"
       id="path1057" />
    <path
       id="path1364"
       d="M 602.92814,-3.5128426 C 602.90964,1.6894174 594.08132,260.65226 580.91153,262.12525 562.87581,264.14249 556.34335,10.989447 543.95651,7.4450874 519.823,0.53959744 520.34703,31.628687 508.28404,49.000727 460.78535,117.40394 472.57648,304.54484 446.91248,289.01359 423.12885,274.62028 456.32067,-7.0313526 377.036,-20.761693 303.16779,-33.554003 330.4847,223.01494 310.1034,222.46244 287.90409,221.86064 282.17385,-15.591313 264.20962,-18.582853 182.21884,-32.236643 224.59424,346.74784 207.68716,341.31528 185.44477,334.16841 199.46314,-14.931123 150.88344,-6.6329926 65.409434,7.9672374 100.44042,252.3634 86.540404,248.36679 61.585754,241.19171 100.55858,22.052047 28.221164,-25.781823 c -72.33738,-47.83386 -45.14446,296.710423 -66.48477,298.662363 -17.25308,1.57808 10.24536,-282.7551326 -45.95889,-309.030293 -17.410544,-8.13925 -38.470084,-5.00941 -57.508914,-6.42771 1.9262,-134.292447 18.64096,-169.187497 32.93396,-178.494527 28.167924,-18.34183 131.467224,-105.05675 180.354844,-105.54588 77.242116,-0.77286 110.226366,46.20331 173.020806,46.42506 58.86074,0.20787 90.89882,-33.73936 160.90021,-34.95216 43.67059,-0.75656 98.60111,144.0554 164.80367,126.68175 83.88212,-22.01332 32.8834,117.665087 32.64606,184.9503774 z"
       style="fill:#677821;fill-opacity:1;fill-rule:evenodd;stroke-width:0.264583"
       inkscape:connector-curvature="0"
       sodipodi:nodetypes="sssssssssssssscssssss" />
    <rect
       style="opacity:0;fill:#370000;fill-opacity:1;fill-rule:evenodd;stroke:none;stroke-width:0;stroke-linejoin:round;stroke-miterlimit:4;stroke-dasharray:none;stroke-dashoffset:500;stroke-opacity:1"
       id="rect836"
       width="684.60938"
       height="178.59375"
       x="-79.469353"
       y="509.54327" />
    <rect
       style="opacity:0;fill:#370000;fill-opacity:1;fill-rule:evenodd;stroke:none;stroke-width:0;stroke-linejoin:round;stroke-miterlimit:4;stroke-dasharray:none;stroke-dashoffset:500;stroke-opacity:1"
       id="rect838"
       width="578.77606"
       height="218.28125"
       x="-147.26881"
       y="504.58234" />
    <rect
       style="opacity:0;fill:#000000;fill-opacity:1;fill-rule:evenodd;stroke:none;stroke-width:0;stroke-linejoin:round;stroke-miterlimit:4;stroke-dasharray:none;stroke-dashoffset:500;stroke-opacity:1"
       id="rect842"
       width="831.78387"
       height="274.50522"
       x="-172.0735"
       y="400.40265" />
    <path
       style="opacity:1;fill:#225500;fill-opacity:1;fill-rule:evenodd;stroke:none;stroke-width:0;stroke-linejoin:round;stroke-miterlimit:4;stroke-dasharray:none;stroke-dashoffset:500;stroke-opacity:1"
       d="M -86.083916,603.80106 H 573.72076 v 97.5652 H -86.083916 Z"
       id="rect852"
       inkscape:connector-curvature="0" />
    <path
       style="fill:#225500;stroke:#000000;stroke-width:0;stroke-linecap:butt;stroke-linejoin:miter;stroke-miterlimit:4;stroke-dasharray:none;stroke-opacity:1"
       d="m -74.378646,606.75116 3.94073,-6.8246 c 0,0 8.20113,-14.6261 4.13541,-34.8595 3.68816,14.9581 8.96006,39.1755 8.96006,39.1755 0,0 9.35241,-22.9454 9.82163,-40.6695 0.81383,25.6014 7.7539,41.9974 7.7539,41.9974 0,0 8.3466,-7.8434 5.85851,-41.3334 3.3704,19.1313 6.89237,42.9934 6.89237,42.9934 0,0 -0.17317,-23.396 2.41231,-45.31737 1.03471,27.54597 8.61547,39.67347 8.61547,39.67347 0,0 2.52058,-2.2281 6.2031302,-40.33747 0.0641,37.91767 9.64929999,44.32137 9.64929999,44.32137 0,0 -1.62400999,0.9171 3.84995001,-43.66343 -0.61806,29.36763 6.4886198,42.33553 6.4886198,42.33553 0,0 11.97245,4.4699 6.35601,-41.18536 6.81135,23.36316 11.90876,42.84526 11.90876,42.84526 0,0 1.04902,-12.0429 3.78362,-39.21975 2.7346,23.06105 8.62261,31.58385 8.62261,31.58385 0,0 11.88821,12.9315 4.31999,-33.00908 9.7332,23.31248 14.28938,46.62098 14.28938,46.62098 0,0 2.42194,-19.2449 6.01858,-46.36955 3.10925,35.79005 11.55695,40.39355 11.55695,40.39355 0,0 7.40486,-4.3443 4.00999,-39.24335 5.62134,26.37235 7.70703,48.87125 7.70703,48.87125 l -168.51828,-0.996 z"
       id="path862"
       inkscape:connector-curvature="0"
       sodipodi:nodetypes="cccccccccccccccccccccccccc" />
    <path
       sodipodi:nodetypes="cccccccccccccccccccccccccc"
       inkscape:connector-curvature="0"
       id="path991"
       d="m 84.646734,606.75116 3.9407,-6.8246 c 0,0 8.20116,-14.6261 4.13541,-34.8595 3.68819,14.9581 8.960086,39.1755 8.960086,39.1755 0,0 9.35241,-22.9454 9.82162,-40.6695 0.81384,25.6014 7.75391,41.9974 7.75391,41.9974 0,0 8.3466,-7.8434 5.85851,-41.3334 3.37039,19.1313 6.89234,42.9934 6.89234,42.9934 0,0 -0.17314,-23.396 2.41234,-45.31737 1.03471,27.54597 8.61547,39.67347 8.61547,39.67347 0,0 2.52055,-2.2281 6.20313,-40.33747 0.0641,37.91767 9.6493,44.32137 9.6493,44.32137 0,0 -1.62404,0.9171 3.84993,-43.66343 -0.61804,29.36763 6.48864,42.33553 6.48864,42.33553 0,0 11.97245,4.4699 6.356,-41.18536 6.81136,23.36316 11.90874,42.84526 11.90874,42.84526 0,0 1.04905,-12.0429 3.78365,-39.21975 2.73457,23.06105 8.62261,31.58385 8.62261,31.58385 0,0 11.88818,12.9315 4.31996,-33.00908 9.73323,23.31248 14.2894,46.62098 14.2894,46.62098 0,0 2.42195,-19.2449 6.01859,-46.36955 3.10922,35.79005 11.55692,40.39355 11.55692,40.39355 0,0 7.40486,-4.3443 4.01,-39.24335 5.62136,26.37235 7.70704,48.87125 7.70704,48.87125 l -168.518276,-0.996 z"
       style="fill:#225500;stroke:#000000;stroke-width:0;stroke-linecap:butt;stroke-linejoin:miter;stroke-miterlimit:4;stroke-dasharray:none;stroke-opacity:1" />
    <path
       style="fill:#225500;stroke:#000000;stroke-width:0;stroke-linecap:butt;stroke-linejoin:miter;stroke-miterlimit:4;stroke-dasharray:none;stroke-opacity:1"
       d="m 234.31766,605.58186 3.94073,-6.8246 c 0,0 8.20113,-14.6261 4.13541,-34.8595 3.68816,14.9581 8.96006,39.1755 8.96006,39.1755 0,0 9.35241,-22.9454 9.82162,-40.6695 0.81383,25.6014 7.75391,41.9974 7.75391,41.9974 0,0 8.3466,-7.8434 5.85851,-41.3334 3.37039,19.1313 6.89237,42.9934 6.89237,42.9934 0,0 -0.17317,-23.396 2.41231,-45.31737 1.03471,27.54597 8.61547,39.67347 8.61547,39.67347 0,0 2.52058,-2.2281 6.20313,-40.33747 0.0641,37.91767 9.6493,44.32137 9.6493,44.32137 0,0 -1.62401,0.9171 3.84995,-43.66343 -0.61807,29.36763 6.48862,42.33553 6.48862,42.33553 0,0 11.97245,4.4699 6.356,-41.18536 6.81136,23.36316 11.90877,42.84526 11.90877,42.84526 0,0 1.04902,-12.0429 3.78362,-39.21975 2.7346,23.06105 8.62261,31.58385 8.62261,31.58385 0,0 11.8882,12.9315 4.31998,-33.00908 9.7332,23.31248 14.28938,46.62098 14.28938,46.62098 0,0 2.42195,-19.2449 6.01859,-46.36955 3.10925,35.79005 11.55694,40.39355 11.55694,40.39355 0,0 7.40484,-4.3443 4.01,-39.24335 5.62134,26.37235 7.70702,48.87125 7.70702,48.87125 l -168.51828,-0.996 z"
       id="path993"
       inkscape:connector-curvature="0"
       sodipodi:nodetypes="cccccccccccccccccccccccccc" />
    <path
       sodipodi:nodetypes="cccccccccccccccccccccccccc"
       inkscape:connector-curvature="0"
       id="path995"
       d="m 365.27974,604.41256 3.9407,-6.8246 c 0,0 8.20116,-14.6261 4.13541,-34.8595 3.68816,14.9581 8.96009,39.1755 8.96009,39.1755 0,0 9.35241,-22.9454 9.82163,-40.6695 0.81383,25.6014 7.75387,41.9974 7.75387,41.9974 0,0 8.34663,-7.8434 5.85851,-41.3334 3.37043,19.1313 6.89237,42.9934 6.89237,42.9934 0,0 -0.17317,-23.396 2.41234,-45.31737 1.03471,27.54597 8.61544,39.67347 8.61544,39.67347 0,0 2.52058,-2.2281 6.20316,-40.33747 0.0641,37.91767 9.6493,44.32137 9.6493,44.32137 0,0 -1.62404,0.9171 3.84993,-43.66343 -0.61807,29.36763 6.48864,42.33553 6.48864,42.33553 0,0 11.97242,4.4699 6.35601,-41.18536 6.81132,23.36316 11.90873,42.84526 11.90873,42.84526 0,0 1.04902,-12.0429 3.78362,-39.21975 2.7346,23.06105 8.62262,31.58385 8.62262,31.58385 0,0 11.8882,12.9315 4.31998,-33.00908 9.7332,23.31248 14.2894,46.62098 14.2894,46.62098 0,0 2.42195,-19.2449 6.01856,-46.36955 3.10925,35.79005 11.55695,40.39355 11.55695,40.39355 0,0 7.40487,-4.3443 4.01,-39.24335 5.62136,26.37235 7.70704,48.87125 7.70704,48.87125 l -168.51831,-0.996 z"
       style="fill:#225500;stroke:#000000;stroke-width:0;stroke-linecap:butt;stroke-linejoin:miter;stroke-miterlimit:4;stroke-dasharray:none;stroke-opacity:1" />
    <path
       style="fill:#225500;stroke:#000000;stroke-width:0;stroke-linecap:butt;stroke-linejoin:miter;stroke-miterlimit:4;stroke-dasharray:none;stroke-opacity:1"
       d="m 413.22121,604.41256 3.9407,-6.8246 c 0,0 8.20116,-14.6261 4.13541,-34.8595 3.68819,14.9581 8.96009,39.1755 8.96009,39.1755 0,0 9.35241,-22.9454 9.82162,-40.6695 0.81384,25.6014 7.75388,41.9974 7.75388,41.9974 0,0 8.34663,-7.8434 5.85851,-41.3334 3.37042,19.1313 6.89237,42.9934 6.89237,42.9934 0,0 -0.17317,-23.396 2.41234,-45.31737 1.03471,27.54597 8.61544,39.67347 8.61544,39.67347 0,0 2.52058,-2.2281 6.20316,-40.33747 0.0641,37.91767 9.6493,44.32137 9.6493,44.32137 0,0 -1.62404,0.9171 3.84993,-43.66343 -0.61804,29.36763 6.48864,42.33553 6.48864,42.33553 0,0 11.97245,4.4699 6.356,-41.18536 6.81133,23.36316 11.90874,42.84526 11.90874,42.84526 0,0 1.04902,-12.0429 3.78362,-39.21975 2.7346,23.06105 8.62261,31.58385 8.62261,31.58385 0,0 11.88821,12.9315 4.31999,-33.00908 9.73323,23.31248 14.2894,46.62098 14.2894,46.62098 0,0 2.42195,-19.2449 6.01856,-46.36955 3.10925,35.79005 11.55695,40.39355 11.55695,40.39355 0,0 7.40486,-4.3443 4.01,-39.24335 5.62136,26.37235 7.70704,48.87125 7.70704,48.87125 l -168.51831,-0.996 z"
       id="path997"
       inkscape:connector-curvature="0"
       sodipodi:nodetypes="cccccccccccccccccccccccccc" />
    <path
       sodipodi:nodetypes="cccccccccccccccccccccccccc"
       inkscape:connector-curvature="0"
       id="path999"
       d="m -206.51003,600.90466 3.94072,-6.8246 c 0,0 8.20116,-14.6261 4.13542,-34.85953 3.68817,14.95813 8.96008,39.17553 8.96008,39.17553 0,0 9.35241,-22.9455 9.82161,-40.6695 0.81383,25.6014 7.75391,41.9974 7.75391,41.9974 0,0 8.3466,-7.8434 5.8585,-41.33342 3.37041,19.13132 6.89237,42.99342 6.89237,42.99342 0,0 -0.17317,-23.396 2.41233,-45.31739 1.03471,27.54599 8.61546,39.67349 8.61546,39.67349 0,0 2.52057,-2.2282 6.20314,-40.33749 0.0641,37.91769 9.6493,44.32139 9.6493,44.32139 0,0 -1.62403,0.9171 3.84994,-43.66345 -0.61806,29.36765 6.48862,42.33555 6.48862,42.33555 0,0 11.97244,4.4698 6.35601,-41.18538 6.81135,23.36318 11.90875,42.84528 11.90875,42.84528 0,0 1.04903,-12.0429 3.783624,-39.21978 2.7346,23.06098 8.62262,31.58388 8.62262,31.58388 0,0 11.8882,12.9315 4.31998,-33.00911 9.73321,23.31251 14.2894,46.62101 14.2894,46.62101 0,0 2.42194,-19.2449 6.01856,-46.36955 3.10925,35.79005 11.55694,40.39355 11.55694,40.39355 0,0 7.40487,-4.3444 4.01,-39.24338 5.62137,26.37238 7.70705,48.87128 7.70705,48.87128 l -168.518304,-0.996 z"
       style="fill:#225500;stroke:#000000;stroke-width:0;stroke-linecap:butt;stroke-linejoin:miter;stroke-miterlimit:4;stroke-dasharray:none;stroke-opacity:1" />
    <g
       id="g1083"
       transform="matrix(0.10595168,0,0,0.10595168,-753.97505,-182.88876)"
       style="stroke-width:9.43826">
      <path
         inkscape:connector-curvature="0"
         id="path1069"
         d="M 11314.53,2224.2652 A 2404.5457,1298.2247 0 0 1 8909.9845,3522.4897 2404.5457,1298.2247 0 0 1 6505.4383,2224.2652 2404.5457,1298.2247 0 0 1 8909.9845,926.04036 2404.5457,1298.2247 0 0 1 11314.53,2224.2652 Z"
         style="opacity:0;fill:#000000;fill-rule:evenodd;stroke-width:2.49721" />
      <path
         style="fill:#222b00;stroke:#000000;stroke-width:2.49721px;stroke-linecap:butt;stroke-linejoin:miter;stroke-opacity:1"
         d="m 8003.6461,204.39576 -158.7501,2235.72934 79.1235,1692.8043 -132.0402,979.4875 -687.9167,806.9792 2460.6251,66.1458 c 0,0 -238.125,-291.0417 -502.7083,-833.4376 -264.5833,-542.3958 171.9791,-1045.1041 224.8958,-1084.7916 52.9167,-39.6875 568.8541,-1098.0209 568.8541,-1098.0209 l -489.4791,-171.9792 -252.6157,751.4905 -660.1968,716.9471 -158.7501,-899.5834 17.6845,-1811.7758 1344.9198,-291.6618 c 0,0 -330.7292,-357.18757 -515.9375,-185.2084 -84.3452,78.3206 -890.6637,220.3873 -938.4181,-96.96307 -102.005,-677.87046 -199.2902,-776.16197 -199.2902,-776.16197 z"
         id="path1073"
         inkscape:connector-curvature="0"
         sodipodi:nodetypes="ccccccsscccccccssc" />
      <path
         inkscape:connector-curvature="0"
         id="path1071"
         d="m 11552.655,3732.3901 c -353.27,481.2081 -181.55,-381.8065 -522.317,-451.9956 -178.773,-36.8225 -109.839,889.2005 -314.249,999.5622 -115.009,62.0934 -361.951,-971.3273 -580.837,-883.0898 -302.1847,121.8169 -215.1877,1431.3713 -469.6327,1218.7062 -283.902,-237.285 -399.265,-1463.5002 -649.8014,-1463.5002 -349.1439,10e-5 -293.5837,1427.4404 -604.9903,1350.3837 -257.39,-63.6904 -573.7226,-1223.5781 -817.468,-1201.4581 -140.7714,12.7751 -165.8691,1224.7192 -262.5181,1260.8325 -253.7536,94.8164 -454.9864,-976.974 -454.9865,-1226.3159 -10e-5,-344.3107 253.3353,-674.5193 704.2752,-917.9837 450.9399,-243.4644 1062.5457,-380.2412 1700.2711,-380.2411 637.725,0 1249.3307,136.7769 1700.2707,380.2413 450.94,243.4643 905.005,861.2316 571.983,1314.8585 z"
         style="fill:#89a02c;fill-rule:evenodd;stroke-width:2.49721"
         sodipodi:nodetypes="ssssssssssssss" />
      <path
         inkscape:connector-curvature="0"
         id="path1065"
         d="m 11197.699,2389.0417 c -196.067,292.2934 -213.289,-973.7409 -637.737,-1028.935 -143.188,-18.6197 135.31,1572.089 -289.568,1673.8875 -518.9964,124.3487 -199.988,-1202.1507 -579.3409,-1203.8056 -782.3506,-3.4131 -324.8051,1419.1921 -783.9152,1497.8494 -544.8738,93.3508 -436.5124,-1921.203 -662.6574,-1901.6609 -571.8655,49.4172 -117.4333,1809.3314 -529.3596,1809.3314 -779.7848,-1e-4 -323.7775,-1536.142 -1020.6895,-1537.8602 -239.473,-0.5904 -368.862,1084.6152 -526.3231,1092.1289 -292.1936,13.9429 -347.0947,-470.0753 -506.8155,-718.4356 -370.4167,-575.9848 190.7058,-1344.38013 742.097,-1676.82745 551.3911,-332.447313 1299.238,-519.21427 2079.0228,-519.21427 779.7848,0 1527.6314,186.766927 2079.0234,519.21425 551.391,332.44732 1297.721,1008.23847 636.263,1994.32757 z"
         style="fill:#447821;fill-rule:evenodd;stroke-width:2.49721"
         sodipodi:nodetypes="ssssssssssssss" />
      <path
         sodipodi:nodetypes="ssssssssssssssssss"
         style="fill:#225500;fill-rule:evenodd;stroke-width:2.49721"
         d="m 11250.615,2071.5417 c -61.293,91.3746 -158.804,-799.7988 -225.726,-737.3187 -102.035,95.2616 -168.008,1128.181 -201.601,1184.111 -58.234,96.9537 -146.866,-1522.54696 -236.868,-1528.64393 -127.648,-8.64723 -194.285,1441.65923 -282.915,1486.33943 -147.567,74.3913 -120.727,-1597.09751 -435.769,-1625.23971 -310.0359,-27.695 -35.6686,1524.73731 -166.1962,1561.43351 -149.9308,42.1513 -107.3838,-1307.984 -486.7367,-1309.6389 -782.3506,-3.413 -469.4363,1570.0947 -678.0819,1550.7661 -255.9366,-23.7096 -39.6374,-1616.9322 -265.7824,-1597.3901 -571.8655,49.4173 -572.1465,1257.3959 -701.3388,1293.3939 -237.3889,66.1458 -32.7344,-1100.2977 -729.6478,-1101.2977 -411.4522,-0.5904 -196.8828,1693.1569 -354.3439,1700.6706 -292.1936,13.9429 337.5809,-1354.8944 -797.8572,-1247.6023 -565.1299,53.4014 190.7058,-1344.38011 742.097,-1676.827413 551.3911,-332.447307 1299.238,-519.214307 2079.0228,-519.214307 779.7848,0 1527.6321,186.7669 2079.0231,519.214207 551.391,332.447403 1324.179,1061.154813 662.721,2047.244313 z"
         id="path1067"
         inkscape:connector-curvature="0" />
    </g>
    <g
       id="g1042"
       transform="matrix(0.21473841,0,0,0.21473841,346.59462,170.88753)"
       style="stroke-width:4.65683">
      <path
         sodipodi:nodetypes="ssssssssssss"
         inkscape:connector-curvature="0"
         style="fill:#7fff2a;fill-rule:evenodd;stroke-width:1.23212"
         d="m 1800.7285,353.12658 c 0,27.72519 -68.467,244.19536 -174.5257,264.58358 -42.2062,8.11352 -121.8577,-215.58742 -157.4569,-188.21301 -148.2646,114.00968 -128.7592,365.05467 -255.2895,328.16759 -183.4627,-53.48448 -231.80759,-300.7312 -303.63549,-253.61825 -163.1496,107.0121 -0.8961,330.83346 -231.6245,330.83346 -230.7284,-10e-6 -63.7977,-387.52396 -226.9473,-494.53607 -163.1495,-107.0121 -206.678,351.25188 -306.2554,237.2891 -205.797496,-235.52786 7.4666,-520.983901 170.6162,-627.996001 163.1495,-107.012099 384.4278,-167.130869 615.1562,-167.130879 230.72839,0 452.00669,60.11877 615.15629,167.130869 163.1496,107.0121 254.8061,252.151641 254.8061,403.489611 z"
         id="path1018" />
      <path
         style="fill:#112b00;stroke:#000000;stroke-width:1.23212px;stroke-linecap:butt;stroke-linejoin:miter;stroke-opacity:1"
         d="m 1005.2594,609.27896 13.2291,1.65365 95.9115,335.69011 72.7605,-449.79168 h 9.9218 l -3.3073,99.21876 46.3021,-109.14063 23.1511,23.15104 -56.224,105.83334 -23.151,29.76562 -49.6095,300.96355 56.224,568.85418 16.5365,85.9896 -49.6094,-9.9219 3.3073,-99.2187 -26.4584,-271.198 -211.66659,-109.1406 -175.2865,-148.82812 -19.8437,-320.8073 -66.1459,-112.44792 9.9219,-13.22917 59.5313,95.91146 69.4531,-85.98958 11.5756,13.22916 -71.1069,90.95053 23.151,314.19272 51.2631,57.87762 88.295,75.1402 95.2597,53.8442 138.53939,56.2239 -12.8624,-119.0625 -9.1193,-85.42212 -37.1827,-116.32266 z"
         id="path1020"
         inkscape:connector-curvature="0"
         sodipodi:nodetypes="cccccccccccccccccccccccccccccccccc" />
      <path
         id="path1022"
         d="m 1796.0513,100.55687 c 0,27.72519 -68.467,244.19536 -174.5257,264.58358 -42.2062,8.11352 -121.8577,-215.58742 -157.4569,-188.21301 -148.2646,114.00968 -128.7592,365.05467 -255.2895,328.16759 -183.4627,-53.48448 -231.80759,-300.7312 -303.63549,-253.61825 -163.1496,107.0121 -0.8961,330.83346 -231.6245,330.83346 -230.7284,-10e-6 -63.7977,-387.52396 -226.9473,-494.536061 -163.1495,-107.0121 -206.678,351.251871 -306.2554,237.289091 -205.797496,-235.527851 7.4666,-520.9839 170.6162,-627.996 163.1495,-107.0121 384.4278,-167.13087 615.1562,-167.13088 230.72839,0 452.00669,60.11877 615.15629,167.13087 163.1496,107.0121 254.8061,252.151649 254.8061,403.48961 z"
         style="fill:#225500;fill-rule:evenodd;stroke-width:1.23212"
         inkscape:connector-curvature="0"
         sodipodi:nodetypes="ssssssssssss" />
      <path
         sodipodi:nodetypes="ssssssssssssscssss"
         inkscape:connector-curvature="0"
         style="fill:#338000;fill-rule:evenodd;stroke-width:1.23212"
         d="m 1739.9247,133.29739 c 0,11.70097 -17.81,594.22247 -47.4323,597.64006 -40.567,4.68031 -43.0664,-605.81603 -70.9668,-613.68949 -268.3993,-75.742081 -157.7692,718.77844 -230.3375,675.22992 -53.631,-32.18412 18.8201,-665.93012 -159.6912,-696.182371 -166.316,-28.18551 -102.8125,548.664681 -148.6778,547.583841 -49.9565,-1.17726 -64.7351,-535.20151 -105.18099,-541.78737 -184.5998,-30.058581 -86.2408,822.00544 -124.3274,809.92092 -50.1054,-15.89795 -21.3328,-801.1934 -130.5785,-782.14376 -192.2133,33.5171 -111.4486,582.92736 -142.7574,574.04874 -56.2086,-15.93983 29.7467,-509.1316 -133.4029,-616.143701 -163.1495,-107.0121 -99.2267,667.710601 -147.2301,672.270251 -38.8096,3.68641 20.8093,-636.04565 -105.8672,-694.696641 -39.2407,-18.16835 -91.4558,52.044601 -134.307196,49.005731 3.2684,-302.06178 219.677796,-396.23958 251.765296,-417.28625 163.1495,-107.01205 384.4278,-167.13087 615.1562,-167.13088 230.72839,0 452.00669,60.11877 615.15629,167.13087 163.1496,107.0121 198.6795,284.892169 198.6795,436.23013 z"
         id="path1024" />
      <path
         id="path1026"
         d="m 1800.7285,353.12658 c 0,27.72519 -68.467,244.19536 -174.5257,264.58358 -42.2062,8.11352 -121.8577,-215.58742 -157.4569,-188.21301 -148.2646,114.00968 -128.7592,365.05467 -255.2895,328.16759 -183.4627,-53.48448 -231.80759,-300.7312 -303.63549,-253.61825 -163.1496,107.0121 -0.8961,330.83346 -231.6245,330.83346 -230.7284,-10e-6 -63.7977,-387.52396 -226.9473,-494.53607 -163.1495,-107.0121 -206.678,351.25188 -306.2554,237.2891 -205.797496,-235.52786 7.4666,-520.983901 170.6162,-627.996001 163.1495,-107.012099 384.4278,-167.130869 615.1562,-167.130879 230.72839,0 452.00669,60.11877 615.15629,167.130869 163.1496,107.0121 254.8061,252.151641 254.8061,403.489611 z"
         style="fill:#5aa02c;fill-rule:evenodd;stroke-width:1.23212"
         inkscape:connector-curvature="0"
         sodipodi:nodetypes="ssssssssssss" />
      <path
         sodipodi:nodetypes="cccccccccccccccccccccccccccccccccc"
         inkscape:connector-curvature="0"
         id="path1028"
         d="m 1005.2594,609.27896 13.2291,1.65365 95.9115,335.69011 72.7605,-449.79168 h 9.9218 l -3.3073,99.21876 46.3021,-109.14063 23.1511,23.15104 -56.224,105.83334 -23.151,29.76562 -49.6095,300.96355 56.224,568.85418 16.5365,85.9896 -49.6094,-9.9219 3.3073,-99.2187 -26.4584,-271.198 -211.66659,-109.1406 -175.2865,-148.82812 -19.8437,-320.8073 -66.1459,-112.44792 9.9219,-13.22917 59.5313,95.91146 69.4531,-85.98958 11.5756,13.22916 -71.1069,90.95053 23.151,314.19272 51.2631,57.87762 88.295,75.1402 95.2597,53.8442 138.53939,56.2239 -12.8624,-119.0625 -9.1193,-85.42212 -37.1827,-116.32266 z"
         style="fill:#17280b;stroke:#000000;stroke-width:1.23212px;stroke-linecap:butt;stroke-linejoin:miter;stroke-opacity:1" />
      <path
         sodipodi:nodetypes="ssssssssssss"
         inkscape:connector-curvature="0"
         style="fill:#447821;fill-rule:evenodd;stroke-width:1.23212"
         d="m 1796.0513,100.55687 c 0,27.72519 -68.467,244.19536 -174.5257,264.58358 -42.2062,8.11352 -121.8577,-215.58742 -157.4569,-188.21301 -148.2646,114.00968 -128.7592,365.05467 -255.2895,328.16759 -183.4627,-53.48448 -231.80759,-300.7312 -303.63549,-253.61825 -163.1496,107.0121 -0.8961,330.83346 -231.6245,330.83346 -230.7284,-10e-6 -63.7977,-387.52396 -226.9473,-494.536061 -163.1495,-107.0121 -206.678,351.251871 -306.2554,237.289091 -205.797496,-235.527851 7.4666,-520.9839 170.6162,-627.996 163.1495,-107.0121 384.4278,-167.13087 615.1562,-167.13088 230.72839,0 452.00669,60.11877 615.15629,167.13087 163.1496,107.0121 254.8061,252.151649 254.8061,403.48961 z"
         id="path1030" />
      <path
         id="path1032"
         d="m 1739.9247,133.29739 c 0,11.70097 -17.81,594.22247 -47.4323,597.64006 -40.567,4.68031 -43.0664,-605.81603 -70.9668,-613.68949 -268.3993,-75.742081 -157.7692,718.77844 -230.3375,675.22992 -53.631,-32.18412 18.8201,-665.93012 -159.6912,-696.182371 -166.316,-28.18551 -102.8125,548.664681 -148.6778,547.583841 -49.9565,-1.17726 -64.7351,-535.20151 -105.18099,-541.78737 -184.5998,-30.058581 -86.2408,822.00544 -124.3274,809.92092 -50.1054,-15.89795 -21.3328,-801.1934 -130.5785,-782.14376 -192.2133,33.5171 -111.4486,582.92736 -142.7574,574.04874 -56.2086,-15.93983 29.7467,-509.1316 -133.4029,-616.143701 -163.1495,-107.0121 -99.2267,667.710601 -147.2301,672.270251 -38.8096,3.68641 20.8093,-636.04565 -105.8672,-694.696641 -39.2407,-18.16835 -91.4558,52.044601 -134.307196,49.005731 3.2684,-302.06178 219.677796,-396.23958 251.765296,-417.28625 163.1495,-107.01205 384.4278,-167.13087 615.1562,-167.13088 230.72839,0 452.00669,60.11877 615.15629,167.13087 163.1496,107.0121 198.6795,284.892169 198.6795,436.23013 z"
         style="fill:#2d5016;fill-rule:evenodd;stroke-width:1.23212"
         inkscape:connector-curvature="0"
         sodipodi:nodetypes="ssssssssssssscssss" />
    </g>
    <g
       id="g1100"
       transform="matrix(0.4175011,0,0,0.41682612,-41.102826,491.29662)"
       style="fill:#112b00;stroke:none;stroke-width:2.39714">
      <path
         style="fill:#112b00;stroke:none;stroke-width:0.634244px;stroke-linecap:butt;stroke-linejoin:miter;stroke-opacity:1"
         d="m 940.56986,-39.600041 c 0,0 -23.92515,-47.814432 -61.4342,-69.027549 -48.67173,-27.52612 -127.01733,-15.92859 -89.04758,-39.28625 37.96975,-23.35766 162.76291,6.76235 194.30339,107.486977 z"
         id="path1085"
         inkscape:connector-curvature="0"
         sodipodi:nodetypes="cszcc" />
      <path
         sodipodi:nodetypes="cszcc"
         inkscape:connector-curvature="0"
         id="path1087"
         d="m 980.19861,-30.480183 c 0,0 41.76369,-33.383158 84.71029,-36.920878 55.7274,-4.59051 121.9975,38.77784 97.3146,1.65596 -24.6829,-37.121939 -150.6095,-62.082889 -221.46465,16.146286 z"
         style="fill:#112b00;stroke:none;stroke-width:0.634244px;stroke-linecap:butt;stroke-linejoin:miter;stroke-opacity:1" />
      <path
         sodipodi:nodetypes="cszcc"
         inkscape:connector-curvature="0"
         id="path1089"
         d="m 955.91096,-59.507283 c 0,0 2.2949,-34.685547 -12.61768,-60.339987 -19.35057,-33.28918 -69.75194,-56.99683 -39.21679,-54.98605 30.53515,2.01078 94.08226,65.7428 78.07655,131.611489 z"
         style="fill:#112b00;stroke:none;stroke-width:0.634244px;stroke-linecap:butt;stroke-linejoin:miter;stroke-opacity:1" />
      <path
         style="fill:#112b00;stroke:none;stroke-width:0.634244px;stroke-linecap:butt;stroke-linejoin:miter;stroke-opacity:1"
         d="m 994.34338,-84.361158 c 0,0 -9.0556,-19.711612 -6.3951,-41.234642 3.4522,-27.92826 26.54322,-63.12704 9.7893,-49.16359 -16.7538,13.96345 -38.29378,78.510445 -14.5346,111.073997 z"
         id="path1091"
         inkscape:connector-curvature="0"
         sodipodi:nodetypes="cszcc" />
      <path
         style="fill:#112b00;stroke:none;stroke-width:0.634244px;stroke-linecap:butt;stroke-linejoin:miter;stroke-opacity:1"
         d="m 996.11277,-67.67138 c 0,0 9.28283,-33.499 31.82773,-52.79315 29.2542,-25.03611 84.6562,-30.77834 55.1688,-38.95938 -29.4875,-8.18108 -110.50985,31.00304 -117.14339,98.463123 z"
         id="path1093"
         inkscape:connector-curvature="0"
         sodipodi:nodetypes="cszcc" />
    </g>
    <g
       style="fill:#a0892c;stroke:none;stroke-width:2.58608"
       id="g1356"
       transform="matrix(0.36845277,0.00789421,-0.20142062,0.40150643,-869.02614,649.10586)">
      <path
         sodipodi:nodetypes="csc"
         inkscape:connector-curvature="0"
         id="path1350"
         d="m 2136.4268,74.563071 c 61.8894,-169.383122 144.2248,-259.744251 217.4859,-307.783451 95.068,-62.33853 174.8555,-53.41025 174.8555,-53.41025"
         style="fill:#a0892c;stroke:none;stroke-width:0.684233px;stroke-linecap:butt;stroke-linejoin:miter;stroke-opacity:1" />
      <path
         sodipodi:nodetypes="cscccccscccscccscccccc"
         inkscape:connector-curvature="0"
         id="path1352"
         d="m 2108.4169,133.03617 c 0,0 -36.6327,-54.13665 -20.0511,-89.350103 16.5817,-35.2134518 41.3346,62.951543 41.3346,62.951543 0,0 -18.7198,-43.527317 -8.8295,-102.6258768 9.8903,-59.0985422 32.3017,57.0672588 32.3017,57.0672588 0,0 -16.4433,-70.9551788 -9.2006,-114.371381 7.2427,-43.41624 30.3542,69.118818 30.3542,69.118818 0,0 -22.0214,-59.603768 0.7737,-119.226419 22.795,-59.62261 14.5838,74.739001 14.5838,74.739001 0,0 14.8836,-155.293041 45.9653,-170.011081 31.0817,-14.71803 1.5031,91.79856 1.5031,91.79856 0,0 20.8937,-82.96061 47.2084,-115.92053 26.3147,-32.95992 11.0641,48.07628 11.0641,48.07628 0,0 2.2348,-54.54963 47.3385,-97.06652 45.1037,-42.51691 -4.5531,54.85567 -4.5531,54.85567 0,0 57.1595,-103.08077 87.3649,-97.63251 30.2054,5.44826 -16.6048,52.90822 -16.6048,52.90822 0,0 114.992,-129.58624 113.2395,-89.25365 -1.7525,40.33259 -36.9471,68.56748 -36.9471,68.56748 0,0 115.4929,-98.98671 107.309,-44.83119 -250.955,145.26376 -306.1671,176.84681 -446.6647,449.36024 z"
         style="fill:#a0892c;stroke:none;stroke-width:0.684233px;stroke-linecap:butt;stroke-linejoin:miter;stroke-opacity:1" />
      <path
         inkscape:connector-curvature="0"
         id="path1354"
         d="m 2161.2059,142.82638 c 13.564,-5.89789 125.3787,-15.80953 134.2384,-48.2899 8.8597,-32.480368 -105.1361,5.79793 -105.1361,5.79793 0,0 141.4042,-33.66454 150.7802,-60.321228 9.3759,-26.656653 -134.6965,16.635517 -134.6965,16.635517 0,0 169.7257,-58.4789427 165.6701,-90.988341 -4.0557,-32.509396 -138.4553,40.4464763 -138.4553,40.4464763 0,0 129.0632,-53.7005983 145.7664,-90.3979213 16.703,-36.697283 -124.0365,30.951126 -124.0365,30.951126 0,0 174.1329,-88.216839 161.0401,-103.490709 -13.0927,-15.27385 -66.5964,3.55557 -66.5964,3.55557 0,0 75.6336,-20.79109 125.5398,-40.47552 49.9063,-19.68441 -83.9351,-6.64638 -77.1532,-9.59532 6.7819,-2.94894 108.7625,-17.85829 131.9831,-34.00331 23.2204,-16.145 -37.8621,-16.5999 -37.8621,-16.5999 0,0 107.1268,3.41671 111.505,-13.40585 4.3783,-16.82255 -51.471,-37.69745 -51.471,-37.69745 l -120.823,14.23184 -310.62,336.267235 z"
         style="fill:#a0892c;stroke:none;stroke-width:0.684233px;stroke-linecap:butt;stroke-linejoin:miter;stroke-opacity:1" />
    </g>
    <g
       inkscape:transform-center-y="26.284347"
       inkscape:transform-center-x="-188.37113"
       id="g1124"
       transform="matrix(0.67729312,-0.39103535,0.39040316,0.67619814,-211.62146,987.28166)"
       style="fill:#112b00;stroke:none;stroke-width:1.27969">
      <path
         style="fill:#112b00;stroke:none;stroke-width:0.338585px;stroke-linecap:butt;stroke-linejoin:miter;stroke-opacity:1"
         d="m 940.56986,-39.600041 c 0,0 -23.92515,-47.814432 -61.4342,-69.027549 -48.67173,-27.52612 -127.01733,-15.92859 -89.04758,-39.28625 37.96975,-23.35766 162.76291,6.76235 194.30339,107.486977 z"
         id="path1114"
         inkscape:connector-curvature="0"
         sodipodi:nodetypes="cszcc" />
      <path
         sodipodi:nodetypes="cszcc"
         inkscape:connector-curvature="0"
         id="path1116"
         d="m 980.19861,-30.480183 c 0,0 41.76369,-33.383158 84.71029,-36.920878 55.7274,-4.59051 121.9975,38.77784 97.3146,1.65596 -24.6829,-37.121939 -150.6095,-62.082889 -221.46465,16.146286 z"
         style="fill:#112b00;stroke:none;stroke-width:0.338585px;stroke-linecap:butt;stroke-linejoin:miter;stroke-opacity:1" />
      <path
         sodipodi:nodetypes="cszcc"
         inkscape:connector-curvature="0"
         id="path1118"
         d="m 955.91096,-59.507283 c 0,0 2.2949,-34.685547 -12.61768,-60.339987 -19.35057,-33.28918 -69.75194,-56.99683 -39.21679,-54.98605 30.53515,2.01078 94.08226,65.7428 78.07655,131.611489 z"
         style="fill:#112b00;stroke:none;stroke-width:0.338585px;stroke-linecap:butt;stroke-linejoin:miter;stroke-opacity:1" />
      <path
         style="fill:#112b00;stroke:none;stroke-width:0.338585px;stroke-linecap:butt;stroke-linejoin:miter;stroke-opacity:1"
         d="m 994.34338,-84.361158 c 0,0 -9.0556,-19.711612 -6.3951,-41.234642 3.4522,-27.92826 26.54322,-63.12704 9.7893,-49.16359 -16.7538,13.96345 -38.29378,78.510445 -14.5346,111.073997 z"
         id="path1120"
         inkscape:connector-curvature="0"
         sodipodi:nodetypes="cszcc" />
      <path
         style="fill:#112b00;stroke:none;stroke-width:0.338585px;stroke-linecap:butt;stroke-linejoin:miter;stroke-opacity:1"
         d="m 996.11277,-67.67138 c 0,0 9.28283,-33.499 31.82773,-52.79315 29.2542,-25.03611 84.6562,-30.77834 55.1688,-38.95938 -29.4875,-8.18108 -110.50985,31.00304 -117.14339,98.463123 z"
         id="path1122"
         inkscape:connector-curvature="0"
         sodipodi:nodetypes="cszcc" />
    </g>
    <path
       sodipodi:nodetypes="cccccccszzssccsccccc"
       inkscape:connector-curvature="0"
       id="path1142"
       d="m 420.78908,544.45887 c -1.1294,-5.13537 -0.97747,-4.96586 -5.40403,-11.45545 -0.96105,10.07848 2.24049,20.84493 6.43805,27.83266 -10.07988,-9.41359 -13.38379,-15.77562 -32.01575,-22.76769 11.9724,15.12472 11.56478,8.91133 22.29073,20.16506 3.47175,4.15348 4.43963,7.86755 6.43186,9.49651 -24.7359,-6.02285 -40.07517,-3.76264 -53.31389,-5.31485 13.46139,9.48698 14.79291,4.78356 37.51744,13.42395 13.52561,5.1427 14.46446,7.4078 20.05272,7.7334 5.58827,0.3256 8.02775,-1.2074 10.96121,-2.7591 2.93338,-1.5517 4.51266,-3.6749 6.2729,-5.8276 6.8139,-8.33327 8.38475,-16.5648 16.24182,-27.00158 12.78046,-16.97656 12.90061,-10.18577 23.72627,-28.71319 -22.83349,12.98776 -29.43836,26.50207 -44.78456,41.54665 -0.24845,-3.10555 0.64973,-12.97636 0.28244,-16.55406 -1.62676,-15.84542 -0.0864,-11.92733 -4.57896,-23.22763 -4.9085,9.3006 1.6618,22.13311 -4.86029,37.56739 -0.85471,-0.98449 -1.65875,-2.07825 -2.32092,-3.27189 -2.49399,-6.7804 -2.30651,-7.76182 -2.93704,-10.87258 z"
       style="fill:#445016;stroke:#000000;stroke-width:0;stroke-linecap:butt;stroke-linejoin:miter;stroke-miterlimit:4;stroke-dasharray:none;stroke-opacity:1" />
    <path
       style="fill:#445016;stroke:#000000;stroke-width:0;stroke-linecap:butt;stroke-linejoin:miter;stroke-miterlimit:4;stroke-dasharray:none;stroke-opacity:1"
       d="m 370.14987,451.58917 c 1.35221,-2.50126 1.36353,-2.38236 1.60808,-6.49367 -4.20507,3.90187 -6.63299,9.40999 -7.17396,13.65666 -1.43153,-7.12325 -0.6862,-10.82556 -7.19042,-19.64831 0.23847,10.10664 2.34264,7.38418 3.40746,15.48019 0.15528,2.83372 -0.74893,4.69056 -0.38015,6.00178 -9.8434,-10.35256 -18.16976,-14.27025 -24.05745,-19.11342 3.05514,8.22545 5.44864,6.68436 13.33986,17.49198 4.69683,6.43265 4.31554,7.67556 6.92301,9.58236 2.60747,1.90683 4.36666,2.04007 6.37395,2.32209 2.00721,0.28197 3.56526,-0.10374 5.22255,-0.4444 6.41546,-1.31868 10.23361,-4.25645 17.93807,-6.12251 12.53222,-3.03532 10.07366,-0.16301 22.22642,-4.46508 -15.96149,-1.81528 -24.19543,1.73207 -37.26404,3.14796 1.02986,-1.37488 5.12722,-5.20999 6.27411,-6.81961 5.0794,-7.12888 4.37902,-5.00544 6.37456,-11.14552 -5.84383,2.32627 -7.39299,9.76426 -16.2982,14.13918 -0.0523,-0.68176 -0.0394,-1.39306 0.0797,-2.10109 1.2958,-3.62026 1.75112,-3.97047 2.59639,-5.46859 z"
       id="path1144"
       inkscape:connector-curvature="0"
       sodipodi:nodetypes="cccccccszzssccsccccc" />
    <path
       sodipodi:nodetypes="cccccccszzssccsccccc"
       inkscape:connector-curvature="0"
       id="path1146"
       d="m -1.3146758,492.19004 c -0.38137,-2.81766 -0.30218,-2.72828 -2.52722,-6.19408 -1.09823,5.63038 0.18584,11.5113 2.25116,15.26111 -5.35403,-4.91162 -6.93349,-8.34205 -17.3873902,-11.63767 6.14807,8.02508 6.2439,4.58557 11.8748702,10.49922 1.79525,2.19798 2.15887,4.23103 3.22945,5.07312 -14.0532602,-2.56397 -23.0889902,-0.82285 -30.6998402,-1.2665 7.31533,4.84544 8.34104,2.18993 21.08517,6.27189 7.5852902,2.42959 8.0096302,3.65847 11.2399302,3.6626 3.23029999,0.004 4.73014,-0.92485 6.51806,-1.87981 1.7879,-0.95496 2.81943,-2.18467 3.95772,-3.43649 4.4062598,-4.84579 5.7599998,-9.46922 10.8851898,-15.51681 8.33673,-9.8371 8.04289,-6.06771 15.3266,-16.70465 -13.96563,7.9388 -18.52789,15.65677 -28.2522798,24.50156 0.022,-1.71771 1.07248,-7.23067 1.0506,-9.20695 -0.0969,-8.75281 0.58852,-6.6245 -1.41732,-12.76122 -3.35071,5.32302 -0.21944,12.24536 -4.83640001,21.02749 -0.44397,-0.51998 -0.85267,-1.10228 -1.17366,-1.7445 -1.08634999,-3.68853 -0.92482999,-4.23976 -1.12468999,-5.94828 z"
       style="fill:#445016;stroke:#000000;stroke-width:0;stroke-linecap:butt;stroke-linejoin:miter;stroke-miterlimit:4;stroke-dasharray:none;stroke-opacity:1" />
    <g
       id="g1053"
       transform="matrix(0.15557014,0,0,0.15557014,374.11476,-20.827733)"
       style="stroke-width:6.42797">
      <path
         style="fill:#17280b;fill-opacity:1;stroke:#000000;stroke-width:1.70073px;stroke-linecap:butt;stroke-linejoin:miter;stroke-opacity:1"
         d="m -2678.9062,4047.4689 -105.8334,6.6146 13.2292,-145.5209 85.9895,-1647.0313 -390.2604,-615.1562 19.8438,-52.9168 119.0625,185.2084 72.7604,-92.6042 6.6145,46.3021 -52.9166,99.2187 271.1979,416.7188 39.6875,-648.2292 24.0509,47.1046 -16.7027,377.1001 306.6784,-361.9336 29.9318,10.4893 -330.7292,396.875 -13.2292,105.8333 -39.6875,145.5209 -46.3021,959.1147 668.073,-132.2917 -33.073,-105.8333 39.6876,-13.2291 33.0729,119.0624 377.0312,-59.5312 -13.2292,39.6875 -1098.0208,211.6667 z"
         id="path1044"
         inkscape:connector-curvature="0"
         sodipodi:nodetypes="cccccccccccccccccccccccccccc" />
      <path
         id="path1046"
         d="m -1413.3838,1957.2606 c 0,164.0396 -144.0239,1445.0118 -167.4894,1441.9681 -67.0573,-8.6981 -135.8874,-1681.4027 -356.9864,-1699.4195 -154.8953,-12.622 -144.7052,1652.7199 -216.5386,1651.006 -141.772,-3.3828 -20.3923,-1542.3542 -454.3344,-1580.4243 -349.5999,-30.6707 -338.3776,994.5027 -548.5469,965.425 -92.2229,-12.7594 137.3487,-744.915 -103.9237,-1002.9338 -111.619,-119.3663 -401.6031,1856.131 -437.9072,1848.5635 -32.4871,-6.7718 -170.421,-1428.1008 -170.421,-1624.185 0,-364.8937 135.5454,-714.8423 376.8178,-972.86109 241.2724,-258.01881 568.508,-402.97226 909.7187,-402.97226 341.2107,0 668.4463,144.95345 909.7187,402.97226 241.2724,258.01879 259.8924,607.96739 259.8924,972.86109 z"
         style="fill:#5aa02c;fill-opacity:1;fill-rule:evenodd;stroke-width:1.70073"
         inkscape:connector-curvature="0"
         sodipodi:nodetypes="sssssssssssss" />
      <path
         sodipodi:nodetypes="sssssssssssssss"
         inkscape:connector-curvature="0"
         style="fill:#225500;fill-rule:evenodd;stroke-width:1.70073"
         d="m -1349.3751,1824.9689 c -201.8466,-0.5209 -105.2444,646.9125 -196.8149,671.8848 -65.1583,17.7694 -102.2516,-736.6518 -184.7135,-765.5925 -154.1746,-54.1088 11.7377,1274.1849 -94.7093,1251.2487 -175.5314,-37.8219 14.9678,-1266.1125 -204.851,-1295.9299 -531.9265,-72.1533 -325.3393,855.8764 -450.533,858.9305 -187.6807,4.5785 68.197,-760.9083 -127.7358,-775.1196 -350.0232,-25.3878 -175.7284,1057.834 -318.2206,1033.5365 -140.309,-23.9253 13.456,-1008.7024 -334.25,-1071.0453 -296.8273,-53.2205 -36.5457,1712.9266 -201.4567,1683.167 -186.7145,-33.6942 82.6077,-1500.8293 -261.3507,-1485.2468 -364.5198,16.5139 -85.1379,-808.644 156.1345,-1066.6628 241.2724,-258.01881 643.6705,-282.71225 984.8812,-282.71225 341.2107,0 788.7063,9.66094 1029.9787,267.67975 241.2724,258.0188 337.9305,976.2085 203.6411,975.8619 z"
         id="path1048" />
    </g>
    <g
       id="g1239"
       transform="matrix(0.59925027,-0.35126279,0.35126279,0.59925027,-232.11365,1350.3067)"
       style="stroke-width:1.43965">
      <path
         style="fill:#445500;stroke:none;stroke-width:0.380908px;stroke-linecap:butt;stroke-linejoin:miter;stroke-opacity:1"
         d="m 1406.673,-269.5279 c -12.4818,2.51826 -42.77,7.82849 -59.6989,-11.09327 2.9435,-24.75685 2.2006,-19.05917 25.7891,-39.18682 l 30.9865,-19.29351 c 0,0 -48.5261,9.93908 -54.3726,-16.37026 10.5237,-8.76977 50.2801,-15.7856 50.2801,-15.7856 0,0 -47.8442,-5.14017 -58.4653,-28.06331 10.4264,-10.06079 51.4494,-12.27769 51.4494,-12.27769 0,0 -39.6845,-4.03412 -43.2642,-19.29352 8.9947,-19.35197 45.2553,-24.55539 45.0182,-24.55539 0,0 -23.3862,-26.894 -8.7698,-39.75634 14.6163,-12.86235 44.4335,-30.98656 65.481,-42.09495 21.6322,14.03165 58.598,30.33526 71.9122,47.35681 -9.4871,18.77548 -18.7088,28.06331 -18.7088,28.06331 0,0 23.386,-9.93909 50.8647,19.29352 -9.4206,22.53807 -54.9573,21.04747 -54.9573,21.04747 0,0 42.0949,-1.75396 65.481,11.10839 -13.9671,37.73194 -20.5605,26.32021 -46.7721,29.23261 0,0 42.5414,-4.83188 60.8038,20.46282 -10.9702,19.44818 -22.6501,38.26407 -36.8331,30.98656 -30.4155,-16.89748 29.3719,9.92673 39.547,48.78059 -23.5581,20.84828 -50.5661,13.1072 -66.9148,16.13073 -26.1782,4.84141 -42.549,12.639 -53.8988,12.26277 z"
         id="path1197"
         inkscape:connector-curvature="0"
         sodipodi:nodetypes="cccccccccccccccccccccscc" />
      <path
         style="fill:none;stroke:#000000;stroke-width:0.380908px;stroke-linecap:butt;stroke-linejoin:miter;stroke-opacity:1"
         d="M 1496.1247,-469.47891 Z"
         id="path1199"
         inkscape:connector-curvature="0" />
      <path
         sodipodi:nodetypes="cccccccccccccccccccccscc"
         inkscape:connector-curvature="0"
         id="path1201"
         d="m 1413.3099,-291.33233 c -8.3987,2.10973 -28.7787,6.55853 -40.1697,-9.29368 1.9806,-20.74067 1.4806,-15.9673 17.3527,-32.82974 l 20.85,-16.16364 c 0,0 -32.6519,8.32673 -36.5859,-13.71459 7.0812,-7.34711 33.8322,-13.22479 33.8322,-13.22479 0,0 -32.1932,-4.30632 -39.3398,-23.51074 7.0156,-8.42869 34.619,-10.28595 34.619,-10.28595 0,0 -26.7027,-3.37969 -29.1114,-16.16364 6.0523,-16.21261 30.4512,-20.5719 30.2917,-20.5719 0,0 -15.7361,-22.53114 -5.9012,-33.3069 9.8351,-10.77576 29.8983,-25.95976 44.0605,-35.26611 14.5558,11.75538 39.4291,25.41413 48.3877,39.67438 -6.3835,15.72963 -12.5885,23.51075 -12.5885,23.51075 0,0 15.7358,-8.32673 34.2254,16.16364 -6.3388,18.88184 -36.9792,17.63304 -36.9792,17.63304 0,0 28.3244,-1.46942 44.0604,9.30635 -9.3981,31.61088 -13.8347,22.05042 -31.4718,24.49036 0,0 28.625,-4.04802 40.9132,17.14323 -7.3814,16.29321 -15.2407,32.0567 -24.7839,25.95978 -20.4658,-14.15628 19.7635,8.31637 26.61,40.86719 -15.8515,17.46617 -34.0245,10.9809 -45.0251,13.51392 -17.6146,4.05603 -28.63,10.58865 -36.2671,10.27344 z"
         style="fill:#cccccc;fill-opacity:0.115578;stroke:none;stroke-width:0.380908px;stroke-linecap:butt;stroke-linejoin:miter;stroke-opacity:1" />
      <path
         style="fill:#222b00;stroke:none;stroke-width:0.380908px;stroke-linecap:butt;stroke-linejoin:miter;stroke-opacity:1"
         d="m 1462.2149,-256.66555 -7.0158,0.58465 -22.2168,-102.31411 -12.8623,-71.32756 23.3861,-91.79038 -2.3387,22.80143 -5.2618,25.72469 -8.1852,35.07913 -2.3386,10.52374 1.754,18.12421 9.9391,52.03404 12.8623,47.94147 5.8465,29.23262 z"
         id="path1203"
         inkscape:connector-curvature="0" />
      <path
         style="fill:#222b00;stroke:none;stroke-width:0.380908px;stroke-linecap:butt;stroke-linejoin:miter;stroke-opacity:1"
         d="m 1434.7363,-477.66404 c 4.6772,-2.92326 26.894,-21.04748 26.894,-21.04748 l 33.9098,-1.1693 -20.4628,3.50791 -12.2777,1.75396 -22.2168,20.46282 z"
         id="path1205"
         inkscape:connector-curvature="0" />
      <path
         style="fill:#222b00;stroke:none;stroke-width:0.380908px;stroke-linecap:butt;stroke-linejoin:miter;stroke-opacity:1"
         d="m 1430.6437,-440.24631 c 0,0 39.1717,-10.52374 41.5103,-11.10839 2.3386,-0.58465 53.2034,-1.1693 53.2034,-1.1693 l -47.9415,5.84652 -28.0633,4.67721 -17.5396,4.09257 z"
         id="path1207"
         inkscape:connector-curvature="0" />
      <path
         style="fill:#222b00;stroke:none;stroke-width:0.380908px;stroke-linecap:butt;stroke-linejoin:miter;stroke-opacity:1"
         d="m 1435.9056,-402.82857 1.7539,8.76978 32.1559,-7.01583 35.0791,-2.92326 31.5712,-4.67721 c 0,0 -37.4177,1.75395 -39.7563,1.75395 -2.3386,0 -23.3861,0.58465 -23.3861,0.58465 l -27.4786,7.01583 z"
         id="path1209"
         inkscape:connector-curvature="0" />
      <path
         style="fill:#222b00;stroke:none;stroke-width:0.380908px;stroke-linecap:butt;stroke-linejoin:miter;stroke-opacity:1"
         d="m 1453.4451,-334.42428 40.341,-43.26425 53.788,12.86234 -32.1558,-4.09256 -15.201,-1.75396 -9.3544,5.84652 -18.7089,15.78561 -17.5396,18.70887 z"
         id="path1211"
         inkscape:connector-curvature="0" />
      <path
         style="fill:#222b00;stroke:none;stroke-width:0.380908px;stroke-linecap:butt;stroke-linejoin:miter;stroke-opacity:1"
         d="m 1461.6303,-301.09911 59.6345,-11.1084 38.587,18.70887 -36.2484,-12.86235 h -8.7698 l -32.1559,6.43118 z"
         id="path1213"
         inkscape:connector-curvature="0" />
      <path
         style="fill:#222b00;stroke:none;stroke-width:0.380908px;stroke-linecap:butt;stroke-linejoin:miter;stroke-opacity:1"
         d="m 1439.4135,-288.82141 -42.6796,-10.52375 -29.2326,8.18515 -5.8466,-4.67723 37.4178,-9.35442 z"
         id="path1215"
         inkscape:connector-curvature="0" />
      <path
         style="fill:#222b00;stroke:none;stroke-width:0.380908px;stroke-linecap:butt;stroke-linejoin:miter;stroke-opacity:1"
         d="m 1428.8897,-356.64106 -31.5712,-3.50791 -41.5103,6.43117 45.0182,-12.86234 z"
         id="path1217"
         inkscape:connector-curvature="0" />
      <path
         style="fill:#222b00;stroke:none;stroke-width:0.380908px;stroke-linecap:butt;stroke-linejoin:miter;stroke-opacity:1"
         d="m 1419.5353,-400.48996 -33.3252,5.26186 -38.587,-6.43117 39.1717,3.50791 z"
         id="path1219"
         inkscape:connector-curvature="0" />
      <path
         style="fill:#222b00;stroke:none;stroke-width:0.380908px;stroke-linecap:butt;stroke-linejoin:miter;stroke-opacity:1"
         d="m 1414.8581,-442.00027 -7.6005,2.92326 -21.0475,-2.3386 -33.9098,7.60047 42.095,-12.27769 z"
         id="path1221"
         inkscape:connector-curvature="0" />
      <path
         style="fill:#222b00;stroke:none;stroke-width:0.380908px;stroke-linecap:butt;stroke-linejoin:miter;stroke-opacity:1"
         d="m 1423.6279,-478.2487 -31.5712,-15.7856 -11.6931,-3.50792 21.6321,3.50792 18.7089,7.60048 z"
         id="path1223"
         inkscape:connector-curvature="0" />
    </g>
    <g
       id="g1348"
       transform="matrix(1.3293811,0.6944968,-0.6944968,1.3293811,128.94814,365.07013)"
       style="stroke-width:0.666729">
      <g
         transform="matrix(0.20564025,-0.12197978,0.12663321,0.21348527,-482.02206,480.29564)"
         id="g1333"
         style="fill:#668000;stroke:none;stroke-width:2.73682">
        <path
           style="fill:#668000;stroke:none;stroke-width:0.724118px;stroke-linecap:butt;stroke-linejoin:miter;stroke-opacity:1"
           d="m 2136.4268,74.563071 c 61.8894,-169.383122 144.2248,-259.744251 217.4859,-307.783451 95.068,-62.33853 174.8555,-53.41025 174.8555,-53.41025"
           id="path1327"
           inkscape:connector-curvature="0"
           sodipodi:nodetypes="csc" />
        <path
           style="fill:#668000;stroke:none;stroke-width:0.724118px;stroke-linecap:butt;stroke-linejoin:miter;stroke-opacity:1"
           d="m 2108.4169,133.03617 c 0,0 -36.6327,-54.13665 -20.0511,-89.350103 16.5817,-35.2134518 41.3346,62.951543 41.3346,62.951543 0,0 -18.7198,-43.527317 -8.8295,-102.6258768 9.8903,-59.0985422 32.3017,57.0672588 32.3017,57.0672588 0,0 -16.4433,-70.9551788 -9.2006,-114.371381 7.2427,-43.41624 30.3542,69.118818 30.3542,69.118818 0,0 -22.0214,-59.603768 0.7737,-119.226419 22.795,-59.62261 14.5838,74.739001 14.5838,74.739001 0,0 14.8836,-155.293041 45.9653,-170.011081 31.0817,-14.71803 1.5031,91.79856 1.5031,91.79856 0,0 20.8937,-82.96061 47.2084,-115.92053 26.3147,-32.95992 11.0641,48.07628 11.0641,48.07628 0,0 2.2348,-54.54963 47.3385,-97.06652 45.1037,-42.51691 -4.5531,54.85567 -4.5531,54.85567 0,0 57.1595,-103.08077 87.3649,-97.63251 30.2054,5.44826 -16.6048,52.90822 -16.6048,52.90822 0,0 114.992,-129.58624 113.2395,-89.25365 -1.7525,40.33259 -36.9471,68.56748 -36.9471,68.56748 0,0 115.4929,-98.98671 107.309,-44.83119 -250.955,145.26376 -306.1671,176.84681 -446.6647,449.36024 z"
           id="path1329"
           inkscape:connector-curvature="0"
           sodipodi:nodetypes="cscccccscccscccscccccc" />
        <path
           style="fill:#668000;stroke:none;stroke-width:0.724118px;stroke-linecap:butt;stroke-linejoin:miter;stroke-opacity:1"
           d="m 2161.2059,142.82638 c 13.564,-5.89789 125.3787,-15.80953 134.2384,-48.2899 8.8597,-32.480368 -105.1361,5.79793 -105.1361,5.79793 0,0 141.4042,-33.66454 150.7802,-60.321228 9.3759,-26.656653 -134.6965,16.635517 -134.6965,16.635517 0,0 169.7257,-58.4789427 165.6701,-90.988341 -4.0557,-32.509396 -138.4553,40.4464763 -138.4553,40.4464763 0,0 129.0632,-53.7005983 145.7664,-90.3979213 16.703,-36.697283 -124.0365,30.951126 -124.0365,30.951126 0,0 174.1329,-88.216839 161.0401,-103.490709 -13.0927,-15.27385 -66.5964,3.55557 -66.5964,3.55557 0,0 75.6336,-20.79109 125.5398,-40.47552 49.9063,-19.68441 -83.9351,-6.64638 -77.1532,-9.59532 6.7819,-2.94894 108.7625,-17.85829 131.9831,-34.00331 23.2204,-16.145 -37.8621,-16.5999 -37.8621,-16.5999 0,0 107.1268,3.41671 111.505,-13.40585 4.3783,-16.82255 -51.471,-37.69745 -51.471,-37.69745 l -120.823,14.23184 -310.62,336.267235 z"
           id="path1331"
           inkscape:connector-curvature="0" />
      </g>
      <g
         style="stroke-width:1.47073"
         transform="matrix(0.45333183,0,0,0.45333183,-354.7177,6.6348372)"
         id="g1317">
        <g
           transform="matrix(-0.64206888,-0.22594839,-0.21741078,0.61780787,2098.9038,1021.721)"
           id="g1311"
           style="fill:#445500;stroke:none;stroke-width:2.20274">
          <path
             style="fill:#445500;stroke:none;stroke-width:0.582809px;stroke-linecap:butt;stroke-linejoin:miter;stroke-opacity:1"
             d="m 2136.4268,74.563071 c 61.8894,-169.383122 144.2248,-259.744251 217.4859,-307.783451 95.068,-62.33853 174.8555,-53.41025 174.8555,-53.41025"
             id="path1305"
             inkscape:connector-curvature="0"
             sodipodi:nodetypes="csc" />
          <path
             style="fill:#445500;stroke:none;stroke-width:0.582809px;stroke-linecap:butt;stroke-linejoin:miter;stroke-opacity:1"
             d="m 2108.4169,133.03617 c 0,0 -36.6327,-54.13665 -20.0511,-89.350103 16.5817,-35.2134518 41.3346,62.951543 41.3346,62.951543 0,0 -18.7198,-43.527317 -8.8295,-102.6258768 9.8903,-59.0985422 32.3017,57.0672588 32.3017,57.0672588 0,0 -16.4433,-70.9551788 -9.2006,-114.371381 7.2427,-43.41624 30.3542,69.118818 30.3542,69.118818 0,0 -22.0214,-59.603768 0.7737,-119.226419 22.795,-59.62261 14.5838,74.739001 14.5838,74.739001 0,0 14.8836,-155.293041 45.9653,-170.011081 31.0817,-14.71803 1.5031,91.79856 1.5031,91.79856 0,0 20.8937,-82.96061 47.2084,-115.92053 26.3147,-32.95992 11.0641,48.07628 11.0641,48.07628 0,0 2.2348,-54.54963 47.3385,-97.06652 45.1037,-42.51691 -4.5531,54.85567 -4.5531,54.85567 0,0 57.1595,-103.08077 87.3649,-97.63251 30.2054,5.44826 -16.6048,52.90822 -16.6048,52.90822 0,0 114.992,-129.58624 113.2395,-89.25365 -1.7525,40.33259 -36.9471,68.56748 -36.9471,68.56748 0,0 115.4929,-98.98671 107.309,-44.83119 -250.955,145.26376 -306.1671,176.84681 -446.6647,449.36024 z"
             id="path1307"
             inkscape:connector-curvature="0"
             sodipodi:nodetypes="cscccccscccscccscccccc" />
          <path
             style="fill:#445500;stroke:none;stroke-width:0.582809px;stroke-linecap:butt;stroke-linejoin:miter;stroke-opacity:1"
             d="m 2161.2059,142.82638 c 13.564,-5.89789 125.3787,-15.80953 134.2384,-48.2899 8.8597,-32.480368 -105.1361,5.79793 -105.1361,5.79793 0,0 141.4042,-33.66454 150.7802,-60.321228 9.3759,-26.656653 -134.6965,16.635517 -134.6965,16.635517 0,0 169.7257,-58.4789427 165.6701,-90.988341 -4.0557,-32.509396 -138.4553,40.4464763 -138.4553,40.4464763 0,0 129.0632,-53.7005983 145.7664,-90.3979213 16.703,-36.697283 -124.0365,30.951126 -124.0365,30.951126 0,0 174.1329,-88.216839 161.0401,-103.490709 -13.0927,-15.27385 -66.5964,3.55557 -66.5964,3.55557 0,0 75.6336,-20.79109 125.5398,-40.47552 49.9063,-19.68441 -83.9351,-6.64638 -77.1532,-9.59532 6.7819,-2.94894 108.7625,-17.85829 131.9831,-34.00331 23.2204,-16.145 -37.8621,-16.5999 -37.8621,-16.5999 0,0 107.1268,3.41671 111.505,-13.40585 4.3783,-16.82255 -51.471,-37.69745 -51.471,-37.69745 l -120.823,14.23184 -310.62,336.267235 z"
             id="path1309"
             inkscape:connector-curvature="0" />
        </g>
        <g
           style="fill:#445500;stroke:none;stroke-width:2.20274"
           id="g1325"
           transform="matrix(0.67896491,-0.04808077,0.04626401,0.65330976,-730.92043,610.87044)" />
      </g>
    </g>
    <g
       style="stroke-width:1.43965"
       transform="matrix(0.50492438,-0.47700922,0.47700922,0.50492438,-138.60151,1561.1265)"
       id="g1394">
      <path
         sodipodi:nodetypes="cccccccccccccccccccccscc"
         inkscape:connector-curvature="0"
         id="path1366"
         d="m 1406.673,-269.5279 c -12.4818,2.51826 -42.77,7.82849 -59.6989,-11.09327 2.9435,-24.75685 2.2006,-19.05917 25.7891,-39.18682 l 30.9865,-19.29351 c 0,0 -48.5261,9.93908 -54.3726,-16.37026 10.5237,-8.76977 50.2801,-15.7856 50.2801,-15.7856 0,0 -47.8442,-5.14017 -58.4653,-28.06331 10.4264,-10.06079 51.4494,-12.27769 51.4494,-12.27769 0,0 -39.6845,-4.03412 -43.2642,-19.29352 8.9947,-19.35197 45.2553,-24.55539 45.0182,-24.55539 0,0 -23.3862,-26.894 -8.7698,-39.75634 14.6163,-12.86235 44.4335,-30.98656 65.481,-42.09495 21.6322,14.03165 58.598,30.33526 71.9122,47.35681 -9.4871,18.77548 -18.7088,28.06331 -18.7088,28.06331 0,0 23.386,-9.93909 50.8647,19.29352 -9.4206,22.53807 -54.9573,21.04747 -54.9573,21.04747 0,0 42.0949,-1.75396 65.481,11.10839 -13.9671,37.73194 -20.5605,26.32021 -46.7721,29.23261 0,0 42.5414,-4.83188 60.8038,20.46282 -10.9702,19.44818 -22.6501,38.26407 -36.8331,30.98656 -30.4155,-16.89748 29.3719,9.92673 39.547,48.78059 -23.5581,20.84828 -50.5661,13.1072 -66.9148,16.13073 -26.1782,4.84141 -42.549,12.639 -53.8988,12.26277 z"
         style="fill:#445500;stroke:none;stroke-width:0.380908px;stroke-linecap:butt;stroke-linejoin:miter;stroke-opacity:1" />
      <path
         inkscape:connector-curvature="0"
         id="path1368"
         d="M 1496.1247,-469.47891 Z"
         style="fill:none;stroke:#000000;stroke-width:0.380908px;stroke-linecap:butt;stroke-linejoin:miter;stroke-opacity:1" />
      <path
         style="fill:#cccccc;fill-opacity:0.115578;stroke:none;stroke-width:0.380908px;stroke-linecap:butt;stroke-linejoin:miter;stroke-opacity:1"
         d="m 1413.3099,-291.33233 c -8.3987,2.10973 -28.7787,6.55853 -40.1697,-9.29368 1.9806,-20.74067 1.4806,-15.9673 17.3527,-32.82974 l 20.85,-16.16364 c 0,0 -32.6519,8.32673 -36.5859,-13.71459 7.0812,-7.34711 33.8322,-13.22479 33.8322,-13.22479 0,0 -32.1932,-4.30632 -39.3398,-23.51074 7.0156,-8.42869 34.619,-10.28595 34.619,-10.28595 0,0 -26.7027,-3.37969 -29.1114,-16.16364 6.0523,-16.21261 30.4512,-20.5719 30.2917,-20.5719 0,0 -15.7361,-22.53114 -5.9012,-33.3069 9.8351,-10.77576 29.8983,-25.95976 44.0605,-35.26611 14.5558,11.75538 39.4291,25.41413 48.3877,39.67438 -6.3835,15.72963 -12.5885,23.51075 -12.5885,23.51075 0,0 15.7358,-8.32673 34.2254,16.16364 -6.3388,18.88184 -36.9792,17.63304 -36.9792,17.63304 0,0 28.3244,-1.46942 44.0604,9.30635 -9.3981,31.61088 -13.8347,22.05042 -31.4718,24.49036 0,0 28.625,-4.04802 40.9132,17.14323 -7.3814,16.29321 -15.2407,32.0567 -24.7839,25.95978 -20.4658,-14.15628 19.7635,8.31637 26.61,40.86719 -15.8515,17.46617 -34.0245,10.9809 -45.0251,13.51392 -17.6146,4.05603 -28.63,10.58865 -36.2671,10.27344 z"
         id="path1370"
         inkscape:connector-curvature="0"
         sodipodi:nodetypes="cccccccccccccccccccccscc" />
      <path
         inkscape:connector-curvature="0"
         id="path1372"
         d="m 1462.2149,-256.66555 -7.0158,0.58465 -22.2168,-102.31411 -12.8623,-71.32756 23.3861,-91.79038 -2.3387,22.80143 -5.2618,25.72469 -8.1852,35.07913 -2.3386,10.52374 1.754,18.12421 9.9391,52.03404 12.8623,47.94147 5.8465,29.23262 z"
         style="fill:#222b00;stroke:none;stroke-width:0.380908px;stroke-linecap:butt;stroke-linejoin:miter;stroke-opacity:1" />
      <path
         inkscape:connector-curvature="0"
         id="path1374"
         d="m 1434.7363,-477.66404 c 4.6772,-2.92326 26.894,-21.04748 26.894,-21.04748 l 33.9098,-1.1693 -20.4628,3.50791 -12.2777,1.75396 -22.2168,20.46282 z"
         style="fill:#222b00;stroke:none;stroke-width:0.380908px;stroke-linecap:butt;stroke-linejoin:miter;stroke-opacity:1" />
      <path
         inkscape:connector-curvature="0"
         id="path1376"
         d="m 1430.6437,-440.24631 c 0,0 39.1717,-10.52374 41.5103,-11.10839 2.3386,-0.58465 53.2034,-1.1693 53.2034,-1.1693 l -47.9415,5.84652 -28.0633,4.67721 -17.5396,4.09257 z"
         style="fill:#222b00;stroke:none;stroke-width:0.380908px;stroke-linecap:butt;stroke-linejoin:miter;stroke-opacity:1" />
      <path
         inkscape:connector-curvature="0"
         id="path1378"
         d="m 1435.9056,-402.82857 1.7539,8.76978 32.1559,-7.01583 35.0791,-2.92326 31.5712,-4.67721 c 0,0 -37.4177,1.75395 -39.7563,1.75395 -2.3386,0 -23.3861,0.58465 -23.3861,0.58465 l -27.4786,7.01583 z"
         style="fill:#222b00;stroke:none;stroke-width:0.380908px;stroke-linecap:butt;stroke-linejoin:miter;stroke-opacity:1" />
      <path
         inkscape:connector-curvature="0"
         id="path1380"
         d="m 1453.4451,-334.42428 40.341,-43.26425 53.788,12.86234 -32.1558,-4.09256 -15.201,-1.75396 -9.3544,5.84652 -18.7089,15.78561 -17.5396,18.70887 z"
         style="fill:#222b00;stroke:none;stroke-width:0.380908px;stroke-linecap:butt;stroke-linejoin:miter;stroke-opacity:1" />
      <path
         inkscape:connector-curvature="0"
         id="path1382"
         d="m 1461.6303,-301.09911 59.6345,-11.1084 38.587,18.70887 -36.2484,-12.86235 h -8.7698 l -32.1559,6.43118 z"
         style="fill:#222b00;stroke:none;stroke-width:0.380908px;stroke-linecap:butt;stroke-linejoin:miter;stroke-opacity:1" />
      <path
         inkscape:connector-curvature="0"
         id="path1384"
         d="m 1439.4135,-288.82141 -42.6796,-10.52375 -29.2326,8.18515 -5.8466,-4.67723 37.4178,-9.35442 z"
         style="fill:#222b00;stroke:none;stroke-width:0.380908px;stroke-linecap:butt;stroke-linejoin:miter;stroke-opacity:1" />
      <path
         inkscape:connector-curvature="0"
         id="path1386"
         d="m 1428.8897,-356.64106 -31.5712,-3.50791 -41.5103,6.43117 45.0182,-12.86234 z"
         style="fill:#222b00;stroke:none;stroke-width:0.380908px;stroke-linecap:butt;stroke-linejoin:miter;stroke-opacity:1" />
      <path
         inkscape:connector-curvature="0"
         id="path1388"
         d="m 1419.5353,-400.48996 -33.3252,5.26186 -38.587,-6.43117 39.1717,3.50791 z"
         style="fill:#222b00;stroke:none;stroke-width:0.380908px;stroke-linecap:butt;stroke-linejoin:miter;stroke-opacity:1" />
      <path
         inkscape:connector-curvature="0"
         id="path1390"
         d="m 1414.8581,-442.00027 -7.6005,2.92326 -21.0475,-2.3386 -33.9098,7.60047 42.095,-12.27769 z"
         style="fill:#222b00;stroke:none;stroke-width:0.380908px;stroke-linecap:butt;stroke-linejoin:miter;stroke-opacity:1" />
      <path
         inkscape:connector-curvature="0"
         id="path1392"
         d="m 1423.6279,-478.2487 -31.5712,-15.7856 -11.6931,-3.50792 21.6321,3.50792 18.7089,7.60048 z"
         style="fill:#222b00;stroke:none;stroke-width:0.380908px;stroke-linecap:butt;stroke-linejoin:miter;stroke-opacity:1" />
    </g>
    <g
       id="g1424"
       transform="matrix(0.50492438,-0.47700922,0.47700922,0.50492438,-138.60151,1561.1265)"
       style="stroke-width:1.43965">
      <path
         style="fill:#445500;stroke:none;stroke-width:0.380908px;stroke-linecap:butt;stroke-linejoin:miter;stroke-opacity:1"
         d="m 1406.673,-269.5279 c -12.4818,2.51826 -42.77,7.82849 -59.6989,-11.09327 2.9435,-24.75685 2.2006,-19.05917 25.7891,-39.18682 l 30.9865,-19.29351 c 0,0 -48.5261,9.93908 -54.3726,-16.37026 10.5237,-8.76977 50.2801,-15.7856 50.2801,-15.7856 0,0 -47.8442,-5.14017 -58.4653,-28.06331 10.4264,-10.06079 51.4494,-12.27769 51.4494,-12.27769 0,0 -39.6845,-4.03412 -43.2642,-19.29352 8.9947,-19.35197 45.2553,-24.55539 45.0182,-24.55539 0,0 -23.3862,-26.894 -8.7698,-39.75634 14.6163,-12.86235 44.4335,-30.98656 65.481,-42.09495 21.6322,14.03165 58.598,30.33526 71.9122,47.35681 -9.4871,18.77548 -18.7088,28.06331 -18.7088,28.06331 0,0 23.386,-9.93909 50.8647,19.29352 -9.4206,22.53807 -54.9573,21.04747 -54.9573,21.04747 0,0 42.0949,-1.75396 65.481,11.10839 -13.9671,37.73194 -20.5605,26.32021 -46.7721,29.23261 0,0 42.5414,-4.83188 60.8038,20.46282 -10.9702,19.44818 -22.6501,38.26407 -36.8331,30.98656 -30.4155,-16.89748 29.3719,9.92673 39.547,48.78059 -23.5581,20.84828 -50.5661,13.1072 -66.9148,16.13073 -26.1782,4.84141 -42.549,12.639 -53.8988,12.26277 z"
         id="path1396"
         inkscape:connector-curvature="0"
         sodipodi:nodetypes="cccccccccccccccccccccscc" />
      <path
         style="fill:none;stroke:#000000;stroke-width:0.380908px;stroke-linecap:butt;stroke-linejoin:miter;stroke-opacity:1"
         d="M 1496.1247,-469.47891 Z"
         id="path1398"
         inkscape:connector-curvature="0" />
      <path
         sodipodi:nodetypes="cccccccccccccccccccccscc"
         inkscape:connector-curvature="0"
         id="path1400"
         d="m 1413.3099,-291.33233 c -8.3987,2.10973 -28.7787,6.55853 -40.1697,-9.29368 1.9806,-20.74067 1.4806,-15.9673 17.3527,-32.82974 l 20.85,-16.16364 c 0,0 -32.6519,8.32673 -36.5859,-13.71459 7.0812,-7.34711 33.8322,-13.22479 33.8322,-13.22479 0,0 -32.1932,-4.30632 -39.3398,-23.51074 7.0156,-8.42869 34.619,-10.28595 34.619,-10.28595 0,0 -26.7027,-3.37969 -29.1114,-16.16364 6.0523,-16.21261 30.4512,-20.5719 30.2917,-20.5719 0,0 -15.7361,-22.53114 -5.9012,-33.3069 9.8351,-10.77576 29.8983,-25.95976 44.0605,-35.26611 14.5558,11.75538 39.4291,25.41413 48.3877,39.67438 -6.3835,15.72963 -12.5885,23.51075 -12.5885,23.51075 0,0 15.7358,-8.32673 34.2254,16.16364 -6.3388,18.88184 -36.9792,17.63304 -36.9792,17.63304 0,0 28.3244,-1.46942 44.0604,9.30635 -9.3981,31.61088 -13.8347,22.05042 -31.4718,24.49036 0,0 28.625,-4.04802 40.9132,17.14323 -7.3814,16.29321 -15.2407,32.0567 -24.7839,25.95978 -20.4658,-14.15628 19.7635,8.31637 26.61,40.86719 -15.8515,17.46617 -34.0245,10.9809 -45.0251,13.51392 -17.6146,4.05603 -28.63,10.58865 -36.2671,10.27344 z"
         style="fill:#cccccc;fill-opacity:0.115578;stroke:none;stroke-width:0.380908px;stroke-linecap:butt;stroke-linejoin:miter;stroke-opacity:1" />
      <path
         style="fill:#222b00;stroke:none;stroke-width:0.380908px;stroke-linecap:butt;stroke-linejoin:miter;stroke-opacity:1"
         d="m 1462.2149,-256.66555 -7.0158,0.58465 -22.2168,-102.31411 -12.8623,-71.32756 23.3861,-91.79038 -2.3387,22.80143 -5.2618,25.72469 -8.1852,35.07913 -2.3386,10.52374 1.754,18.12421 9.9391,52.03404 12.8623,47.94147 5.8465,29.23262 z"
         id="path1402"
         inkscape:connector-curvature="0" />
      <path
         style="fill:#222b00;stroke:none;stroke-width:0.380908px;stroke-linecap:butt;stroke-linejoin:miter;stroke-opacity:1"
         d="m 1434.7363,-477.66404 c 4.6772,-2.92326 26.894,-21.04748 26.894,-21.04748 l 33.9098,-1.1693 -20.4628,3.50791 -12.2777,1.75396 -22.2168,20.46282 z"
         id="path1404"
         inkscape:connector-curvature="0" />
      <path
         style="fill:#222b00;stroke:none;stroke-width:0.380908px;stroke-linecap:butt;stroke-linejoin:miter;stroke-opacity:1"
         d="m 1430.6437,-440.24631 c 0,0 39.1717,-10.52374 41.5103,-11.10839 2.3386,-0.58465 53.2034,-1.1693 53.2034,-1.1693 l -47.9415,5.84652 -28.0633,4.67721 -17.5396,4.09257 z"
         id="path1406"
         inkscape:connector-curvature="0" />
      <path
         style="fill:#222b00;stroke:none;stroke-width:0.380908px;stroke-linecap:butt;stroke-linejoin:miter;stroke-opacity:1"
         d="m 1435.9056,-402.82857 1.7539,8.76978 32.1559,-7.01583 35.0791,-2.92326 31.5712,-4.67721 c 0,0 -37.4177,1.75395 -39.7563,1.75395 -2.3386,0 -23.3861,0.58465 -23.3861,0.58465 l -27.4786,7.01583 z"
         id="path1408"
         inkscape:connector-curvature="0" />
      <path
         style="fill:#222b00;stroke:none;stroke-width:0.380908px;stroke-linecap:butt;stroke-linejoin:miter;stroke-opacity:1"
         d="m 1453.4451,-334.42428 40.341,-43.26425 53.788,12.86234 -32.1558,-4.09256 -15.201,-1.75396 -9.3544,5.84652 -18.7089,15.78561 -17.5396,18.70887 z"
         id="path1410"
         inkscape:connector-curvature="0" />
      <path
         style="fill:#222b00;stroke:none;stroke-width:0.380908px;stroke-linecap:butt;stroke-linejoin:miter;stroke-opacity:1"
         d="m 1461.6303,-301.09911 59.6345,-11.1084 38.587,18.70887 -36.2484,-12.86235 h -8.7698 l -32.1559,6.43118 z"
         id="path1412"
         inkscape:connector-curvature="0" />
      <path
         style="fill:#222b00;stroke:none;stroke-width:0.380908px;stroke-linecap:butt;stroke-linejoin:miter;stroke-opacity:1"
         d="m 1439.4135,-288.82141 -42.6796,-10.52375 -29.2326,8.18515 -5.8466,-4.67723 37.4178,-9.35442 z"
         id="path1414"
         inkscape:connector-curvature="0" />
      <path
         style="fill:#222b00;stroke:none;stroke-width:0.380908px;stroke-linecap:butt;stroke-linejoin:miter;stroke-opacity:1"
         d="m 1428.8897,-356.64106 -31.5712,-3.50791 -41.5103,6.43117 45.0182,-12.86234 z"
         id="path1416"
         inkscape:connector-curvature="0" />
      <path
         style="fill:#222b00;stroke:none;stroke-width:0.380908px;stroke-linecap:butt;stroke-linejoin:miter;stroke-opacity:1"
         d="m 1419.5353,-400.48996 -33.3252,5.26186 -38.587,-6.43117 39.1717,3.50791 z"
         id="path1418"
         inkscape:connector-curvature="0" />
      <path
         style="fill:#222b00;stroke:none;stroke-width:0.380908px;stroke-linecap:butt;stroke-linejoin:miter;stroke-opacity:1"
         d="m 1414.8581,-442.00027 -7.6005,2.92326 -21.0475,-2.3386 -33.9098,7.60047 42.095,-12.27769 z"
         id="path1420"
         inkscape:connector-curvature="0" />
      <path
         style="fill:#222b00;stroke:none;stroke-width:0.380908px;stroke-linecap:butt;stroke-linejoin:miter;stroke-opacity:1"
         d="m 1423.6279,-478.2487 -31.5712,-15.7856 -11.6931,-3.50792 21.6321,3.50792 18.7089,7.60048 z"
         id="path1422"
         inkscape:connector-curvature="0" />
    </g>
    <g
       style="stroke-width:1.43965"
       transform="matrix(0.60613864,0.33923793,-0.33923793,0.60613864,-448.64185,329.69703)"
       id="g1454">
      <path
         sodipodi:nodetypes="cccccccccccccccccccccscc"
         inkscape:connector-curvature="0"
         id="path1426"
         d="m 1406.673,-269.5279 c -12.4818,2.51826 -42.77,7.82849 -59.6989,-11.09327 2.9435,-24.75685 2.2006,-19.05917 25.7891,-39.18682 l 30.9865,-19.29351 c 0,0 -48.5261,9.93908 -54.3726,-16.37026 10.5237,-8.76977 50.2801,-15.7856 50.2801,-15.7856 0,0 -47.8442,-5.14017 -58.4653,-28.06331 10.4264,-10.06079 51.4494,-12.27769 51.4494,-12.27769 0,0 -39.6845,-4.03412 -43.2642,-19.29352 8.9947,-19.35197 45.2553,-24.55539 45.0182,-24.55539 0,0 -23.3862,-26.894 -8.7698,-39.75634 14.6163,-12.86235 44.4335,-30.98656 65.481,-42.09495 21.6322,14.03165 58.598,30.33526 71.9122,47.35681 -9.4871,18.77548 -18.7088,28.06331 -18.7088,28.06331 0,0 23.386,-9.93909 50.8647,19.29352 -9.4206,22.53807 -54.9573,21.04747 -54.9573,21.04747 0,0 42.0949,-1.75396 65.481,11.10839 -13.9671,37.73194 -20.5605,26.32021 -46.7721,29.23261 0,0 42.5414,-4.83188 60.8038,20.46282 -10.9702,19.44818 -22.6501,38.26407 -36.8331,30.98656 -30.4155,-16.89748 29.3719,9.92673 39.547,48.78059 -23.5581,20.84828 -50.5661,13.1072 -66.9148,16.13073 -26.1782,4.84141 -42.549,12.639 -53.8988,12.26277 z"
         style="fill:#445500;stroke:none;stroke-width:0.380908px;stroke-linecap:butt;stroke-linejoin:miter;stroke-opacity:1" />
      <path
         inkscape:connector-curvature="0"
         id="path1428"
         d="M 1496.1247,-469.47891 Z"
         style="fill:none;stroke:#000000;stroke-width:0.380908px;stroke-linecap:butt;stroke-linejoin:miter;stroke-opacity:1" />
      <path
         style="fill:#cccccc;fill-opacity:0.115578;stroke:none;stroke-width:0.380908px;stroke-linecap:butt;stroke-linejoin:miter;stroke-opacity:1"
         d="m 1413.3099,-291.33233 c -8.3987,2.10973 -28.7787,6.55853 -40.1697,-9.29368 1.9806,-20.74067 1.4806,-15.9673 17.3527,-32.82974 l 20.85,-16.16364 c 0,0 -32.6519,8.32673 -36.5859,-13.71459 7.0812,-7.34711 33.8322,-13.22479 33.8322,-13.22479 0,0 -32.1932,-4.30632 -39.3398,-23.51074 7.0156,-8.42869 34.619,-10.28595 34.619,-10.28595 0,0 -26.7027,-3.37969 -29.1114,-16.16364 6.0523,-16.21261 30.4512,-20.5719 30.2917,-20.5719 0,0 -15.7361,-22.53114 -5.9012,-33.3069 9.8351,-10.77576 29.8983,-25.95976 44.0605,-35.26611 14.5558,11.75538 39.4291,25.41413 48.3877,39.67438 -6.3835,15.72963 -12.5885,23.51075 -12.5885,23.51075 0,0 15.7358,-8.32673 34.2254,16.16364 -6.3388,18.88184 -36.9792,17.63304 -36.9792,17.63304 0,0 28.3244,-1.46942 44.0604,9.30635 -9.3981,31.61088 -13.8347,22.05042 -31.4718,24.49036 0,0 28.625,-4.04802 40.9132,17.14323 -7.3814,16.29321 -15.2407,32.0567 -24.7839,25.95978 -20.4658,-14.15628 19.7635,8.31637 26.61,40.86719 -15.8515,17.46617 -34.0245,10.9809 -45.0251,13.51392 -17.6146,4.05603 -28.63,10.58865 -36.2671,10.27344 z"
         id="path1430"
         inkscape:connector-curvature="0"
         sodipodi:nodetypes="cccccccccccccccccccccscc" />
      <path
         inkscape:connector-curvature="0"
         id="path1432"
         d="m 1462.2149,-256.66555 -7.0158,0.58465 -22.2168,-102.31411 -12.8623,-71.32756 23.3861,-91.79038 -2.3387,22.80143 -5.2618,25.72469 -8.1852,35.07913 -2.3386,10.52374 1.754,18.12421 9.9391,52.03404 12.8623,47.94147 5.8465,29.23262 z"
         style="fill:#222b00;stroke:none;stroke-width:0.380908px;stroke-linecap:butt;stroke-linejoin:miter;stroke-opacity:1" />
      <path
         inkscape:connector-curvature="0"
         id="path1434"
         d="m 1434.7363,-477.66404 c 4.6772,-2.92326 26.894,-21.04748 26.894,-21.04748 l 33.9098,-1.1693 -20.4628,3.50791 -12.2777,1.75396 -22.2168,20.46282 z"
         style="fill:#222b00;stroke:none;stroke-width:0.380908px;stroke-linecap:butt;stroke-linejoin:miter;stroke-opacity:1" />
      <path
         inkscape:connector-curvature="0"
         id="path1436"
         d="m 1430.6437,-440.24631 c 0,0 39.1717,-10.52374 41.5103,-11.10839 2.3386,-0.58465 53.2034,-1.1693 53.2034,-1.1693 l -47.9415,5.84652 -28.0633,4.67721 -17.5396,4.09257 z"
         style="fill:#222b00;stroke:none;stroke-width:0.380908px;stroke-linecap:butt;stroke-linejoin:miter;stroke-opacity:1" />
      <path
         inkscape:connector-curvature="0"
         id="path1438"
         d="m 1435.9056,-402.82857 1.7539,8.76978 32.1559,-7.01583 35.0791,-2.92326 31.5712,-4.67721 c 0,0 -37.4177,1.75395 -39.7563,1.75395 -2.3386,0 -23.3861,0.58465 -23.3861,0.58465 l -27.4786,7.01583 z"
         style="fill:#222b00;stroke:none;stroke-width:0.380908px;stroke-linecap:butt;stroke-linejoin:miter;stroke-opacity:1" />
      <path
         inkscape:connector-curvature="0"
         id="path1440"
         d="m 1453.4451,-334.42428 40.341,-43.26425 53.788,12.86234 -32.1558,-4.09256 -15.201,-1.75396 -9.3544,5.84652 -18.7089,15.78561 -17.5396,18.70887 z"
         style="fill:#222b00;stroke:none;stroke-width:0.380908px;stroke-linecap:butt;stroke-linejoin:miter;stroke-opacity:1" />
      <path
         inkscape:connector-curvature="0"
         id="path1442"
         d="m 1461.6303,-301.09911 59.6345,-11.1084 38.587,18.70887 -36.2484,-12.86235 h -8.7698 l -32.1559,6.43118 z"
         style="fill:#222b00;stroke:none;stroke-width:0.380908px;stroke-linecap:butt;stroke-linejoin:miter;stroke-opacity:1" />
      <path
         inkscape:connector-curvature="0"
         id="path1444"
         d="m 1439.4135,-288.82141 -42.6796,-10.52375 -29.2326,8.18515 -5.8466,-4.67723 37.4178,-9.35442 z"
         style="fill:#222b00;stroke:none;stroke-width:0.380908px;stroke-linecap:butt;stroke-linejoin:miter;stroke-opacity:1" />
      <path
         inkscape:connector-curvature="0"
         id="path1446"
         d="m 1428.8897,-356.64106 -31.5712,-3.50791 -41.5103,6.43117 45.0182,-12.86234 z"
         style="fill:#222b00;stroke:none;stroke-width:0.380908px;stroke-linecap:butt;stroke-linejoin:miter;stroke-opacity:1" />
      <path
         inkscape:connector-curvature="0"
         id="path1448"
         d="m 1419.5353,-400.48996 -33.3252,5.26186 -38.587,-6.43117 39.1717,3.50791 z"
         style="fill:#222b00;stroke:none;stroke-width:0.380908px;stroke-linecap:butt;stroke-linejoin:miter;stroke-opacity:1" />
      <path
         inkscape:connector-curvature="0"
         id="path1450"
         d="m 1414.8581,-442.00027 -7.6005,2.92326 -21.0475,-2.3386 -33.9098,7.60047 42.095,-12.27769 z"
         style="fill:#222b00;stroke:none;stroke-width:0.380908px;stroke-linecap:butt;stroke-linejoin:miter;stroke-opacity:1" />
      <path
         inkscape:connector-curvature="0"
         id="path1452"
         d="m 1423.6279,-478.2487 -31.5712,-15.7856 -11.6931,-3.50792 21.6321,3.50792 18.7089,7.60048 z"
         style="fill:#222b00;stroke:none;stroke-width:0.380908px;stroke-linecap:butt;stroke-linejoin:miter;stroke-opacity:1" />
    </g>
  </g>
</svg>
